<ttFont>
          <CharString index="0">
            715 1364 rmoveto
            -64 -51 10 -57 -39 -37 -12 -35 -8 -3 2 -7 hhcurveto
            -9 -4 -12 -12 -7 vvcurveto
            -143 -647 -43 -165 -41 -178 -35 -165 rlinecurve
            -36 -8 -40 -152 64 31 199 4 6 hhcurveto
            190 hlineto
            0 47 3 45 -32 callgsubr
            6 -29 callsubr
            3 17 8 11 hhcurveto
            19 33 17 89 23 112 rrcurveto
            76 97 -5 11 63 hvcurveto
            23 -116 18 -91 20 -33 rrcurveto
            54 98 -8 2 -8 callsubr
            1 8 3 hhcurveto
            21 0 -5 -3 hvcurveto
            129 hlineto
            -3 3 205 -1 27 hhcurveto
            65 -40 152 36 -8 hvcurveto
            -35 165 -41 178 -43 165 -143 647 rcurveline
            7 -13 12 -8 4 vhcurveto
            -7 -3 -2 -8 -17 -16 12 -16 -39 -33 -10 -39 hhcurveto
            16 -16 -332 -6 -25 hhcurveto
            -3 3 -198 -7 -5 hhcurveto
            280 -348 rmoveto
            3 0 2 1 3 vhcurveto
            1 5 1 7 3 11 3 -11 0 -7 1 -5 2 -8 rcurveline
            -4 60 -343 28 -169 vhcurveto
            4 -19 -19 8 -27 hhcurveto
            -4 hlineto
            -3 -8 -3 -3 -3 hvcurveto
            -105 hlineto
            28 170 60 335 5 vvcurveto
            return
          </CharString>
          <CharString index="1">
            -83 43 67 14 callsubr
            25 30 -59 callsubr
            60 hlineto
            37 36 -2 37 hhcurveto
            35 4 32 29 140 -34 148 -13 144 hvcurveto
            -20 109 -23 95 -31 112 -16 14 rcurveline
            -88 14 rlineto
            -96 -77 6 -71 hhcurveto
            -12 -6 -12 4 -20 -37 callsubr
            -9 1 -9 -3 -88 -6 rcurveline
            -14 -4 rlineto
            -7 0 2 -7 hhcurveto
            -55 -12 -15 -6 -21 vvcurveto
            -3 -9 101 -176 49 -77 53 -85 26 -82 53 -87 rrcurveto
            702 hmoveto
            -83 27 31 -187 -54 callgsubr
            15 8 7 -61 callgsubr
            11 32 29 5 hvcurveto
            27 141 -5 147 16 144 rrcurveto
            109 -4 95 -8 112 vhcurveto
            -14 14 -85 14 rlineto
            -97 -75 6 -71 hhcurveto
            -13 -6 -12 4 -19 -3 -11 3 rlinecurve
            -8 -24 callsubr
            -89 -6 rcurveline
            -15 -46 callgsubr
            -56 -12 -16 -6 -4 -21 -7 -10 69 -174 33 -78 37 -85 10 -81 34 -88 rrcurveto
            endchar
          </CharString>
          <CharString index="2">
            972 6 rmoveto
            -11 57 65 3 60 hhcurveto
            83 92 -1 15 83 hvcurveto
            3 8 8 3 hhcurveto
            7 24 -5 -3 4 hvcurveto
            11 11 32 30 17 vvcurveto
            19 360 1 350 363 vvcurveto
            5 -2 3 -4 vhcurveto
            -4 -8 -4 -4 hhcurveto
            4 2 6 4 vvcurveto
            7 -2 1 -12 5 vhcurveto
            -217 6 rlineto
            -35 hlineto
            -46 -204 -1 -20 -45 hvcurveto
            2 vlineto
            8 -10 5 -4 -36 7 -35 -27 -49 0 -25 8 -55 vhcurveto
            -674 vlineto
            -12 -135 -59 -27 -33 5 96 28 26 6 283 8 171 vhcurveto
            20 vlineto
            64 -6 52 64 vvcurveto
            127 -44 15 -136 vhcurveto
            -13 -6 rlineto
            -3 -5 3 3 hvcurveto
            -250 4 rlineto
            -4 -8 -12 0 -13 hhcurveto
            -30 hlineto
            -31 -31 -4 -27 hvcurveto
            -27 6 -22 -27 vvcurveto
            -73 -12 -262 -2 1 vhcurveto
            -6 -14 rlineto
            -12 -2 -90 -25 vvcurveto
            -146 -31 -378 221 -84 vhcurveto
            -35 89 93 12 93 hhcurveto
            29 119 13 45 77 hvcurveto
            24 29 39 39 32 hhcurveto
            16 2 -70 -16 30 hvcurveto
            return
          </CharString>
          <CharString index="3">
            rmoveto
            258 93 -24 291 -12 95 rrcurveto
            -5 36 -14 123 15 vvcurveto
            31 -8 5 -44 13 vhcurveto
            -5 -2 -2 -5 hhcurveto
            -112 11 -20 2 -19 -3 rrcurveto
            -3 -35 -10 8 -11 hhcurveto
            -61 -55 2 -7 -53 hvcurveto
            -94 -11 -11 -12 11 -72 -1 -191 8 -71 rlinecurve
            4 -35 178 11 43 -9 17 -3 -60 -135 -143 -27 6 -6 14 -27 2 -7 20 -57 rcurveline
            15 -40 4 -39 3 -23 rrcurveto
            -3 11 10 1 13 hhcurveto
            68 63 19 27 56 hvcurveto
            return
          </CharString>
          <CharString index="4">
            116 805 rmoveto
            -168 7 -45 -88 -98 22 -287 -90 vvcurveto
            -15 -2 121 -14 22 216 217 2 215 103 88 8 99 -44 callsubr
            -51 203 -26 hvcurveto
            -129 -133 -12 -132 hhcurveto
            -3 56 9 48 51 vvcurveto
            105 7 -23 235 121 117 4 47 vhcurveto
            6 vlineto
            -8 183 -13 48 -14 -6 -43 5 rlinecurve
            12 -120 -119 -4 -124 hhcurveto
            -23 -9 6 37 43 14 156 25 hvcurveto
            return
          </CharString>
          <CharString index="5">
            rmoveto
            -59 16 37 -23 68 hhcurveto
            69 3 64 2 60 3 rrcurveto
            3 101 114 5 40 hhcurveto
            53 23 26 56 hvcurveto
            411 25 391 413 vvcurveto
            23 -10 23 -187 21 vhcurveto
            -62 3 rlineto
            1 -32 -32 2 -5 hhcurveto
            -5 -51 -197 -9 -55 hhcurveto
            -74 -8 -14 -50 -11 -1 -73 11 -61 hvcurveto
            -823 vlineto
            -19 -11 -19 -10 -20 -9 rrcurveto
            return
          </CharString>
          <CharString index="6">
            1336 119 rmoveto
            25 14 22 13 17 12 29 21 21 22 -25 11 -16 48 -176 192 -37 101 rrcurveto
            41 22 125 60 182 vvcurveto
            272 -162 89 -959 -33 -94 -5 -45 -4 3 -5 3 -3 vhcurveto
            -17 2 -64 -17 -101 -8 -36 -72 -8 6 -56 -8 -10 -6 -84 -10 vvcurveto
            -72 9 -81 5 -72 vhcurveto
            -107 8 17 -264 4 hhcurveto
            6 -14 64 -21 rlineto
            2 82 -2 30 hhcurveto
            113 103 8 8 113 hvcurveto
            3 9 -2 9 hhcurveto
            20 -1 322 85 4 hvcurveto
            1 11 4 7 hhcurveto
            1 2 -1 -2 2 hvcurveto
            147 -235 59 -95 120 -115 13 -13 246 121 13 34 rrcurveto
            -601 834 rmoveto
            56 hlineto
            53 58 -35 -84 -49 -38 -28 -40 -24 hvcurveto
            -22 -27 -66 -13 -39 hhcurveto
            85 6 85 3 85 vhcurveto
            return
          </CharString>
          <CharString index="7">
            -15 -20 -2 -4 -35 hvcurveto
            -213 hlineto
            -39 -4 -11 -49 -16 hvcurveto
            -4 2 -6 -4 vvcurveto
            -10 -64 rlineto
            -9 -27 7 -25 -27 vvcurveto
            -60 vlineto
            14 -65 14 -13 rlineto
            408 hlineto
            24 3 7 26 27 31 -3 28 31 25 -2 42 13 24 2 31 24 vvcurveto
            29 -3 23 -19 vhcurveto
            633 hmoveto
            -3 -12 -9 1 -8 hhcurveto
            return
          </CharString>
          <CharString index="8">
            13 43 5 49 55 vvcurveto
            97 -50 90 -84 97 vhcurveto
            123 -104 -154 13 -139 hhcurveto
            -248 -234 -163 -225 -56 14 -57 28 -59 hvcurveto
            320 2 rlineto
            -11 44 -7 50 48 vvcurveto
            15 1 12 1 15 vhcurveto
            4 24 77 157 84 69 -70 -90 -23 -5 -50 -12 -49 vhcurveto
            endchar
          </CharString>
          <CharString index="9">
            hstemhm
            hintmask 01110100
            25 callgsubr
            hintmask 10001100
            31 26 -8 31 hhcurveto
            210 252 2 201 134 hvcurveto
            14 8 rlineto
            3 24 39 16 8 hvcurveto
            61 112 31 125 128 vvcurveto
            268 -94 164 -215 143 vhcurveto
            62 -112 -107 6 -215 hhcurveto
            -4 -7 1 -3 -4 hvcurveto
            hintmask 01110100
            4 -24 -25 0 -24 hhcurveto
            -332 -207 -353 -311 -164 65 -258 175 -98 hvcurveto
            -42 71 2 -7 25 hhcurveto
            14 hlineto
            -21 67 63 -14 63 hhcurveto
            53 559 rmoveto
            43 330 rlineto
            104 12 31 37 25 hhcurveto
            61 -2 -315 16 hvcurveto
            return
          </CharString>
          <CharString index="10">
            778 670 rmoveto
            145 22 91 39 59 vhcurveto
            64 43 62 20 68 hhcurveto
            80 84 -26 -19 79 hvcurveto
            37 266 -116 68 -115 44 -113 23 rlinecurve
            12 -59 -58 6 -57 hhcurveto
            -19 -16 1 -3 -16 hvcurveto
            -237 -16 -196 -128 -112 -228 rrcurveto
            -60 -112 -34 -135 -161 vvcurveto
            -141 20 -110 33 -91 vhcurveto
            18 -39 22 -34 26 -29 31 -52 36 -42 41 -35 25 -19 26 -14 27 -12 rrcurveto
            -62 132 155 -10 149 hhcurveto
            136 185 68 104 107 hvcurveto
            -18 336 rlineto
            -69 -95 -105 -54 -81 hhcurveto
            -87 -69 62 180 -16 hvcurveto
            -3 28 -1 31 33 vvcurveto
            return
          </CharString>
          <CharString index="11">
            897 -49 rmoveto
            459 311 120 656 572 -453 124 -297 -584 -239 -226 -556 -637 405 -53 398 hvcurveto
            -109 719 rmoveto
            250 0 309 92 95 0 -482 -36 -113 0 -451 -95 -92 0 399 124 vhcurveto
            return
          </CharString>
          <CharString index="12">
            rmoveto
            -56 3 -51 2 -45 1 -78 3 -76 -1 -9 -3 rrcurveto
            -145 -97 -167 -62 -201 vvcurveto
            -25 1 -18 9 -23 vhcurveto
            -94 43 138 -71 305 hhcurveto
            17 191 36 38 4 hvcurveto
            33 170 rlineto
            8 vlineto
            9 -2 8 -11 3 vhcurveto
            -23 -61 -57 -12 -59 hhcurveto
            -51 -80 -14 84 44 44 62 29 34 hvcurveto
            31 37 32 33 27 27 return
          </CharString>
          <CharString index="13">
            15 callgsubr
            -31 119 vvcurveto
            47 -65 4 -47 vhcurveto
            -46 -378 9 -45 hhcurveto
            -227 hlineto
            -20 -28 -27 -21 hvcurveto
            -109 2 -47 5 callsubr
            205 hlineto
            11 206 -4 11 hhcurveto
            endchar
          </CharString>
          <CharString index="14">
            1056 173 rmoveto
            18 39 326 711 13 25 38 53 -56 34 rlinecurve
            -96 59 -171 66 -115 32 -35 11 -47 -29 -8 -32 -141 -366 rcurveline
            -11 -5 -5 -5 -6 hhcurveto
            -17 -14 29 15 -8 hvcurveto
            -65 125 -46 102 -49 103 rrcurveto
            35 -16 -14 6 -13 hhcurveto
            -12 -16 -1 -5 -13 hvcurveto
            -124 -48 -43 -23 -120 -51 rrcurveto
            -41 -16 -99 -47 -23 vvcurveto
            -29 70 -138 22 -33 vhcurveto
            24 -44 119 -206 25 -45 32 -32 87 -141 35 -64 -14 -33 rcurveline
            -8 -19 -10 -21 -9 -11 -48 -64 -23 -53 -43 -70 rrcurveto
            -4 -5 -2 -8 -11 vvcurveto
            -9 3 -9 9 -3 vhcurveto
            87 -35 92 -45 87 -24 3 -3 42 -3 5 -2 20 -4 14 -14 21 -3 15 -3 23 -10 13 -4 rrcurveto
            -11 29 18 -6 15 hhcurveto
            21 12 13 32 17 hvcurveto
            return
          </CharString>
          <CharString index="15">
            8 141 149 24 136 hhcurveto
            35 15 -12 68 -3 hvcurveto
            96 -27 0 131 -51 hhcurveto
            27 -369 -246 -25 -342 hhcurveto
            -68 -83 -4 -37 hvcurveto
            -17 -185 0 -168 -173 vvcurveto
            return
          </CharString>
          <CharString index="16">
            5 -3 -4 3 -3 hhcurveto
            -100 -110 0 -23 -103 hvcurveto
            -12 9 rlineto
            -21 -18 -2 -21 -117 -114 10 -117 hhcurveto
            -57 -125 4 -41 hvcurveto
            -15 -157 0 -143 -149 vvcurveto
            return
          </CharString>
          <CharString index="17">
            59 4 559 53 15 -7 13 11 21 9 74 16 vvcurveto
            75 -31 11 -64 vhcurveto
            -8 -286 6 -11 hhcurveto
            -116 hlineto
            -45 3 -39 -39 -11 -11 -8 -8 -2 -290 -4 -146 -121 182 -190 282 -23 31 rrcurveto
            39 -29 -167 -37 -284 hhcurveto
            -50 -63 -10 -70 14 hvcurveto
            8 -285 -30 -281 32 -281 rrcurveto
            -120 9 -294 3 vhcurveto
            6 -17 92 -22 rlineto
            return
          </CharString>
          <CharString index="18">
            rmoveto
            -107 callgsubr
            return
          </CharString>
          <CharString index="19">
            1029 72 -102 callsubr
            return
          </CharString>
          <CharString index="20">
            -20 hstem
            1255 10 rmoveto
            75 -1 -10 100 hhcurveto
            44 49 2 8 8 hvcurveto
            32 29 -8 33 15 11 10 15 hhcurveto
            14 -2 rlineto
            3 0 11 19 7 vhcurveto
            120 491 41 153 43 172 33 152 rlinecurve
            19 1 49 16 39 vhcurveto
            29 -9 24 -20 vhcurveto
            -27 1 -172 -4 -1 vvcurveto
            -92 hlineto
            -3 1 -5 -19 vhcurveto
            -3 1 8 -3 hhcurveto
            -6 hlineto
            -29 -4 rlineto
            -3 -16 -19 -1 -13 hhcurveto
            -24 -41 -22 -139 -32 -154 rrcurveto
            -6 -33 -225 -2 vvcurveto
            -2 -8 -1 -5 0 -7 -3 -7 rlinecurve
            -3 7 -1 7 5 vvcurveto
            -1 3 0 2 1 3 rrcurveto
            2 -33 225 6 vvcurveto
            -32 154 -22 140 -24 40 rrcurveto
            -12 -27 8 -4 hhcurveto
            -6 hlineto
            -11 -7 -8 -5 hhcurveto
            1 -1 1 -1 1 vhcurveto
            -3 3 -5 1 -8 1 rrcurveto
            -107 hlineto
            3 -7 1 -7 vhcurveto
            -3 -2 -2 -3 hhcurveto
            3 -44 -112 -1 -20 hhcurveto
            -11 -10 -3 -7 hvcurveto
            -3 -27 -22 1 -20 hhcurveto
            -25 -46 -20 -152 -35 -169 rrcurveto
            -7 -31 -174 -3 vvcurveto
            -2 -7 -1 -5 0 -7 -3 -8 rlinecurve
            -3 8 -1 7 -1 5 rrcurveto
            -1 3 0 2 2 3 -31 174 7 vvcurveto
            -32 169 -22 152 -24 46 rrcurveto
            -46 -80 8 -3 hhcurveto
            -6 hlineto
            -12 -5 -8 -7 hhcurveto
            1 -1 1 -1 1 vhcurveto
            -3 3 -5 1 -7 1 rrcurveto
            -74 hlineto
            -6 -167 4 -25 hhcurveto
            -23 -8 -22 -31 -37 -1 -51 17 -19 hvcurveto
            25 -137 31 -150 28 -139 119 -542 rcurveline
            -7 0 -11 19 -3 vhcurveto
            16 2 rlineto
            19 19 -10 19 33 29 8 31 68 9 -10 99 hhcurveto
            23 21 2 8 3 hvcurveto
            43 28 -8 41 9 6 10 8 hhcurveto
            16 -2 rlineto
            3 0 11 17 7 vhcurveto
            114 567 115 -567 rlineto
            -7 0 -11 16 -3 vhcurveto
            17 2 rlineto
            16 8 -10 19 19 19 8 19 hhcurveto
            return
          </CharString>
          <CharString index="21">
            -91 callgsubr
            -79 callgsubr
            return
          </CharString>
          <CharString index="22">
            683 573 rmoveto
            267 90 63 111 69 76 -22 -17 68 vhcurveto
            28 232 rlineto
            88 -152 -153 45 -141 hhcurveto
            -333 -261 -245 -435 -551 340 -47 297 119 160 57 90 93 hvcurveto
            -20 291 rlineto
            -55 -82 -88 -49 -70 hhcurveto
            -88 -63 73 215 hvcurveto
            return
          </CharString>
          <CharString index="23">
            123 112 -4 8 121 hvcurveto
            2 31 -3 3 hvcurveto
            12 3 -9 46 5 12 rrcurveto
            32 6 151 35 vvcurveto
            7 3 7 11 13 58 -68 -16 11 vhcurveto
            162 -182 11 -14 2 6 8 -13 rlinecurve
            41 -41 10 -10 18 1 27 13 rlinecurve
            8 3 85 41 13 5 37 19 45 37 31 24 39 33 41 22 39 35 rrcurveto
            15 13 -1 8 12 vvcurveto
            56 -244 200 -51 51 vhcurveto
            -29 26 -47 27 42 vvcurveto
            28 17 -8 22 19 vhcurveto
            12 8 143 126 13 7 rrcurveto
            26 32 91 67 46 vvcurveto
            4 vlineto
            -40 96 -90 48 -48 82 rrcurveto
            6 -8 -29 41 -10 hhcurveto
            -46 -8 -305 -300 -22 -18 rrcurveto
            -24 -29 2 -13 -41 hhcurveto
            64 12 87 -3 91 vhcurveto
            32 -5 48 -12 vhcurveto
            return
          </CharString>
          <CharString index="24">
            58 -42 -136 61 -54 hhcurveto
            -376 -6 -277 -149 hvcurveto
            32 -108 -49 2 285 -12 rrcurveto
            -24 36 -31 197 73 hhcurveto
            return
          </CharString>
          <CharString index="25">
            1474 10 rmoveto
            115 203 -1 121 19 11 3 19 hhcurveto
            18 -2 rlineto
            4 0 12 21 7 vhcurveto
            143 585 51 184 49 203 39 183 rlinecurve
            20 0 60 21 47 vhcurveto
            33 -10 28 -27 -31 -205 -2 -2 vhcurveto
            -108 hlineto
            -3 0 -5 -21 vhcurveto
            -3 -1 8 -4 hhcurveto
            -6 hlineto
            -34 -4 rlineto
            -3 -19 -23 -1 -16 hhcurveto
            -29 -48 -23 -169 -40 -180 rrcurveto
            -9 -39 -268 -4 vvcurveto
            -2 -8 -1 -5 0 -9 -3 -9 rlinecurve
            -3 9 -1 9 -1 5 -2 8 rcurveline
            4 -38 268 9 vvcurveto
            -40 180 -9 154 -19 62 rrcurveto
            15 -5 -68 -6 -3 -20 -8 -8 -7 hhcurveto
            -1 1 -7 1 -11 1 -19 3 -36 1 -75 1 rrcurveto
            3 -8 1 -8 vhcurveto
            -3 -5 -2 -3 hhcurveto
            3 -53 -132 -1 -24 hhcurveto
            -103 -6 -23 -33 -8 hvcurveto
            -20 -72 -24 -121 -39 -201 rrcurveto
            -7 -39 -209 -3 vvcurveto
            -2 -9 -1 -7 0 -6 -3 -9 rlinecurve
            -3 9 -1 6 -1 7 -2 9 rcurveline
            3 -38 209 7 vvcurveto
            -40 201 -24 184 -29 53 rrcurveto
            -53 -97 8 -3 hhcurveto
            -6 hlineto
            -15 -7 -8 -7 hhcurveto
            -3 3 -3 3 -3 1 -11 1 rlinecurve
            -89 hlineto
            -6 -197 4 -32 hhcurveto
            -29 -8 -26 -35 -44 0 -65 21 -18 hvcurveto
            28 -165 37 -178 33 -165 143 -647 rcurveline
            -7 0 -12 21 -4 vhcurveto
            18 2 rlineto
            23 24 -12 23 hhcurveto
            return
          </CharString>
          <CharString index="26">
            -56 -36 7 -59 hhcurveto
            -28 -26 -6 -25 -3 hvcurveto
            -3 -62 -12 -144 -104 vvcurveto
            -43 1 -35 3 -19 vhcurveto
            13 -14 176 -15 rlineto
            return
          </CharString>
          <CharString index="27">
            15 -22 19 -23 vhcurveto
            -322 hlineto
            331 339 44 118 53 vvcurveto
            285 vlineto
            19 -29 20 -160 vhcurveto
            -175 -161 -6 -171 -87 -84 -10 -87 -13 -15 4 -15 hhcurveto
            -15 -12 -4 -9 -8 hvcurveto
            -9 -10 rlineto
            -3 -6 -103 -19 vvcurveto
            -63 0 -154 68 vhcurveto
            336 -4 rlineto
            5 3 -3 -5 -27 -96 -108 -95 -100 hvcurveto
            -56 -59 -63 -65 -71 -71 rrcurveto
            return
          </CharString>
          <CharString index="28">
            -8 7 2 -2 3 hhcurveto
            3 4 0 -15 4 hvcurveto
            -319 686 rmoveto
            1 97 2 87 3 77 rrcurveto
            131 5 14 131 26 hhcurveto
            145 0 -219 -13 -59 0 -238 -145 -27 -11 0 3 -7 hvcurveto
            return
          </CharString>
          <CharString index="29">
            3 77 -2 29 hhcurveto
            95 81 7 7 92 hvcurveto
            3 20 -3 3 3 hvcurveto
            10 5 0 40 5 10 rrcurveto
            39 4 201 47 vvcurveto
            7 6 8 8 12 62 -68 -16 8 vhcurveto
            return
          </CharString>
          <CharString index="30">
            -20 hstem
            823 1376 rmoveto
            -56 -164 2 -347 hhcurveto
            -52 -98 8 -71 8 hvcurveto
            -17 7 -180 -39 -13 -7 -98 -14 -8 7 -61 -11 -13 -7 -92 -11 vvcurveto
            -101 10 -106 7 -100 vhcurveto
            -120 11 -294 1 vhcurveto
            6 -17 92 -8 rlineto
            2 91 -2 34 hhcurveto
            143 130 -6 8 141 hvcurveto
            59 -5 -12 25 44 37 6 176 39 vvcurveto
            8 6 8 11 14 70 -78 -18 10 vhcurveto
            216 -248 5 -8 51 -69 87 53 rlinecurve
            49 30 -5 -1 43 22 43 23 41 42 35 29 45 39 60 24 45 39 rrcurveto
            16 15 0 9 15 vvcurveto
            65 -283 230 -59 59 vhcurveto
            -33 33 -55 28 50 vvcurveto
            32 20 -9 25 22 vhcurveto
            16 8 163 146 16 8 rrcurveto
            30 38 105 78 54 vvcurveto
            4 vlineto
            -29 63 -61 61 -35 56 -10 15 -65 55 -5 10 rrcurveto
            8 -11 -32 47 -12 hhcurveto
            -54 -6 -352 -352 -26 -18 rrcurveto
            -30 -32 0 -13 -46 hhcurveto
            73 11 103 -1 104 vhcurveto
            37 9 55 -48 vhcurveto
            return
          </CharString>
          <CharString index="31">
            -74 -12 -512 -86 -11 -15 4 11 -3 vhcurveto
            -23 78 rlineto
            -8 28 -12 233 19 vvcurveto
            return
          </CharString>
          <CharString index="32">
            292 116 -64 354 24 116 rrcurveto
            -21 40 0 153 20 vvcurveto
            39 -8 4 -51 16 vhcurveto
            -7 0 -2 -7 hhcurveto
            -15 4 -90 -4 callsubr
            -11 -3 -19 3 -11 -4 -15 6 rcurveline
            -10 hlineto
            -39 hlineto
            -23 -22 -6 -27 hhcurveto
            -88 hlineto
            -32 hlineto
            -107 -14 -12 -14 12 -89 0 -233 8 -86 rlinecurve
            4 -42 205 9 47 -8 19 -5 -67 -164 -163 -32 7 -7 12 -36 6 -6 return
          </CharString>
          <CharString index="33">
            -448 -46 -453 110 vhcurveto
            225 84 6 164 hhcurveto
            80 8 39 -7 101 vvcurveto
            197 vlineto
            19 246 3 278 39 vvcurveto
            51 4 -2 20 vhcurveto
            77 113 -1 75 hhcurveto
            19 36 0 32 hvcurveto
            339 vlineto
            40 -1 19 -181 vhcurveto
            -737 hlineto
            return
          </CharString>
          <CharString index="34">
            3 94 -2 35 hhcurveto
            145 136 10 8 147 hvcurveto
            3 10 -2 11 45 -32 344 34 hhcurveto
            14 53 -81 -19 11 hvcurveto
            return
          </CharString>
          <CharString index="35">
            rmoveto
            21 -22 5 -31 vhcurveto
            -19 -20 -3 -19 -13 -49 2 -22 -47 -35 -5 -35 return
          </CharString>
          <CharString index="36">
            211 78 -2 147 hhcurveto
            96 8 13 -16 184 81 18 127 93 35 -2 41 41 vvcurveto
            67 -8 140 53 83 86 4 -19 83 vhcurveto
            16 4 21 23 16 vvcurveto
            351 vlineto
            12 -58 2 -61 vhcurveto
            -57 -58 -2 -20 hhcurveto
            return
          </CharString>
          <CharString index="37">
            rmoveto
            -49 7 -135 -3 -78 vhcurveto
            -3 -21 3 -137 -2 -2 9 -8 rcurveline
            3 24 25 -1 28 hhcurveto
            67 60 9 -3 64 hvcurveto
            return
          </CharString>
          <CharString index="38">
            rmoveto
            16 -20 19 -17 vhcurveto
            -152 -102 3 -154 hhcurveto
            -15 -23 -5 -33 -51 hvcurveto
            -47 -31 -23 -7 -9 vvcurveto
            -265 vlineto
            -12 15 -15 19 vhcurveto
            46 37 74 18 hhcurveto
            7 -5 -207 -84 4 hvcurveto
            -2 7 -55 -11 -8 -7 -50 -5 vvcurveto
            -68 27 -3 49 vhcurveto
            127 47 -4 168 hhcurveto
            35 2 48 36 hvcurveto
            return
          </CharString>
          <CharString index="39">
            3 2 -4 3 hhcurveto
            70 -24 83 124 11 hvcurveto
            return
          </CharString>
          <CharString index="40">
            -5 77 19 -41 -16 117 rrcurveto
            47 -1 144 -19 22 vhcurveto
            38 -10 6 -50 30 callsubr
            -4 27 callsubr
            -9 -39 callgsubr
            -8 4 rlinecurve
            -12 -3 -21 3 -8 -4 return
          </CharString>
          <CharString index="41">
            -7 -2 29 callgsubr
            -8 -13 -4 vvcurveto
            758 -797 rmoveto
            1 1 -1 -3 hvcurveto
            -1 vlineto
            -1 -1 0 -1 -1 -1 0 1 -1 vhcurveto
            -1 0 0 -10 callsubr
            1 3 hvcurveto
            return
          </CharString>
          <CharString index="42">
            -100 -108 4 -100 hhcurveto
            -32 -71 -5 -39 hvcurveto
            -3 -3 -84 -21 vvcurveto
            -84 0 -207 77 vhcurveto
            226 hlineto
            5 -3 3 -2 -1 vvcurveto
            return
          </CharString>
          <CharString index="43">
            -71 -58 8 -64 hhcurveto
            -27 -67 0 -29 hvcurveto
            -497 vlineto
            -175 21 -185 8 -173 vhcurveto
            -32 3 -7 -138 59 24 144 23 8 hhcurveto
            154 hlineto
            3 3 8 3 3 hhcurveto
            23 6 -9 3 47 hvcurveto
            11 3 rlineto
            1 7 7 2 4 hhcurveto
            return
          </CharString>
          <CharString index="44">
            -7 -390 6 -10 hhcurveto
            -117 hlineto
            -46 3 -38 -40 -10 -10 rrcurveto
            -6 -6 -11 -397 -68 vvcurveto
            -20 vlineto
            -19 vlineto
            39 -745 rlineto
            -7 9 -46 14 -3 vhcurveto
            96 -24 144 -5 124 3 72 1 74 4 76 5 rrcurveto
            74 1 return
          </CharString>
          <CharString index="45">
            -66 -309 2 -33 -91 -90 -2 -91 hhcurveto
            -27 -27 -17 callsubr
            -8 -8 rlineto
            -3 -6 -109 -19 vvcurveto
            -78 0 -185 69 vhcurveto
            203 hlineto
            return
          </CharString>
          <CharString index="46">
            738 1184 rmoveto
            -47 -162 2 -299 hhcurveto
            -44 -51 21 -48 -19 hvcurveto
            -3 -3 1 -37 -3 -14 4 -66 -14 vvcurveto
            -219 3 -211 3 -207 vhcurveto
            -102 9 -256 1 vhcurveto
            6 -15 78 -18 rlineto
            return
          </CharString>
          <CharString index="47">
            227 151 -4 230 hhcurveto
            299 hlineto
            144 -1 31 14 hvcurveto
            393 vlineto
            return
          </CharString>
          <CharString index="48">
            -54 callsubr
            14 8 8 -6 rlineto
            return
          </CharString>
          <CharString index="49">
            rmoveto
            108 100 6 168 136 8 7 170 2 vvcurveto
            315 vlineto
            123 -19 121 -63 vhcurveto
            -15 -4 rlineto
            -3 -2 0 1 -2 hvcurveto
            -5 1 -2 1 1 vvcurveto
            -86 hlineto
            return
          </CharString>
          <CharString index="50">
            408 rmoveto
            4 8 163 392 3 vvcurveto
            2 30 74 32 71 vhcurveto
            62 144 rlineto
            243 93 -37 39 -48 hhcurveto
            -19 -6 -9 2 -4 1 -4 2 3 1 rlinecurve
            13 -74 -79 -2 -51 -32 -32 -13 -29 -8 1 2 -9 hhcurveto
            -4 -24 -11 -7 vvcurveto
            -260 -668 -73 -171 -78 -186 -69 -171 rlinecurve
            -33 -12 -54 -149 66 hhcurveto
            return
          </CharString>
          <CharString index="51">
            -56 3 10 -53 20 hhcurveto
            563 hlineto
            21 26 31 16 hvcurveto
            48 776 rlineto
            13 -5 13 15 163 13 100 166 vvcurveto
            72 -27 7 -62 vhcurveto
            -49 -441 -10 -51 hhcurveto
            return
          </CharString>
          <CharString index="52">
            -23 -22 -6 -27 hhcurveto
            -121 hlineto
            -65 -15 return
          </CharString>
          <CharString index="53">
            1 -3 21 hvcurveto
            return
          </CharString>
          <CharString index="54">
            hhcurveto
            6 hlineto
            return
          </CharString>
          <CharString index="55">
            -98 callgsubr
            endchar
          </CharString>
          <CharString index="56">
            rmoveto
            -87 callgsubr
            return
          </CharString>
          <CharString index="57">
            -42 5 -7 3 -8 -1 -8 3 rlinecurve
            -11 -1 -16 1 -8 -3 -12 5 rcurveline
            -41 hlineto
            -20 -19 -5 -23 hhcurveto
            -103 hlineto
            -56 -13 -10 -12 11 -75 -2 -199 8 -73 rlinecurve
            3 -36 64 10 31 3 47 1 50 0 76 -3 rrcurveto
            -3 10 56 5 13 hhcurveto
            51 69 -14 37 -8 hvcurveto
            return
          </CharString>
          <CharString index="58">
            36 -52 4 -38 vhcurveto
            -44 -36 -2 -44 hhcurveto
            147 108 66 95 104 vvcurveto
            209 -189 73 -184 -106 -128 -16 -37 -101 vhcurveto
            -65 -30 rlineto
            -1 -1 0 -3 -5 vvcurveto
            -26 15 -222 5 vhcurveto
            32 69 37 12 61 hhcurveto
            83 24 -24 -53 -50 -38 -70 -21 -31 hvcurveto
            return
          </CharString>
          <CharString index="59">
            vlineto
            11 -1 19 15 vhcurveto
            84 hlineto
            13 -5 88 -3 12 2 21 -338 rcurveline
            -68 3 3 -22 43 hhcurveto
            34 hlineto
            3 105 100 -11 105 hhcurveto
            return
          </CharString>
          <CharString index="60">
            rmoveto
            -3 -12 -9 1 -8 hhcurveto
            return
          </CharString>
          <CharString index="61">
            15 callgsubr
            -19 119 vvcurveto
            47 -65 4 -47 vhcurveto
            -51 -427 9 -51 hhcurveto
            -227 hlineto
            -20 -28 -27 -21 hvcurveto
            -109 2 -59 5 callsubr
            205 hlineto
            12 263 -4 13 hhcurveto
            endchar
          </CharString>
          <CharString index="62">
            227 153 -4 229 hhcurveto
            360 hlineto
            144 -1 31 14 hvcurveto
            332 vlineto
            return
          </CharString>
          <CharString index="63">
            hhcurveto
            29 12 19 24 37 return
          </CharString>
          <CharString index="64">
            11 -2 rcurveline
            -1 7 6 0 7 hhcurveto
            21 20 9 24 hvcurveto
            -1 37 1 47 33 vvcurveto
            -2 129 -4 12 8 8 rlineto
            -3 27 1 33 27 vvcurveto
            24 -92 53 -92 46 vhcurveto
            -54 27 -61 29 -69 31 61 23 68 26 63 31 rrcurveto
            return
          </CharString>
          <CharString index="65">
            51 32 125 53 20 vvcurveto
            43 -1 57 3 111 vhcurveto
            45 vlineto
            -3 4 4 7 -3 7 rrcurveto
            28 2 27 27 vvcurveto
            36 -6 13 -29 vhcurveto
            -6 hlineto
            hintmask 10100000
            1 -2 -3 0 -5 hhcurveto
            hintmask 11000000
            -7 -6 -1 -5 hhcurveto
            -181 return
          </CharString>
          <CharString index="66">
            -1 37 36 0 37 hhcurveto
            62 1 2 395 hvcurveto
            return
          </CharString>
          <CharString index="67">
            -9 6 callsubr
            -28 11 -45 3 -27 rrcurveto
            -3 12 12 1 15 hhcurveto
            79 70 24 31 64 hvcurveto
            endchar
          </CharString>
          <CharString index="68">
            hintmask 10100000
            -5 -6 1 -7 hhcurveto
            hintmask 11000000
            -5 -3 0 -1 -2 hvcurveto
            -6 hlineto
            -29 -6 -13 -36 hvcurveto
            -27 2 -27 -28 vvcurveto
            -3 -7 4 -7 -3 -4 rrcurveto
            -45 vlineto
            1 -111 1 -57 -43 vvcurveto
            -20 125 -53 51 -32 vhcurveto
            return
          </CharString>
          <CharString index="69">
            10 49 2 2 hhcurveto
            177 hlineto
            1 2 -10 callsubr
            vhcurveto
            return
          </CharString>
          <CharString index="70">
            -3 -11 3 rlinecurve
            -7 -4 return
          </CharString>
          <CharString index="71">
            -62 82 9 76 vhcurveto
            return
          </CharString>
          <CharString index="72">
            1 23 26 1 20 hhcurveto
            15 31 1 104 111 vvcurveto
            return
          </CharString>
          <CharString index="73">
            1 1 2 0 2 hhcurveto
            -1 -1 1 0 2 -1 rrcurveto
            return
          </CharString>
          <CharString index="74">
            157 219 -2 -3 hhcurveto
            76 0 2 459 hvcurveto
            return
          </CharString>
          <CharString index="75">
            -47 317 -259 -21 return
          </CharString>
          <CharString index="76">
            17 callgsubr
            -87 -6 -234 11 -86 rlinecurve
            3 -43 76 13 35 3 56 3 59 -2 88 -3 rrcurveto
            -3 10 69 5 13 hhcurveto
            61 78 -17 44 -8 hvcurveto
            return
          </CharString>
          <CharString index="77">
            -41 68 66 -16 73 hhcurveto
            36 378 rmoveto
            9 114 rlineto
            84 12 29 31 25 hhcurveto
            42 -2 -118 6 -37 -9 -220 -58 -7 -11 -1 11 -1 hvcurveto
            -21 46 -8 52 4 vvcurveto
            return
          </CharString>
          <CharString index="78">
            -8 15 -53 callsubr
            return
          </CharString>
          <CharString index="79">
            hhcurveto
            12 hlineto
            19 43 -7 32 104 -3 102 -3 hvcurveto
            -31 50 15 -3 -63 3 -132 3 -113 -2 -147 5 rrcurveto
            -332 11 -108 -185 -244 vvcurveto
            return
          </CharString>
          <CharString index="80">
            -41 -41 6 -37 hhcurveto
            -8 -39 -3 -3 -8 hvcurveto
            return
          </CharString>
          <CharString index="81">
            403 -337 -43 callgsubr
            1008 415 return
          </CharString>
          <CharString index="82">
            293 282 -20 return
          </CharString>
          <CharString index="83">
            -4 -10 1 -8 -3 return
          </CharString>
          <CharString index="84">
            2 37 hhcurveto
            return
          </CharString>
          <CharString index="85">
            57 -25 callgsubr
            return
          </CharString>
          <CharString index="86">
            -62 callsubr
            endchar
          </CharString>
          <CharString index="87">
            hlineto
            8 6 return
          </CharString>
          <CharString index="88">
            rmoveto
            -181 -4 -167 -137 vvcurveto
            -157 7 -110 24 -32 vhcurveto
            return
          </CharString>
          <CharString index="89">
            -49 hlineto
            -55 callsubr
            return
          </CharString>
          <CharString index="90">
            -1 3 -24 hvcurveto
            return
          </CharString>
          <CharString index="91">
            vhcurveto
            69 vlineto
            -4 8 rlineto
            9 4 3 11 vvcurveto
            4 vlineto
            -2 26 rlineto
            -1 15 -1 16 13 vvcurveto
            -36 11 -104 -2 -120 3 rrcurveto
            return
          </CharString>
          <CharString index="92">
            -366 -49 334 618 326 return
          </CharString>
          <CharString index="93">
            hvcurveto
            -80 3 -36 -82 vvcurveto
            -62 27 9 23 vhcurveto
            return
          </CharString>
          <CharString index="94">
            56 -33 27 -16 30 -3 31 -11 rlinecurve
            -21 8 208 -27 28 hhcurveto
            164 173 -2 75 147 hvcurveto
            45 19 92 return
          </CharString>
          <CharString index="95">
            16 91 2 3 5 hvcurveto
            202 hlineto
            -10 callsubr
            6 3 vhcurveto
            return
          </CharString>
          <CharString index="96">
            3 rlineto
            7 return
          </CharString>
          <CharString index="97">
            1 3 1 return
          </CharString>
          <CharString index="98">
            3 1 -3 1 hhcurveto
            42 -13 50 73 5 hvcurveto
            3 23 rlineto
            return
          </CharString>
          <CharString index="99">
            -53 callsubr
            4 return
          </CharString>
          <CharString index="100">
            rlinecurve
            -15 8 151 -20 20 hhcurveto
            121 127 0 53 109 hvcurveto
            33 14 67 82 176 vvcurveto
            return
          </CharString>
          <CharString index="101">
            4 356 -339 -21 815 379 return
          </CharString>
          <CharString index="102">
            -3 -12 -9 1 -8 hhcurveto
            hintmask 10110000
            return
          </CharString>
          <CharString index="103">
            8 callsubr
            -8 4 rlinecurve
            return
          </CharString>
          <CharString index="104">
            -57 -51 8 -52 -35 -28 -10 -33 return
          </CharString>
          <CharString index="105">
            hhcurveto
            3 -5 39 7 vvcurveto
            -24 92 rlineto
            2 vlineto
            28 -23 45 27 vvcurveto
            3 -12 -14 -1 -13 hhcurveto
            return
          </CharString>
          <CharString index="106">
            25 145 2 7 hhcurveto
            153 hlineto
            return
          </CharString>
          <CharString index="107">
            159 -40 callgsubr
            return
          </CharString>
          <CharString index="108">
            -101 -98 -14 -47 hvcurveto
            4 -9 rlineto
            -2 25 callsubr
            return
          </CharString>
          <CharString index="109">
            37 37 -23 callsubr
            59 hlineto
            return
          </CharString>
          <CharString index="110">
            19 -21 1489 16 callsubr
            return
          </CharString>
          <CharString index="111">
            -6 64 vhcurveto
            78 34 -5 107 hhcurveto
            46 3 65 47 55 2 50 3 56 hvcurveto
            return
          </CharString>
          <CharString index="112">
            -110 vvcurveto
            -36 callsubr
            return
          </CharString>
          <CharString index="113">
            -6 -14 rlineto
            -2 vlineto
            8 return
          </CharString>
          <CharString index="114">
            hhcurveto
            47 hlineto
            33 hlineto
            106 14 13 14 rlineto
            88 -1 235 -20 85 vhcurveto
            return
          </CharString>
          <CharString index="115">
            6 -8 -39 callgsubr
            return
          </CharString>
          <CharString index="116">
            hlineto
            300 200 133 373 340 -297 70 -195 return
          </CharString>
          <CharString index="117">
            rmoveto
            -5 65 14 -35 -11 100 rrcurveto
            38 0 128 -18 16 vhcurveto
            return
          </CharString>
          <CharString index="118">
            hlineto
            16 42 0 3 37 hvcurveto
            70 3 rlineto
            36 1 35 64 hvcurveto
            return
          </CharString>
          <CharString index="119">
            176 -40 callgsubr
            return
          </CharString>
          <CharString index="120">
            -88 4 10 -59 19 hhcurveto
            return
          </CharString>
          <CharString index="121">
            -187 39 hhcurveto
            return
          </CharString>
          <CharString index="122">
            4 51 hvcurveto
            120 -6 34 86 vvcurveto
            72 -5 40 -100 vhcurveto
            return
          </CharString>
          <CharString index="123">
            -50 callgsubr
            hintmask 10100000
            return
          </CharString>
          <CharString index="124">
            rrcurveto
            -24 -5 -30 -39 -23 -121 3 -57 -122 vvcurveto
            return
          </CharString>
          <CharString index="125">
            2 3 callgsubr
            return
          </CharString>
          <CharString index="126">
            204 17 -21 23 -43 callgsubr
            return
          </CharString>
          <CharString index="127">
            -21 953 225 return
          </CharString>
          <CharString index="128" raw="1">
            1b13e87c 77898768 1ffb6906 0b
          </CharString>
          <CharString index="129">
            -40 109 -5 132 vhcurveto
            41 42 1 43 hhcurveto
            return
          </CharString>
          <CharString index="130">
            21 20 callsubr
            return
          </CharString>
          <CharString index="131">
            -20 hstemhm
            hintmask 01100000
            return
          </CharString>
          <CharString index="132">
            0 -2 -1 -2 vhcurveto
            -4 -1 -1 -2 -1 hhcurveto
            return
          </CharString>
          <CharString index="133">
            163 0 476 hintmask 11010000
            return
          </CharString>
          <CharString index="134">
            hhcurveto
            -14 5 -49 6 return
          </CharString>
          <CharString index="135">
            hhcurveto
            -3 -3 0 -1 return
          </CharString>
          <CharString index="136">
            385 1087 -20 return
          </CharString>
          <CharString index="137">
            16 vhcurveto
            -4 -6 -3 return
          </CharString>
          <CharString index="138">
            15 -43 callgsubr
            return
          </CharString>
          <CharString index="139">
            -36 -35 3 -32 -28 vvcurveto
            -15 vlineto
            -2 -80 return
          </CharString>
          <CharString index="140">
            1 vvcurveto
            8 vlineto
            15 -3 32 -28 28 vhcurveto
            return
          </CharString>
        <CharString name=".notdef">
          -1057 endchar
        </CharString>
        <CharString name="A">
          297 19 -21 hstem
          -107 callsubr
          endchar
        </CharString>
        <CharString name="AE">
          895 -2 295 -272 -21 518 295 244 317 hstemhm
          hintmask 10110000
          1025 1364 rmoveto
          -64 -49 10 -57 -39 -40 -12 -35 -8 -2 2 -7 hhcurveto
          -11 -4 -14 -12 -1 -7 -309 -647 rcurveline
          -80 -165 -82 -178 -72 -165 rrcurveto
          -36 -12 -79 -152 66 30 199 4 7 hhcurveto
          190 hlineto
          0 46 3 47 -32 callgsubr
          5 -29 callsubr
          1 20 8 11 hhcurveto
          27 33 38 89 47 112 rrcurveto
          71 86 -5 11 60 hvcurveto
          -3 -116 -2 -91 12 -33 rrcurveto
          55 95 -8 3 -53 callsubr
          2 2 2 3 2 hvcurveto
          23 -3 rlineto
          -2 16 vlineto
          hintmask 01110000
          -1 12 11 -1 5 hhcurveto
          137 hlineto
          hintmask 10110000
          63 98 -2 21 hhcurveto
          5 5 1 2 4 hvcurveto
          107 104 1 104 88 75 8 87 -44 callsubr
          -25 203 -12 hvcurveto
          -129 -133 -2 -132 hhcurveto
          -3 51 9 46 48 vvcurveto
          105 7 -23 235 121 117 4 47 vhcurveto
          6 vlineto
          -8 183 -13 48 -14 -6 -43 5 rlinecurve
          12 -120 -119 -4 -124 hhcurveto
          -23 -9 6 37 43 14 156 25 hvcurveto
          133 135 2 128 hhcurveto
          21 6 -12 68 hvcurveto
          108 -22 2 149 -38 hhcurveto
          -314 24 -224 -18 -273 -3 rrcurveto
          3 -104 -179 -2 -19 hhcurveto
          -3 3 -160 -7 -5 hhcurveto
          164 -340 rmoveto
          3 5 3 7 4 11 rrcurveto
          -11 -1 -7 -5 vvcurveto
          -8 vlineto
          -4 -20 -343 -8 -169 vhcurveto
          7 -21 -36 -1 -25 hhcurveto
          -85 hlineto
          61 171 122 334 5 vvcurveto
          endchar
        </CharString>
        <CharString name="Aacute">
          283 19 -21 2373 -20 hstem
          -107 callsubr
          51 784 -89 callsubr
          endchar
        </CharString>
        <CharString name="Abreve">
          297 19 -21 1517 -25 callsubr
          hstem
          433 -10 callgsubr
          -107 callsubr
          101 1074 -96 callgsubr
        </CharString>
        <CharString name="Acircumflex">
          283 19 -21 2271 -20 hstem
          -107 callsubr
          79 700 rmoveto
          -53 43 69 -133 29 hhcurveto
          23 32 1 -3 64 hvcurveto
          41 2 rlineto
          20 hlineto
          31 35 -2 28 hhcurveto
          23 8 20 21 hvcurveto
          11 -2 7 8 vvcurveto
          -56 224 -132 214 -109 197 -47 27 rcurveline
          -61 6 rlineto
          -69 2 -1 5 -54 hvcurveto
          -76 2 rlineto
          -121 hlineto
          -94 -23 -14 -16 -52 -83 -34 -72 -41 -80 rlinecurve
          -51 -133 -92 -134 -27 -133 rrcurveto
          -3 -8 1 -7 -11 vvcurveto
          -21 7 -20 23 vhcurveto
          37 43 2 35 hhcurveto
          61 hlineto
          9 6 10 -8 rlineto
          3 24 33 -1 23 hhcurveto
          29 65 88 88 59 hvcurveto
          34 51 36 59 39 66 35 -53 37 -60 47 -53 rrcurveto
          endchar
        </CharString>
        <CharString name="Adieresis">
          283 19 -21 1623 -23 callgsubr
          861 26 callsubr
          -107 callsubr
          -165 962 rmoveto
          -5 callsubr
          21 callgsubr
          hintmask 11010000
          -100 callsubr
          hintmask 10110000
          -24 callgsubr
          hintmask 11001000
          -99 callgsubr
          endchar
        </CharString>
        <CharString name="Agrave">
          283 19 -21 2373 -20 hstem
          -107 callsubr
          -141 763 rmoveto
          -102 callgsubr
        </CharString>
        <CharString name="Amacron">
          297 19 -21 1675 376 hstem
          -107 callsubr
          107 662 -94 callsubr
        </CharString>
        <CharString name="Aogonek">
          297 32 callgsubr
          347 -21 hstem
          1057 420 vstem
          -107 callsubr
          689 -995 -95 callsubr
          rrcurveto
          endchar
        </CharString>
        <CharString name="Aring">
          283 19 -21 1537 -22 callgsubr
          484 295 hintmask 11011000
          -107 callsubr
          -89 519 -76 callgsubr
          hintmask 11101000
          -84 callgsubr
        </CharString>
        <CharString name="Atilde">
          283 3 callsubr
          -107 callsubr
          156 1043 -75 callgsubr
          hintmask 10010000
          -83 callsubr
          hintmask 11000000
          -85 callgsubr
        </CharString>
        <CharString name="B">
          97 -28 -21 1130 342 hstem
          1106 450 vstem
          118 1075 rmoveto
          -236 17 -237 -235 -41 -6 -126 -53 vvcurveto
          -171 112 -25 361 127 194 10 59 203 vhcurveto
          263 74 208 156 160 vvcurveto
          101 -84 106 -211 88 vhcurveto
          -3 3 0 2 -3 3 19 27 55 12 45 24 rrcurveto
          96 60 45 83 117 vvcurveto
          295 -356 32 -217 28 vhcurveto
          16 -128 -138 16 -128 -108 -176 -18 -99 hhcurveto
          -77 4 -54 -38 -8 hvcurveto
          -7 -32 -2 -34 -39 -41 2 -45 -47 vvcurveto
          699 -553 rmoveto
          135 86 -2 -37 123 hvcurveto
          -4 -4 -10 -3 -5 -7 -107 -49 -109 -50 -109 -53 rrcurveto
          -3 -3 1 -3 -7 -10 0 15 vhcurveto
          164 vlineto
          15 6 13 17 vhcurveto
          12 406 rmoveto
          80 -3 73 91 43 146 -5 -51 -13 -16 -1 -9 -3 vhcurveto
          -7 -208 -103 -21 hhcurveto
          -19 3 8 15 hvcurveto
          endchar
        </CharString>
        <CharString name="C">
          5 callgsubr
          hstem
          -97 callsubr
          endchar
        </CharString>
        <CharString name="CR">
          -1057 endchar
        </CharString>
        <CharString name="Cacute">
          5 callgsubr
          968 -20 hstem
          -97 callsubr
          1 1130 -89 callsubr
          endchar
        </CharString>
        <CharString name="Ccaron">
          5 callgsubr
          866 -20 hstem
          -97 callsubr
          34 1411 -104 callgsubr
        </CharString>
        <CharString name="Ccedilla">
          -215 -672 1 callgsubr
          -85 29 callsubr
          hstemhm
          800 358 hintmask 10111000
          -97 callsubr
          -193 -909 rmoveto
          hintmask 11011000
          -87 callgsubr
          endchar
        </CharString>
        <CharString name="Ccircumflex">
          5 callgsubr
          866 -20 hstem
          -97 callsubr
          34 1046 rmoveto
          -53 43 69 -133 29 hhcurveto
          23 32 1 -3 64 hvcurveto
          41 2 rlineto
          20 hlineto
          31 35 -2 28 hhcurveto
          23 8 20 21 hvcurveto
          11 -2 7 8 vvcurveto
          -56 224 -132 214 -109 197 -47 27 rcurveline
          -61 6 rlineto
          -69 2 -1 5 -54 hvcurveto
          -76 2 rlineto
          -121 hlineto
          -94 -23 -14 -16 -52 -83 -34 -72 -41 -80 rlinecurve
          -51 -133 -92 -134 -27 -133 rrcurveto
          -3 -8 1 -7 -11 vvcurveto
          -21 7 -20 23 vhcurveto
          37 43 2 35 hhcurveto
          61 hlineto
          9 6 10 -8 rlineto
          3 24 33 -1 23 hhcurveto
          29 65 88 88 59 hvcurveto
          34 51 36 59 39 66 35 -53 37 -60 47 -53 rrcurveto
          endchar
        </CharString>
        <CharString name="Cdotaccent">
          5 callgsubr
          127 31 callgsubr
          hintmask 11100000
          -97 callsubr
          181 1306 -72 callsubr
          hhcurveto
          hintmask 11010000
          -81 callsubr
          hintmask 11100000
          -94 callgsubr
        </CharString>
        <CharString name="D">
          173 19 -21 1184 194 -64 callgsubr
          endchar
        </CharString>
        <CharString name="Dcaron">
          173 19 -21 1184 194 893 -20 -64 callgsubr
          215 1811 -104 callgsubr
        </CharString>
        <CharString name="Dcroat">
          173 -2 272 313 285 283 225 hstem
          767 -2 rmoveto
          667 228 205 559 506 -342 108 -224 hvcurveto
          -201 -166 -6 -149 -96 -128 4 -183 hhcurveto
          -25 -29 -28 -25 hvcurveto
          -451 vlineto
          -2 -89 vlineto
          -24 -31 -20 -18 hvcurveto
          -82 2 -38 -85 vvcurveto
          -34 54 -8 61 vhcurveto
          29 hlineto
          3 -139 rlineto
          4 -136 2 -117 -64 vvcurveto
          -53 4 -72 51 vhcurveto
          234 169 -4 179 hhcurveto
          -22 581 rmoveto
          17 hlineto
          -1 37 43 -1 61 hhcurveto
          53 3 51 36 hvcurveto
          89 -6 -24 93 vvcurveto
          37 -74 2 -54 vhcurveto
          -54 hlineto
          -6 hlineto
          11 0 11 1 11 vhcurveto
          5 93 3 83 61 vvcurveto
          11 4 13 3 16 2 rrcurveto
          5 27 37 6 49 hhcurveto
          210 -1 -336 -26 -176 -93 -277 -116 -52 hvcurveto
          -23 -9 -52 -4 -45 -1 -27 -1 -28 0 -29 1 rrcurveto
          endchar
        </CharString>
        <CharString name="E">
          -36 callgsubr
          hstemhm
          hintmask 11100000
          -103 callsubr
          hintmask 11010000
          -92 callsubr
          endchar
        </CharString>
        <CharString name="Eacute">
          -47 callgsubr
          1021 -20 hstemhm
          hintmask 11101000
          -103 callsubr
          hintmask 11011000
          -92 callsubr
          678 1015 -89 callsubr
          endchar
        </CharString>
        <CharString name="Ebreve">
          -36 callgsubr
          145 -25 callsubr
          hstemhm
          203 -58 callgsubr
          hintmask 11101111
          -103 callsubr
          hintmask 11011111
          -92 callsubr
          750 1285 -96 callgsubr
        </CharString>
        <CharString name="Ecaron">
          -36 callgsubr
          899 -20 hstemhm
          hintmask 11101000
          -103 callsubr
          hintmask 11011000
          -92 callsubr
          713 1276 -104 callgsubr
        </CharString>
        <CharString name="Ecircumflex">
          -47 callgsubr
          899 -20 hstemhm
          hintmask 11101000
          -103 callsubr
          hintmask 11011000
          -92 callsubr
          723 911 rmoveto
          -53 43 69 -133 29 hhcurveto
          23 32 1 -3 64 hvcurveto
          41 2 rlineto
          20 hlineto
          31 35 -2 28 hhcurveto
          23 8 20 21 hvcurveto
          11 -2 7 8 vvcurveto
          -56 224 -132 214 -109 197 -47 27 rcurveline
          -61 6 rlineto
          -69 2 -1 5 -54 hvcurveto
          -76 2 rlineto
          -121 hlineto
          -94 -23 -14 -16 -52 -83 -34 -72 -41 -80 rlinecurve
          -51 -133 -92 -134 -27 -133 rrcurveto
          -3 -8 1 -7 -11 vvcurveto
          -21 7 -20 23 vhcurveto
          37 43 2 35 hhcurveto
          61 hlineto
          9 6 10 -8 rlineto
          3 24 33 -1 23 hhcurveto
          29 65 88 88 59 hvcurveto
          34 51 36 59 39 66 35 -53 37 -60 47 -53 rrcurveto
          endchar
        </CharString>
        <CharString name="Edieresis">
          -47 callgsubr
          231 -23 callgsubr
          812 453 hintmask 11101010
          -103 callsubr
          hintmask 11011010
          -92 callsubr
          502 1153 -47 callsubr
          hintmask 11100110
          21 callgsubr
          hintmask 11101010
          -100 callsubr
          hintmask 11100110
          -24 callgsubr
          hintmask 11101010
          -99 callgsubr
          endchar
        </CharString>
        <CharString name="Edotaccent">
          -36 callgsubr
          160 31 callgsubr
          hintmask 11101000
          -103 callsubr
          hintmask 11011000
          -92 callsubr
          861 1171 -72 callsubr
          hhcurveto
          hintmask 11100100
          -81 callsubr
          hintmask 11101000
          -94 callgsubr
        </CharString>
        <CharString name="Egrave">
          -47 callgsubr
          1001 -20 hstemhm
          hintmask 11101000
          -103 callsubr
          hintmask 11011000
          -92 callsubr
          504 974 rmoveto
          -102 callgsubr
        </CharString>
        <CharString name="Emacron">
          -36 callgsubr
          303 376 hstemhm
          hintmask 11101000
          -103 callsubr
          hintmask 11011000
          -92 callsubr
          756 873 -94 callsubr
        </CharString>
        <CharString name="Eng">
          204 17 -43 callgsubr
          hstemhm
          hintmask 01000000
          1042 67 rmoveto
          -112 -4 -69 -3 -47 vhcurveto
          -37 -11 -15 -108 -64 hhcurveto
          -128 -3 -66 16 -135 48 rrcurveto
          -5 10 -10 -92 -30 vvcurveto
          -5 -57 -12 -67 5 -18 90 -41 rcurveline
          175 -72 193 -16 187 25 41 5 42 12 41 17 71 29 84 52 61 97 rrcurveto
          93 123 -2 219 166 vvcurveto
          342 vlineto
          -90 callsubr
          hintmask 10000000
          -72 callgsubr
          endchar
        </CharString>
        <CharString name="Eogonek">
          -164 32 callgsubr
          328 -70 callgsubr
          hstemhm
          580 420 hintmask 11110100
          -103 callsubr
          hintmask 11101100
          -92 callsubr
          1091 -784 -95 callsubr
          rrcurveto
          endchar
        </CharString>
        <CharString name="Eth">
          250 19 -21 575 292 317 194 hstem
          842 -2 rmoveto
          667 228 199 545 522 -342 112 -224 hvcurveto
          -201 -166 -6 -149 -87 -109 4 -161 hhcurveto
          -25 -29 -28 -25 hvcurveto
          -451 vlineto
          -3 vlineto
          -1 -33 -32 0 -33 hhcurveto
          -25 -33 -18 -13 hvcurveto
          -93 3 -43 -96 vvcurveto
          -31 71 -4 85 vhcurveto
          3 -187 5 -171 -83 vvcurveto
          -53 4 -72 51 vhcurveto
          213 155 -4 164 hhcurveto
          16 360 rmoveto
          56 1 74 85 vvcurveto
          121 3 5 21 40 72 6 27 98 vvcurveto
          25 -68 3 -63 3 vhcurveto
          1 115 0 106 75 vvcurveto
          6 4 7 3 9 3 rrcurveto
          5 15 21 6 31 hhcurveto
          124 0 -348 -27 -354 -46 -115 -58 -53 hvcurveto
          -12 -11 -28 -3 -25 -1 -15 -1 -15 0 -17 1 rrcurveto
          endchar
        </CharString>
        <CharString name="Euro">
          -84 -49 385 135 167 89 167 529 -20 hstem
          206 471 rmoveto
          4 -20 9 -56 13 -51 17 -45 rlinecurve
          18 -39 22 -34 26 -29 31 -52 36 -42 41 -35 25 -19 26 -14 27 -12 rrcurveto
          -62 132 155 -10 149 hhcurveto
          136 185 68 104 107 hvcurveto
          -18 336 rlineto
          -69 -95 -105 -54 -81 hhcurveto
          -67 -52 35 93 -32 hvcurveto
          -2 7 rlineto
          35 -7 callgsubr
          -71 -59 1 1 -60 vhcurveto
          -6 30 hlineto
          20 0 19 1 18 vhcurveto
          57 -7 callgsubr
          vhcurveto
          -99 hlineto
          1 -23 -23 0 -23 hhcurveto
          9 27 11 24 13 19 rrcurveto
          64 43 62 20 68 hhcurveto
          80 84 -26 -19 79 hvcurveto
          37 266 -116 68 -115 44 -113 23 rlinecurve
          12 -59 -58 6 -57 hhcurveto
          -27 hlineto
          -8 -8 -1 -1 -8 hvcurveto
          -237 -16 -196 -128 -112 -228 -25 -47 -21 -52 -16 -55 rrcurveto
          -1 -47 -49 0 -50 hhcurveto
          12 callgsubr
          70 hlineto
          -2 -28 -1 -29 -29 vvcurveto
          -3 -114 vlineto
          12 callgsubr
          endchar
        </CharString>
        <CharString name="F">
          -228 -2 -21 469 351 247 320 8 -20 hstemhm
          hintmask 11100000
          116 694 rmoveto
          24 -170 -2 -187 11 -171 rrcurveto
          -36 3 -10 -153 69 hhcurveto
          26 162 19 6 6 hvcurveto
          170 hlineto
          3 3 11 5 3 hhcurveto
          12 2 -11 3 24 hvcurveto
          3 108 8 59 hhcurveto
          25 49 0 152 197 vvcurveto
          27 38 24 -15 43 5 rrcurveto
          5 42 -4 5 40 45 93 8 29 hhcurveto
          33 -3 26 159 129 -3 29 -59 hvcurveto
          -205 hlineto
          -41 hlineto
          -12 12 7 11 -1 -1 rrcurveto
          146 12 59 3 14 vhcurveto
          4 3 5 3 7 3 rrcurveto
          -3 7 22 0 20 66 0 9 59 hhcurveto
          92 hlineto
          32 71 -7 35 144 23 139 -72 hvcurveto
          -21 -24 -18 21 -38 -179 -128 6 -126 hhcurveto
          hintmask 11010000
          -6 -106 2 -8 -188 -163 -10 -96 hhcurveto
          -3 -32 8 -29 hvcurveto
          endchar
        </CharString>
        <CharString name="G">
          111 -47 -26 callsubr
          hstemhm
          hintmask 10010000
          -88 callgsubr
          hintmask 01010000
          14 callgsubr
          hintmask 00110000
          -74 callgsubr
          endchar
        </CharString>
        <CharString name="Gbreve">
          111 -47 -26 callsubr
          92 -25 callsubr
          hstemhm
          340 -58 callgsubr
          hintmask 10011111
          -88 callgsubr
          hintmask 01011111
          14 callgsubr
          hintmask 00111111
          -74 callgsubr
          -589 1799 -96 callgsubr
        </CharString>
        <CharString name="Gcircumflex">
          111 -47 -26 callsubr
          846 -20 hstemhm
          hintmask 10011000
          -88 callgsubr
          hintmask 01011000
          14 callgsubr
          hintmask 00111000
          -74 callgsubr
          -625 1425 rmoveto
          -53 43 69 -133 29 hhcurveto
          23 32 1 -3 64 hvcurveto
          41 2 rlineto
          20 hlineto
          31 35 -2 28 hhcurveto
          23 8 20 21 hvcurveto
          11 -2 7 8 vvcurveto
          -56 224 -132 214 -109 197 -47 27 rcurveline
          -61 6 rlineto
          -69 2 -1 5 -54 hvcurveto
          -76 2 rlineto
          -121 hlineto
          -94 -23 -14 -16 -52 -83 -34 -72 -41 -80 rlinecurve
          -51 -133 -92 -134 -27 -133 rrcurveto
          -3 -8 1 -7 -11 vvcurveto
          -21 7 -20 23 vhcurveto
          37 43 2 35 hhcurveto
          61 hlineto
          9 6 10 -8 rlineto
          3 24 33 -1 23 hhcurveto
          29 65 88 88 59 hvcurveto
          34 51 36 59 39 66 35 -53 37 -60 47 -53 rrcurveto
          endchar
        </CharString>
        <CharString name="Gdotaccent">
          111 -47 -26 callsubr
          107 31 callgsubr
          hintmask 10011000
          -88 callgsubr
          hintmask 01011000
          14 callgsubr
          hintmask 00111000
          -74 callgsubr
          -478 1685 -72 callsubr
          hhcurveto
          hintmask 10010100
          -81 callsubr
          hintmask 10011000
          -94 callgsubr
        </CharString>
        <CharString name="H">
          322 19 -21 23 20 callgsubr
          1060 954 rmoveto
          -66 -94 15 -62 hhcurveto
          60 4 48 53 15 -6 13 11 21 9 74 16 vvcurveto
          75 -31 11 -64 vhcurveto
          -63 callsubr
          2 459 -18 callgsubr
          -376 rlineto
          hintmask 01000000
          -56 callsubr
          -100 4 -18 -96 -8 -1 -75 -3 -71 hvcurveto
          -3 -140 rlineto
          endchar
        </CharString>
        <CharString name="Hbar">
          322 19 -43 callgsubr
          1050 191 -191 322 hstemhm
          hintmask 10100000
          35 1063 rmoveto
          21 -4 28 -3 33 -1 rrcurveto
          3 hlineto
          -2 -50 rlineto
          -1 -69 -2 -59 -23 vvcurveto
          -39 vlineto
          39 -745 rlineto
          -7 9 -46 14 -3 vhcurveto
          96 -24 144 -5 124 3 72 1 74 4 76 5 rrcurveto
          74 1 2 459 -18 callgsubr
          -376 rlineto
          hintmask 01100000
          -56 3 10 -53 20 hhcurveto
          563 hlineto
          21 26 31 16 hvcurveto
          48 776 rlineto
          13 -5 13 15 vvcurveto
          41 1 37 1 34 vhcurveto
          2 74 rlineto
          26 hlineto
          106 4 33 24 hvcurveto
          62 -11 -18 61 vvcurveto
          12 -37 6 -49 4 vhcurveto
          -31 2 rlineto
          1 18 0 19 20 vvcurveto
          hintmask 10010000
          72 -27 7 -62 vhcurveto
          -49 -441 -10 -51 hhcurveto
          -100 4 -18 -96 hvcurveto
          hintmask 10100000
          -1 0 -3 -1 -3 vhcurveto
          1 -55 -54 0 -51 hhcurveto
          -65 hlineto
          2 17 rlineto
          1 10 1 7 4 vvcurveto
          75 -31 11 -64 vhcurveto
          hintmask 10010000
          -7 -390 6 -10 hhcurveto
          -117 hlineto
          -46 3 -38 -40 -10 -10 -1 -1 -2 -11 -1 -21 -3 -49 rcurveline
          -18 hlineto
          -44 -63 -14 -10 hvcurveto
          -57 4 -25 -55 vvcurveto
          -8 10 -6 21 -5 vhcurveto
          1025 -109 rmoveto
          -66 -94 15 -62 hhcurveto
          30 1 28 1 25 vhcurveto
          2 19 vlineto
          92 hlineto
          34 37 0 -1 39 hvcurveto
          -1 -31 0 -33 -35 vvcurveto
          endchar
        </CharString>
        <CharString name="Hcircumflex">
          322 19 -43 callgsubr
          2269 -20 hstemhm
          hintmask 10100000
          1060 954 rmoveto
          -66 -94 15 -62 hhcurveto
          60 4 48 53 15 -6 13 11 21 9 74 16 vvcurveto
          75 -31 11 -64 vhcurveto
          -63 callsubr
          2 459 -18 callgsubr
          -376 rlineto
          hintmask 01100000
          -56 callsubr
          -100 4 -18 -96 -8 -1 -75 -3 -71 hvcurveto
          9 622 rmoveto
          -53 43 69 -133 29 hhcurveto
          23 32 1 -3 64 hvcurveto
          41 2 rlineto
          20 hlineto
          31 35 -2 28 hhcurveto
          23 8 20 21 hvcurveto
          11 -2 7 8 vvcurveto
          -56 224 -132 214 -109 197 -47 27 rcurveline
          -61 6 rlineto
          -69 2 -1 5 -54 hvcurveto
          -76 2 rlineto
          -121 hlineto
          -94 -23 -14 -16 -52 -83 -34 -72 -41 -80 rlinecurve
          -51 -133 -92 -134 -27 -133 rrcurveto
          -3 -8 1 -7 -11 vvcurveto
          -21 7 -20 23 vhcurveto
          37 43 2 35 hhcurveto
          61 hlineto
          9 6 10 -8 rlineto
          3 24 33 -1 23 hhcurveto
          29 65 88 88 59 hvcurveto
          34 51 36 59 39 66 35 -53 37 -60 47 -53 rrcurveto
          endchar
        </CharString>
        <CharString name="I">
          -599 19 -21 hstem
          -103 callgsubr
          endchar
        </CharString>
        <CharString name="IJ">
          745 19 -21 hstem
          -103 callgsubr
          1229 -275 -77 callgsubr
          endchar
        </CharString>
        <CharString name="Iacute">
          -622 19 -21 2373 -20 hstem
          -103 callgsubr
          -263 1392 -89 callsubr
          endchar
        </CharString>
        <CharString name="Ibreve">
          -599 19 -21 1517 -25 callsubr
          hstem
          -13 -10 callgsubr
          -103 callgsubr
          -207 1682 -96 callgsubr
        </CharString>
        <CharString name="Icircumflex">
          -622 19 -21 2271 -20 hstem
          -103 callgsubr
          -234 1308 rmoveto
          -53 43 69 -133 29 hhcurveto
          23 32 1 -3 64 hvcurveto
          41 2 rlineto
          20 hlineto
          31 35 -2 28 hhcurveto
          23 8 20 21 hvcurveto
          11 -2 7 8 vvcurveto
          -56 224 -132 214 -109 197 -47 27 rcurveline
          -61 6 rlineto
          -69 2 -1 5 -54 hvcurveto
          -76 2 rlineto
          -121 hlineto
          -94 -23 -14 -16 -52 -83 -34 -72 -41 -80 rlinecurve
          -51 -133 -92 -134 -27 -133 rrcurveto
          -3 -8 1 -7 -11 vvcurveto
          -21 7 -20 23 vhcurveto
          37 43 2 35 hhcurveto
          61 hlineto
          9 6 10 -8 rlineto
          3 24 33 -1 23 hhcurveto
          29 65 88 88 59 hvcurveto
          34 51 36 59 39 66 35 -53 37 -60 47 -53 rrcurveto
          endchar
        </CharString>
        <CharString name="Idieresis">
          -622 19 -21 1603 -23 callgsubr
          595 476 hintmask 11010000
          -103 callgsubr
          -456 1550 rmoveto
          -5 callsubr
          21 callgsubr
          hintmask 11010000
          -100 callsubr
          hintmask 10110000
          -24 callgsubr
          hintmask 11010000
          -99 callgsubr
          endchar
        </CharString>
        <CharString name="Idot">
          -599 19 -21 1532 31 callgsubr
          hintmask 11000000
          -103 callgsubr
          -98 1568 -72 callsubr
          hhcurveto
          hintmask 10100000
          -81 callsubr
          hintmask 11000000
          -94 callgsubr
        </CharString>
        <CharString name="Igrave">
          -622 19 -21 2373 -20 hstem
          -103 callgsubr
          -585 1371 rmoveto
          -102 callgsubr
        </CharString>
        <CharString name="Imacron">
          -599 19 -21 1675 376 hstem
          -103 callgsubr
          -201 1270 -94 callsubr
        </CharString>
        <CharString name="Iogonek">
          -599 32 callgsubr
          347 -21 hstem
          128 420 vstem
          -103 callgsubr
          -102 -387 -95 callsubr
          rrcurveto
          endchar
        </CharString>
        <CharString name="Itilde">
          -599 3 callsubr
          -103 callgsubr
          -171 1651 -75 callgsubr
          hintmask 10010000
          -83 callsubr
          hintmask 11000000
          -85 callgsubr
        </CharString>
        <CharString name="J">
          -239 1364 -20 hstem
          1102 133 -77 callgsubr
          endchar
        </CharString>
        <CharString name="Jcircumflex">
          -239 1364 164 741 -20 hstem
          1102 133 -77 callgsubr
          -310 1583 rmoveto
          -53 43 69 -133 29 hhcurveto
          23 32 1 -3 64 hvcurveto
          41 2 rlineto
          20 hlineto
          31 35 -2 28 hhcurveto
          23 8 20 21 hvcurveto
          11 -2 7 8 vvcurveto
          -56 224 -132 214 -109 197 -47 27 rcurveline
          -61 6 rlineto
          -69 2 -1 5 -54 hvcurveto
          -76 2 rlineto
          -121 hlineto
          -94 -23 -14 -16 -52 -83 -34 -72 -41 -80 rlinecurve
          -51 -133 -92 -134 -27 -133 rrcurveto
          -3 -8 1 -7 -11 vvcurveto
          -21 7 -20 23 vhcurveto
          37 43 2 35 hhcurveto
          61 hlineto
          9 6 10 -8 rlineto
          3 24 33 -1 23 hhcurveto
          29 65 88 88 59 hvcurveto
          34 51 36 59 39 66 35 -53 37 -60 47 -53 rrcurveto
          endchar
        </CharString>
        <CharString name="K">
          167 1423 -77 callsubr
          endchar
        </CharString>
        <CharString name="L">
          -302 4 475 -458 20 callgsubr
          122 -22 callsubr
          hintmask 01000000
          -60 callsubr
          hintmask 10000000
          -78 callgsubr
          endchar
        </CharString>
        <CharString name="Lacute">
          -302 4 475 -458 -21 2388 -20 hstemhm
          hintmask 10100000
          956 1817 -89 callsubr
          -834 -1760 -25 callgsubr
          hintmask 01100000
          -60 callsubr
          hintmask 10100000
          -78 callgsubr
          endchar
        </CharString>
        <CharString name="Lcaron">
          -48 4 475 -458 20 callgsubr
          122 -22 callsubr
          hintmask 01000000
          -60 callsubr
          hintmask 10000000
          -78 callgsubr
          1204 413 -104 callsubr
          endchar
        </CharString>
        <CharString name="Ldot">
          -302 4 475 -458 -21 870 472 hstemhm
          hintmask 10100000
          122 -22 callsubr
          hintmask 01100000
          -60 callsubr
          hintmask 10100000
          -78 callgsubr
          1323 808 -72 callsubr
          -81 callsubr
          -94 callgsubr
        </CharString>
        <CharString name="Lslash">
          -198 4 475 -458 20 callgsubr
          206 -22 callsubr
          hintmask 01000000
          -60 callsubr
          hintmask 10000000
          19 -22 22 -29 vhcurveto
          -117 -107 -2 -95 hhcurveto
          -47 4 8 39 hvcurveto
          205 vlineto
          15 4 102 26 -9 callgsubr
          -53 -13 -43 -6 -52 -11 rrcurveto
          -1 11 0 8 4 10 11 76 9 vvcurveto
          112 -54 -8 -92 vhcurveto
          -166 -76 6 -235 hhcurveto
          -61 6 -103 -52 hvcurveto
          -7 -64 -3 -91 -1 -107 -19 -7 -20 -5 -20 -5 17 callsubr
          -52 51 3 60 16 vhcurveto
          -34 vlineto
          endchar
        </CharString>
        <CharString name="M">
          495 17 -43 callgsubr
          1380 24 callsubr
          1063 889 rmoveto
          -17 -7 -11 -16 -15 hhcurveto
          -11 -11 11 22 -9 hvcurveto
          -12 8 -130 344 -16 39 rrcurveto
          41 -22 -34 55 -15 -47 -162 2 -297 hhcurveto
          -35 -106 -6 -59 -4 3 -8 3 -3 hvcurveto
          -15 4 -80 -15 -111 -10 -41 -82 -8 6 -61 -11 vvcurveto
          -151 -8 -131 -3 -141 vhcurveto
          -120 4 4 -294 5 hhcurveto
          6 -17 92 -22 rlineto
          hintmask 10100000
          3 88 -2 36 hhcurveto
          109 94 8 8 108 hvcurveto
          3 12 -2 8 hhcurveto
          35 -4 305 177 8 5 8 11 14 32 -147 -242 155 hvcurveto
          -5 48 79 1 30 hhcurveto
          92 72 200 17 13 hvcurveto
          51 19 42 125 12 hhcurveto
          11 6 -8 -8 -207 2 -275 28 hvcurveto
          9 11 2 3 hhcurveto
          -8 110 91 -8 110 hhcurveto
          hintmask 01100000
          36 88 2 3 hhcurveto
          92 22 6 17 rlineto
          -1 -7 294 120 hvcurveto
          8 100 9 106 101 vvcurveto
          211 0 407 -19 vhcurveto
          -77 5 2 -51 -297 -161 -2 -48 hhcurveto
          -13 -39 -55 -41 -19 hvcurveto
          -16 -41 -158 -335 -4 -15 rrcurveto
          endchar
        </CharString>
        <CharString name="N">
          19 callsubr
          hstemhm
          hintmask 01000000
          1665 459 rmoveto
          -90 callsubr
          hintmask 10000000
          -72 callgsubr
          208 -293 rlineto
          hintmask 00100000
          -51 51 70 14 31 hhcurveto
          hintmask 01000000
          -33 callsubr
          endchar
        </CharString>
        <CharString name="NULL">
          -1583 endchar
        </CharString>
        <CharString name="Nacute">
          19 callsubr
          2371 -20 hstemhm
          hintmask 01010000
          1665 459 rmoveto
          -90 callsubr
          hintmask 10010000
          -72 callgsubr
          208 -293 rlineto
          hintmask 00110000
          -51 51 70 14 31 hhcurveto
          hintmask 01010000
          -33 callsubr
          -684 1341 -89 callsubr
          endchar
        </CharString>
        <CharString name="Ncaron">
          19 callsubr
          2269 -20 hstemhm
          hintmask 01010000
          1665 459 rmoveto
          -90 callsubr
          hintmask 10010000
          -72 callgsubr
          208 -293 rlineto
          hintmask 00110000
          -51 51 70 14 31 hhcurveto
          hintmask 01010000
          -33 callsubr
          -652 1622 -104 callgsubr
        </CharString>
        <CharString name="Ntilde">
          172 17 -21 23 -43 callgsubr
          1507 -50 callgsubr
          hintmask 01010000
          1665 459 rmoveto
          -90 callsubr
          hintmask 10010000
          -72 callgsubr
          208 -293 rlineto
          hintmask 00110000
          -51 51 70 14 31 hhcurveto
          hintmask 01001000
          -33 callsubr
          -551 1620 -75 callgsubr
          hintmask 01000100
          -83 callsubr
          hintmask 01010000
          -85 callgsubr
        </CharString>
        <CharString name="O">
          12 callsubr
          hstem
          -96 callsubr
          endchar
        </CharString>
        <CharString name="OE">
          895 -49 196 -147 -70 callgsubr
          -141 194 hstemhm
          hintmask 10110000
          905 -49 rmoveto
          151 133 14 39 113 hvcurveto
          hintmask 01110000
          -4 21 18 0 8 216 217 2 215 103 88 8 99 -44 callsubr
          -52 203 -25 hvcurveto
          -129 -133 -12 -132 hhcurveto
          -3 56 9 48 51 vvcurveto
          105 7 -23 235 121 117 4 47 vhcurveto
          6 vlineto
          -8 183 -13 48 -14 -6 -43 5 rlinecurve
          12 -120 -119 -4 -124 hhcurveto
          -23 -9 6 37 43 14 156 25 hvcurveto
          hintmask 10101000
          8 141 149 24 136 hhcurveto
          35 15 -12 68 -3 hvcurveto
          96 -27 0 131 -51 hhcurveto
          27 -369 -246 -25 -342 hhcurveto
          -31 -30 0 -4 -29 hvcurveto
          hintmask 10100100
          41 -113 -118 14 -100 hhcurveto
          -586 -238 -226 -556 -637 406 -53 397 hvcurveto
          -109 719 rmoveto
          250 0 309 93 94 0 -482 -36 -113 1 -451 -95 -93 0 399 124 vhcurveto
          endchar
        </CharString>
        <CharString name="Oacute">
          0 callsubr
          948 -20 hstem
          -96 callsubr
          196 1130 -89 callsubr
          endchar
        </CharString>
        <CharString name="Obreve">
          12 callsubr
          92 -25 callsubr
          hstem
          373 -10 callgsubr
          -96 callsubr
          248 1420 -96 callgsubr
        </CharString>
        <CharString name="Ocircumflex">
          0 callsubr
          846 -20 hstem
          -96 callsubr
          200 1046 rmoveto
          -53 43 69 -133 29 hhcurveto
          23 32 1 -3 64 hvcurveto
          41 2 rlineto
          20 hlineto
          31 35 -2 28 hhcurveto
          23 8 20 21 hvcurveto
          11 -2 7 8 vvcurveto
          -56 224 -132 214 -109 197 -47 27 rcurveline
          -61 6 rlineto
          -69 2 -1 5 -54 hvcurveto
          -76 2 rlineto
          -121 hlineto
          -94 -23 -14 -16 -52 -83 -34 -72 -41 -80 rlinecurve
          -51 -133 -92 -134 -27 -133 rrcurveto
          -3 -8 1 -7 -11 vvcurveto
          -21 7 -20 23 vhcurveto
          37 43 2 35 hhcurveto
          61 hlineto
          9 6 10 -8 rlineto
          3 24 33 -1 23 hhcurveto
          29 65 88 88 59 hvcurveto
          34 51 36 59 39 66 35 -53 37 -60 47 -53 rrcurveto
          endchar
        </CharString>
        <CharString name="Odieresis">
          0 callsubr
          178 -23 callgsubr
          975 485 hintmask 11101000
          -96 callsubr
          2 1288 -47 callsubr
          hintmask 11011000
          -26 -3 6 -26 hhcurveto
          hintmask 11101000
          -100 callsubr
          hintmask 11011000
          -28 0 6 -27 hhcurveto
          hintmask 11101000
          -99 callgsubr
          endchar
        </CharString>
        <CharString name="Ograve">
          0 callsubr
          948 -20 hstem
          -96 callsubr
          4 1109 rmoveto
          -102 callgsubr
        </CharString>
        <CharString name="Ohungarumlaut">
          12 callsubr
          948 -20 hstem
          -96 callsubr
          -112 1130 -100 callgsubr
        </CharString>
        <CharString name="Omacron">
          12 callsubr
          250 376 hstem
          -96 callsubr
          254 1008 -94 callsubr
        </CharString>
        <CharString name="Oslash">
          263 -88 -21 60 196 1082 194 hstem
          926 -49 rmoveto
          459 311 120 656 183 -46 134 -72 103 hvcurveto
          27 24 22 19 15 15 24 22 rcurveline
          99 109 -16 -1 -64 37 -21 4 -26 20 -15 7 -12 7 -13 5 -19 -11 -136 -123 rcurveline
          109 -151 -194 33 -152 hhcurveto
          -584 -239 -226 -556 -232 53 -154 87 -103 hvcurveto
          -47 -48 -38 -42 -27 -27 -24 -29 -33 -30 61 -32 3 -3 12 -7 27 -24 13 -5 14 -7 27 -7 37 15 58 55 72 72 rrcurveto
          -72 144 184 -10 180 hhcurveto
          -17 1278 rmoveto
          60 22 -198 -152 8 hvcurveto
          -182 -165 rlineto
          241 5 274 87 vhcurveto
          94 -615 rmoveto
          -172 -4 -13 -295 -77 hhcurveto
          -55 -24 147 144 -8 hvcurveto
          endchar
        </CharString>
        <CharString name="Otilde">
          0 callsubr
          64 -50 callgsubr
          hintmask 11010000
          -96 callsubr
          301 1389 -75 callgsubr
          hintmask 11001000
          -83 callsubr
          hintmask 11100000
          -85 callgsubr
        </CharString>
        <CharString name="P">
          136 23 -21 324 245 611 194 hstem
          119 870 rmoveto
          -272 10 -344 -127 vvcurveto
          -53 4 -72 51 vhcurveto
          26 callgsubr
          109 3 9 -3 95 hvcurveto
          280 hlineto
          347 227 149 430 391 -342 80 -224 hvcurveto
          -201 -166 -6 -149 -96 -128 4 -183 hhcurveto
          -25 -28 -28 -25 hvcurveto
          704 -743 rmoveto
          113 4 100 7 89 vhcurveto
          151 11 25 151 45 hhcurveto
          94 0 -219 -13 -76 1 -303 -95 16 callgsubr
        </CharString>
        <CharString name="Q">
          135 -436 -20 413 190 1082 194 hstem
          1636 727 rmoveto
          572 -453 124 -296 -586 -238 -226 -556 -540 291 -120 332 -24 vhcurveto
          15 -23 12 -22 4 -8 161 -266 rcurveline
          7 -11 2 1 4 -3 rrcurveto
          3 2 3 -15 7 hvcurveto
          -48 48 19 -1 3 hhcurveto
          1 13 -3 3 12 vhcurveto
          11 -3 132 38 11 8 28 7 25 9 24 7 50 37 122 45 3 55 rrcurveto
          38 -73 105 -63 82 vhcurveto
          234 82 143 198 445 vvcurveto
          -878 -57 rmoveto
          250 0 309 92 94 0 -482 -36 -113 0 -451 -94 -92 0 399 124 vhcurveto
          endchar
        </CharString>
        <CharString name="R">
          204 9 -37 callgsubr
          19 -20 hstemhm
          hintmask 10010000
          -91 callgsubr
          hintmask 00101000
          -79 callgsubr
          73 -25 rlineto
          hintmask 01010000
          -73 callsubr
          hintmask 00110000
          174 -258 rlineto
          hintmask 10010000
          -79 callsubr
          endchar
        </CharString>
        <CharString name="R.alt">
          227 9 -37 callgsubr
          19 -20 hstemhm
          hintmask 10010000
          -91 callgsubr
          hintmask 00101000
          -79 callgsubr
          73 -25 rlineto
          hintmask 01010000
          -73 callsubr
          hintmask 00110000
          174 -258 rlineto
          hintmask 10010000
          -8 7 2 -2 3 hhcurveto
          3 4 0 -15 4 hvcurveto
          -289 686 rmoveto
          1 97 2 87 3 77 rrcurveto
          131 5 14 131 26 hhcurveto
          115 0 -219 -13 -59 0 -238 -115 -27 -11 0 3 -7 hvcurveto
          endchar
        </CharString>
        <CharString name="Racute">
          204 9 -37 callgsubr
          985 -90 callgsubr
          144 1144 -89 callsubr
          endchar
        </CharString>
        <CharString name="Rcaron">
          204 9 -37 callgsubr
          883 -90 callgsubr
          176 1425 -104 callgsubr
        </CharString>
        <CharString name="S">
          -107 27 callgsubr
          hstem
          -97 callgsubr
          endchar
        </CharString>
        <CharString name="Sacute">
          -107 27 callgsubr
          948 -20 hstem
          -97 callgsubr
          -547 1388 -89 callsubr
          endchar
        </CharString>
        <CharString name="Scaron">
          -125 27 callgsubr
          866 -20 hstem
          -97 callgsubr
          -517 1689 -104 callgsubr
        </CharString>
        <CharString name="Scedilla">
          -107 -672 1 callgsubr
          -85 6 callgsubr
          hstemhm
          814 358 hintmask 10111000
          -97 callgsubr
          -773 -651 rmoveto
          hintmask 11011000
          -87 callgsubr
          endchar
        </CharString>
        <CharString name="Scircumflex">
          -107 27 callgsubr
          846 -20 hstem
          -97 callgsubr
          -514 1304 rmoveto
          -53 43 69 -133 29 hhcurveto
          23 32 1 -3 64 hvcurveto
          41 2 rlineto
          20 hlineto
          31 35 -2 28 hhcurveto
          23 8 20 21 hvcurveto
          11 -2 7 8 vvcurveto
          -56 224 -132 214 -109 197 -47 27 rcurveline
          -61 6 rlineto
          -69 2 -1 5 -54 hvcurveto
          -76 2 rlineto
          -121 hlineto
          -94 -23 -14 -16 -52 -83 -34 -72 -41 -80 rlinecurve
          -51 -133 -92 -134 -27 -133 rrcurveto
          -3 -8 1 -7 -11 vvcurveto
          -21 7 -20 23 vhcurveto
          37 43 2 35 hhcurveto
          61 hlineto
          9 6 10 -8 rlineto
          3 24 33 -1 23 hhcurveto
          29 65 88 88 59 hvcurveto
          34 51 36 59 39 66 35 -53 37 -60 47 -53 rrcurveto
          endchar
        </CharString>
        <CharString name="T">
          -104 19 -21 917 429 4 -20 hstemhm
          hintmask 11000000
          388 899 rmoveto
          -74 callsubr
          hintmask 10100000
          -65 callsubr
          endchar
        </CharString>
        <CharString name="Tbar">
          -104 19 -21 393 280 244 429 4 -20 hstemhm
          hintmask 11100000
          388 899 rmoveto
          -75 -1 -74 -2 -74 vhcurveto
          -5 -135 vlineto
          -26 -33 -20 -16 hvcurveto
          -85 2 -32 -86 vvcurveto
          -35 56 -6 67 vhcurveto
          1 21 20 0 21 hhcurveto
          -112 vlineto
          -169 2 18 -113 54 225 84 6 164 hhcurveto
          80 8 39 -7 101 vvcurveto
          197 vlineto
          6 84 rlineto
          -1 15 17 0 18 hhcurveto
          -1 25 28 0 33 hhcurveto
          56 4 50 36 hvcurveto
          87 -6 -24 91 vvcurveto
          36 -81 3 -56 vhcurveto
          -41 hlineto
          4 103 0 79 20 vvcurveto
          51 4 -2 20 vhcurveto
          39 47 -1 47 hhcurveto
          132 hlineto
          19 36 0 32 hvcurveto
          339 vlineto
          40 -1 19 -181 vhcurveto
          -737 hlineto
          hintmask 11010000
          -65 callsubr
          endchar
        </CharString>
        <CharString name="Tcaron">
          -104 19 -21 917 429 925 -20 hstem
          388 899 rmoveto
          -74 callsubr
          -65 callsubr
          471 1182 -104 callgsubr
        </CharString>
        <CharString name="Thorn">
          113 -17 -21 27 -21 358 195 541 194 224 -20 hstemhm
          hintmask 10111000
          118 820 rmoveto
          -36 vlineto
          -62 vlineto
          3 -248 7 -278 -109 vvcurveto
          -53 4 -72 51 vhcurveto
          hintmask 01111000
          26 callgsubr
          128 3 14 -3 111 hvcurveto
          280 hlineto
          347 227 134 395 335 -342 66 -224 -104 -94 -2 -1 -88 hvcurveto
          36 -2 19 61 vvcurveto
          99 -41 6 -72 vhcurveto
          -190 -70 6 -250 hhcurveto
          -51 -4 -72 -53 -89 -7 -233 -3 -206 hvcurveto
          704 -299 rmoveto
          1 99 1 89 3 79 rrcurveto
          133 5 11 134 21 hhcurveto
          144 0 -153 -9 -76 0 -303 -94 16 callgsubr
        </CharString>
        <CharString name="U">
          -32 callsubr
          hstemhm
          hintmask 01000000
          -88 callsubr
          hintmask 10000000
          -52 callsubr
        </CharString>
        <CharString name="Uacute">
          -32 callsubr
          2398 24 callsubr
          1075 1817 -89 callsubr
          -46 -1745 -102 callsubr
          hintmask 10100000
          -52 callsubr
        </CharString>
        <CharString name="Ubreve">
          -32 callsubr
          1525 -25 callsubr
          hstemhm
          400 344 -344 379 301 333 hintmask 01111010
          -88 callsubr
          hintmask 10110110
          -98 callgsubr
          34 2018 rmoveto
          12 -49 5 -50 -23 vvcurveto
          -90 -69 -70 -84 -157 -24 77 4 vhcurveto
          hintmask 10111010
          -1 15 -1 12 15 vvcurveto
          48 7 50 11 44 vhcurveto
          -320 2 rlineto
          -28 -59 -14 -58 -55 vvcurveto
          -225 234 -163 248 139 154 13 123 104 vhcurveto
          84 97 50 90 97 vvcurveto
          55 -5 49 -13 43 vhcurveto
          endchar
        </CharString>
        <CharString name="Ucircumflex">
          -32 callsubr
          2296 24 callsubr
          1002 1733 rmoveto
          -53 43 69 -133 29 hhcurveto
          23 32 1 -3 64 hvcurveto
          41 2 rlineto
          20 hlineto
          31 35 -2 28 hhcurveto
          23 8 20 21 hvcurveto
          11 -2 7 8 vvcurveto
          -56 224 -132 214 -109 197 -47 27 rcurveline
          -61 6 rlineto
          -69 2 -1 5 -54 hvcurveto
          -76 2 rlineto
          -121 hlineto
          -94 -23 -14 -16 -52 -83 -34 -72 -41 -80 rlinecurve
          -51 -133 -92 -134 -27 -133 rrcurveto
          -3 -8 1 -7 -11 vvcurveto
          -21 7 -20 23 vhcurveto
          37 43 2 35 hhcurveto
          61 hlineto
          9 6 10 -8 rlineto
          3 24 33 -1 23 hhcurveto
          29 65 88 88 59 hvcurveto
          34 51 36 59 39 66 35 -53 37 -60 47 -53 rrcurveto
          27 -1661 -102 callsubr
          hintmask 10100000
          -52 callsubr
        </CharString>
        <CharString name="Udieresis">
          -32 callsubr
          1555 -23 callgsubr
          996 491 hintmask 10101000
          817 1902 -47 callsubr
          hintmask 10011000
          21 callgsubr
          hintmask 10101000
          -100 callsubr
          hintmask 10011000
          -24 callgsubr
          hintmask 01101000
          -99 callgsubr
          -433 -1830 -102 callsubr
          hintmask 10101000
          -52 callsubr
        </CharString>
        <CharString name="Ugrave">
          207 -32 callsubr
          2381 24 callsubr
          -88 callsubr
          hintmask 10100000
          -98 callgsubr
          -213 1707 rmoveto
          -102 callgsubr
        </CharString>
        <CharString name="Uhungarumlaut">
          -32 callsubr
          2381 24 callsubr
          -88 callsubr
          hintmask 10100000
          -98 callgsubr
          -327 1728 -100 callgsubr
        </CharString>
        <CharString name="Umacron">
          -32 callsubr
          1683 376 hstemhm
          hintmask 01100000
          -88 callsubr
          hintmask 10100000
          -98 callgsubr
          40 1606 -94 callsubr
        </CharString>
        <CharString name="Uogonek">
          32 callgsubr
          281 317 -259 -21 hstemhm
          958 420 hintmask 10110000
          -88 callsubr
          hintmask 11010000
          -98 callgsubr
          556 -51 -95 callsubr
          rrcurveto
          endchar
        </CharString>
        <CharString name="Uring">
          -32 callsubr
          1525 -22 callgsubr
          450 295 hintmask 01110100
          -88 callsubr
          hintmask 10101100
          -98 callgsubr
          -157 1443 -76 callgsubr
          hintmask 10110100
          -84 callgsubr
        </CharString>
        <CharString name="Utilde">
          -32 callsubr
          1497 -50 callgsubr
          hintmask 01100000
          -88 callsubr
          hintmask 10010000
          -98 callgsubr
          70 1987 -75 callgsubr
          hintmask 10001000
          -83 callsubr
          hintmask 10100000
          -85 callgsubr
        </CharString>
        <CharString name="V">
          297 21 -21 1376 -20 hstem
          1288 10 rmoveto
          39 33 -10 39 16 16 12 17 8 3 -2 7 hhcurveto
          8 4 13 12 7 vvcurveto
          143 647 43 165 41 178 35 165 rlinecurve
          37 8 41 151 -66 hhcurveto
          -28 -204 -1 -3 -3 hvcurveto
          -129 hlineto
          -3 0 -5 -21 vhcurveto
          -3 -1 8 -4 hhcurveto
          -6 hlineto
          -2 -98 -8 -54 hhcurveto
          -29 -48 -23 -169 -40 -180 rrcurveto
          -8 -80 -393 -3 vvcurveto
          -2 -8 -1 -5 0 -9 -3 -9 rlinecurve
          -3 9 -1 9 -1 5 rrcurveto
          -1 3 0 2 3 3 -80 393 8 vvcurveto
          -40 180 -23 169 -29 48 rrcurveto
          -70 -122 8 -2 hhcurveto
          -7 hlineto
          -16 -1 -8 -11 hhcurveto
          -11 3 rlineto
          -7 3 -3 1 1 vvcurveto
          -190 hlineto
          -6 -199 4 -31 hhcurveto
          -65 44 -151 -37 5 hvcurveto
          35 -165 41 -178 43 -165 143 -647 rcurveline
          -7 12 -12 9 -4 vhcurveto
          7 3 2 8 35 37 -12 39 hhcurveto
          235 257 -1 11 253 hvcurveto
          endchar
        </CharString>
        <CharString name="W">
          814 19 -43 callgsubr
          hstemhm
          hintmask 01000000
          -82 callsubr
          hintmask 10000000
          130 42 -2 147 hhcurveto
          hintmask 01000000
          -19 callgsubr
          endchar
        </CharString>
        <CharString name="Wcircumflex">
          814 19 -43 callgsubr
          2269 24 callsubr
          -82 callsubr
          hintmask 10100000
          130 42 -2 147 hhcurveto
          hintmask 01100000
          -19 callgsubr
          -156 1706 rmoveto
          -53 43 69 -133 29 hhcurveto
          23 32 1 -3 64 hvcurveto
          41 2 rlineto
          20 hlineto
          31 35 -2 28 hhcurveto
          23 8 20 21 hvcurveto
          11 -2 7 8 vvcurveto
          -56 224 -132 214 -109 197 -47 27 rcurveline
          -61 6 rlineto
          -69 2 -1 5 -54 hvcurveto
          -76 2 rlineto
          -121 hlineto
          -94 -23 -14 -16 -52 -83 -34 -72 -41 -80 rlinecurve
          -51 -133 -92 -134 -27 -133 rrcurveto
          -3 -8 1 -7 -11 vvcurveto
          -21 7 -20 23 vhcurveto
          37 43 2 35 hhcurveto
          61 hlineto
          9 6 10 -8 rlineto
          3 24 33 -1 23 hhcurveto
          29 65 88 88 59 hvcurveto
          34 51 36 59 39 66 35 -53 37 -60 47 -53 rrcurveto
          endchar
        </CharString>
        <CharString name="X">
          288 9 -21 1403 -20 hstem
          872 256 rmoveto
          56 113 rlineto
          14 44 -84 -29 13 hvcurveto
          103 -184 rlineto
          13 -16 9 17 -10 vvcurveto
          -16 vlineto
          47 -45 rlineto
          3 3 17 3 3 hhcurveto
          1 50 -25 5 16 hvcurveto
          12 53 260 -12 128 hhcurveto
          8 hlineto
          24 -8 24 13 60 -167 289 -48 79 hvcurveto
          -13 18 -36 70 -34 61 -64 119 rcurveline
          10 11 10 12 9 12 16 20 20 26 17 25 12 12 208 369 11 11 rrcurveto
          24 27 68 86 50 vvcurveto
          -28 4 rlineto
          -15 3 -12 1 1 vvcurveto
          -8 -520 -23 -13 hhcurveto
          -30 -171 -299 -20 -8 hvcurveto
          -8 -13 -9 -10 -7 -7 -12 -11 rcurveline
          -3 -18 26 15 hvcurveto
          20 -8 -169 299 -32 -11 -521 23 -9 hhcurveto
          -1 -13 -1 -15 -3 vhcurveto
          -27 -4 rlineto
          -56 68 -93 24 -35 vhcurveto
          11 -11 208 -347 13 -13 13 -25 15 -26 12 -20 21 -35 rcurveline
          -81 -166 -43 -86 -47 -94 -15 -23 rlinecurve
          -36 -57 -120 -204 -46 vvcurveto
          -13 -8 -24 25 vhcurveto
          8 hlineto
          136 -20 269 12 56 -12 rrcurveto
          -5 16 50 25 1 hhcurveto
          10 -2 rlineto
          5 -1 6 -2 -1 vvcurveto
          49 45 41 68 rlineto
          endchar
        </CharString>
        <CharString name="Y">
          95 -174 -21 1631 -20 hstem
          -86 callgsubr
          endchar
        </CharString>
        <CharString name="Yacute">
          95 -174 -21 1600 153 -122 122 843 -20 hstemhm
          hintmask 11010000
          1129 1830 -89 callsubr
          -190 -2025 rmoveto
          8 12 0 9 4 hvcurveto
          83 157 82 157 83 161 3 3 5 0 3 3 127 277 121 276 128 280 rrcurveto
          15 29 10 35 39 vvcurveto
          hintmask 10110000
          100 -76 -298 105 -130 hhcurveto
          -40 -7 -28 -36 -10 hvcurveto
          -55 -24 -122 -293 -26 hhcurveto
          -30 -78 156 59 -40 hvcurveto
          -10 16 -37 41 -16 29 rrcurveto
          hintmask 11010000
          49 -25 -18 31 -53 -3 -3 -1 -3 hhcurveto
          -1 -2 -2 0 -2 hhcurveto
          -29 -88 -143 -35 -21 hhcurveto
          -21 -44 -31 -8 -68 hvcurveto
          -49 -22 -76 -39 -35 vvcurveto
          -45 78 -186 27 -51 vhcurveto
          80 -160 120 -192 72 -93 rrcurveto
          -8 4 1 0 3 3 -1 2 9 hhcurveto
          -50 67 -20 -53 vvcurveto
          -48 -65 -74 -21 -48 vhcurveto
          -24 -49 -33 -64 -51 vvcurveto
          -38 241 -81 68 -16 vhcurveto
          6 -3 45 -3 4 -2 41 -12 55 -19 68 -8 rrcurveto
          -16 8 2 -2 7 3 5 4 8 hhcurveto
          endchar
        </CharString>
        <CharString name="Ycircumflex">
          95 -174 -21 2464 -20 hstem
          -86 callgsubr
          20 1898 rmoveto
          -53 43 69 -133 29 hhcurveto
          23 32 1 -3 64 hvcurveto
          41 2 rlineto
          20 hlineto
          31 35 -2 28 hhcurveto
          23 8 20 21 hvcurveto
          11 -2 7 8 vvcurveto
          -56 224 -132 214 -109 197 -47 27 rcurveline
          -61 6 rlineto
          -69 2 -1 5 -54 hvcurveto
          -76 2 rlineto
          -121 hlineto
          -94 -23 -14 -16 -52 -83 -34 -72 -41 -80 rlinecurve
          -51 -133 -92 -134 -27 -133 rrcurveto
          -3 -8 1 -7 -11 vvcurveto
          -21 7 -20 23 vhcurveto
          37 43 2 35 hhcurveto
          61 hlineto
          9 6 10 -8 rlineto
          3 24 33 -1 23 hhcurveto
          29 65 88 88 59 hvcurveto
          34 51 36 59 39 66 35 -53 37 -60 47 -53 rrcurveto
          endchar
        </CharString>
        <CharString name="Ydieresis">
          84 -174 -21 1796 -23 callgsubr
          947 476 hintmask 11010000
          -86 callgsubr
          -186 2140 rmoveto
          -5 callsubr
          21 callgsubr
          hintmask 11010000
          -100 callsubr
          hintmask 10110000
          -24 callgsubr
          hintmask 11010000
          -99 callgsubr
          endchar
        </CharString>
        <CharString name="Z">
          -144 -5 callgsubr
          hstemhm
          hintmask 10100000
          146 -22 callsubr
          hintmask 01100000
          -45 callsubr
          hintmask 10100000
          -81 callgsubr
          endchar
        </CharString>
        <CharString name="Zacute">
          -144 -5 callgsubr
          991 -20 hstemhm
          hintmask 10110000
          146 -22 callsubr
          hintmask 01110000
          -45 callsubr
          hintmask 10110000
          -81 callgsubr
          661 1366 -89 callsubr
          endchar
        </CharString>
        <CharString name="Zcaron">
          -166 -5 callgsubr
          909 -20 hstemhm
          hintmask 10110000
          146 -22 callsubr
          hintmask 01110000
          -45 callsubr
          hintmask 10110000
          -81 callgsubr
          688 1667 -104 callgsubr
        </CharString>
        <CharString name="Zdotaccent">
          -144 -5 callgsubr
          150 31 callgsubr
          hintmask 10110000
          146 -22 callsubr
          hintmask 01110000
          -45 callsubr
          hintmask 10110000
          -81 callgsubr
          841 1542 -72 callsubr
          hhcurveto
          hintmask 10101000
          -81 callsubr
          hintmask 10110000
          -94 callgsubr
        </CharString>
        <CharString name="a">
          69 19 -21 1180 -20 hstem
          -105 callgsubr
          endchar
        </CharString>
        <CharString name="aacute">
          54 19 -21 2150 -20 hstem
          -105 callgsubr
          58 694 -89 callsubr
          endchar
        </CharString>
        <CharString name="abreve">
          69 19 -21 1294 -25 callsubr
          hstem
          319 -10 callgsubr
          -105 callgsubr
          108 984 -96 callgsubr
        </CharString>
        <CharString name="acircumflex">
          54 19 -21 2048 -20 hstem
          -105 callgsubr
          85 610 rmoveto
          -53 43 69 -133 29 hhcurveto
          23 32 1 -3 64 hvcurveto
          41 2 rlineto
          20 hlineto
          31 35 -2 28 hhcurveto
          23 8 20 21 hvcurveto
          11 -2 7 8 vvcurveto
          -56 224 -132 214 -109 197 -47 27 rcurveline
          -61 6 rlineto
          -69 2 -1 5 -54 hvcurveto
          -76 2 rlineto
          -121 hlineto
          -94 -23 -14 -16 -52 -83 -34 -72 -41 -80 rlinecurve
          -51 -133 -92 -134 -27 -133 rrcurveto
          -3 -8 1 -7 -11 vvcurveto
          -21 7 -20 23 vhcurveto
          37 43 2 35 hhcurveto
          61 hlineto
          9 6 10 -8 rlineto
          3 24 33 -1 23 hhcurveto
          29 65 88 88 59 hvcurveto
          34 51 36 59 39 66 35 -53 37 -60 47 -53 rrcurveto
          endchar
        </CharString>
        <CharString name="acute">
          -718 -3 callgsubr
          551 1577 -89 callsubr
          endchar
        </CharString>
        <CharString name="adieresis">
          54 19 -21 1380 -23 callgsubr
          769 26 callsubr
          -105 callgsubr
          -136 852 rmoveto
          -5 callsubr
          21 callgsubr
          hintmask 11010000
          -100 callsubr
          hintmask 10110000
          -24 callgsubr
          hintmask 11001000
          -99 callgsubr
          endchar
        </CharString>
        <CharString name="ae">
          622 -2 270 201 242 202 263 14 -20 hstemhm
          hintmask 11100000
          868 1167 rmoveto
          -56 -41 9 -51 -33 -20 -9 -31 hhcurveto
          -16 hlineto
          -7 -3 -14 -10 -1 -7 -256 -545 rcurveline
          -67 -141 -67 -155 -60 -144 rrcurveto
          -33 -11 -70 -131 57 hhcurveto
          26 173 2 2 4 hvcurveto
          126 hlineto
          1 40 1 40 3 vhcurveto
          81 -11 callsubr
          3 -8 15 hhcurveto
          4 hlineto
          3 18 8 8 hhcurveto
          23 29 37 77 43 95 rrcurveto
          64 83 -5 11 58 hvcurveto
          -7 -99 -1 -79 9 -29 rrcurveto
          45 84 -8 2 -8 callsubr
          4 8 3 4 2 -1 3 hhcurveto
          -1 1 0 1 vhcurveto
          2 -1 1 -2 -3 vvcurveto
          113 hlineto
          -3 3 174 -1 24 384 29 16 140 hhcurveto
          3 5 0 1 4 hvcurveto
          3 2 0 1 3 hvcurveto
          14 15 rlineto
          3 0 3 1 3 vhcurveto
          5 1 5 3 vvcurveto
          67 -9 15 -13 53 vhcurveto
          25 -6 2 55 -19 -123 -127 -12 -124 hhcurveto
          10 -2 36 24 vvcurveto
          3 25 rlineto
          1 15 2 17 12 vvcurveto
          -1 2 0 2 3 vvcurveto
          -1 4 0 5 7 vvcurveto
          57 32 -6 97 vhcurveto
          90 hlineto
          91 88 -11 callgsubr
          -3 135 -4 41 -28 19 -17 -4 rlinecurve
          -281 hlineto
          -39 -10 4 28 36 11 134 24 41 133 -3 5 37 hvcurveto
          3 24 39 12 25 15 7 -8 17 hhcurveto
          19 11 11 -3 19 hvcurveto
          3 8 -8 3 hhcurveto
          19 2 32 25 hvcurveto
          86 -24 2 117 -48 hhcurveto
          -64 hlineto
          hintmask 11010000
          7 1 1 -11 vhcurveto
          -124 -137 -16 -124 -105 -98 10 -105 hhcurveto
          -35 -57 1 -8 -41 hvcurveto
          -3 -116 -12 -7 -128 hhcurveto
          184 -258 rmoveto
          -26 vlineto
          -5 -25 -295 -12 -149 vhcurveto
          4 -17 -15 6 -23 hhcurveto
          -4 hlineto
          -3 -7 -3 -3 -3 hvcurveto
          -90 hlineto
          60 148 126 293 4 vvcurveto
          endchar
        </CharString>
        <CharString name="agrave">
          54 19 -21 2150 -20 hstem
          -105 callgsubr
          -134 673 rmoveto
          -102 callgsubr
        </CharString>
        <CharString name="amacron">
          69 19 -21 1452 376 hstem
          -105 callgsubr
          114 572 -94 callsubr
        </CharString>
        <CharString name="ampersand">
          554 0 283 -266 -21 522 295 312 315 -283 283 hstemhm
          hintmask 10110000
          1825 518 rmoveto
          121 18 4 47 hvcurveto
          6 vlineto
          -8 183 -13 48 -14 -6 -43 5 rlinecurve
          -19 3 -55 0 -76 3 rrcurveto
          -4 25 -3 23 19 vvcurveto
          184 -13 -16 -96 8 vhcurveto
          -147 -78 -2 -211 hhcurveto
          -23 -27 -7 -87 -1 -125 rrcurveto
          -320 hlineto
          -23 -9 6 37 57 14 212 25 hvcurveto
          hintmask 10101000
          8 141 149 24 136 hhcurveto
          35 15 -12 68 -3 hvcurveto
          96 -27 0 131 -51 hhcurveto
          28 -365 -42 -28 -338 hhcurveto
          -68 -285 -2 -37 hvcurveto
          -15 -172 -2 -165 -164 vvcurveto
          -95 vlineto
          -91 vlineto
          -97 -3 -44 -69 -98 22 -287 -90 vvcurveto
          -15 -2 121 -14 22 216 217 2 215 hhcurveto
          30 67 33 32 59 hvcurveto
          35 19 37 22 39 25 rrcurveto
          hintmask 01110000
          -85 64 106 -52 91 49 57 6 53 hhcurveto
          hintmask 10110000
          51 116 -2 118 hhcurveto
          92 87 2 12 hvcurveto
          241 vlineto
          16 -21 23 -16 4 vhcurveto
          -19 -83 -86 4 -83 hhcurveto
          -41 -5 130 105 hvcurveto
          -593 -226 rmoveto
          -63 hlineto
          -3 -86 -140 -8 -74 hhcurveto
          -3 56 6 47 3 52 rrcurveto
          82 3 6 0 64 hhcurveto
          288 hlineto
          1 -71 1 -73 -76 vvcurveto
          endchar
        </CharString>
        <CharString name="aogonek">
          69 32 callgsubr
          347 -21 1180 -20 hstem
          830 420 vstem
          -105 callgsubr
          583 -862 -95 callsubr
          rrcurveto
          endchar
        </CharString>
        <CharString name="aring">
          54 19 -21 1294 -22 callgsubr
          388 295 hintmask 11011000
          -105 callgsubr
          -64 409 -76 callgsubr
          hintmask 11101000
          -84 callgsubr
        </CharString>
        <CharString name="asciicircum">
          -342 363 -21 887 -20 hstem
          324 1229 rmoveto
          -7 -3 -5 -8 -5 vvcurveto
          -124 -419 -28 -108 -27 -115 -23 -108 rlinecurve
          -21 -5 -25 -100 42 21 127 3 4 hhcurveto
          94 hlineto
          1 2 2 4 1 vhcurveto
          7 2 rlineto
          4 2 -6 13 hhcurveto
          4 hlineto
          45 3 rlineto
          1 27 30 2 24 hhcurveto
          19 32 17 108 21 117 rrcurveto
          5 45 250 3 vvcurveto
          -1 7 1 8 1 7 1 13 3 16 7 19 3 -15 rcurveline
          1 -2 0 -2 -1 -2 52 -302 -4 vvcurveto
          27 -117 15 -108 19 -32 rrcurveto
          35 63 -6 3 hhcurveto
          1 hlineto
          3 2 6 1 hhcurveto
          12 0 -3 -3 hvcurveto
          86 hlineto
          2 131 -3 18 hhcurveto
          45 -29 100 21 -3 hvcurveto
          -24 108 -26 115 -28 108 -125 419 rcurveline
          5 -5 8 -7 3 vhcurveto
          -13 hlineto
          -11 -9 -2 -12 hhcurveto
          -284 hlineto
          2 -98 2 -2 hhcurveto
          endchar
        </CharString>
        <CharString name="asciitilde">
          -239 472 -51 callgsubr
          361 hstemhm
          875 367 hintmask 01010000
          884 1044 rmoveto
          -13 -18 -4 -12 hvcurveto
          -19 22 -71 -49 vvcurveto
          -24 -13 -18 -40 -59 -30 71 37 -29 vhcurveto
          hintmask 00110000
          53 -43 -98 56 -91 hhcurveto
          -386 4 -286 -141 -96 5 69 263 -80 hvcurveto
          -1 1 1 0 2 36 -35 174 73 hhcurveto
          hintmask 10010000
          137 51 -231 250 hhcurveto
          205 158 176 120 5 hvcurveto
          11 1 8 11 vvcurveto
          117 -31 130 -34 vhcurveto
          -283 -1 rlineto
          endchar
        </CharString>
        <CharString name="asterisk">
          -407 374 -21 1068 -20 hstem
          447 290 vstem
          192 794 rmoveto
          -58 -40 -72 -34 35 -51 43 -67 22 -36 45 -66 12 -17 35 -6 16 11 184 122 rcurveline
          1 -36 1 -31 -16 -8 -9 -65 -8 vvcurveto
          -83 35 -5 61 vhcurveto
          51 24 -5 72 hhcurveto
          43 4 61 45 56 1 52 1 56 hvcurveto
          77 -48 7 -5 47 -44 8 -3 rlinecurve
          70 -46 22 26 35 51 27 43 18 18 40 58 24 35 -48 39 -38 24 -57 39 -55 37 -57 40 57 40 55 37 57 39 39 25 46 37 -23 36 -40 58 -18 18 -27 43 rrcurveto
          -35 51 -22 26 -70 -46 -8 -5 -46 -42 -8 -5 -15 -9 -25 -17 -31 -19 rrcurveto
          222 vlineto
          19 -24 26 -21 vhcurveto
          -80 -42 -2 -80 hhcurveto
          -60 9 -78 -71 hvcurveto
          -102 vlineto
          -61 40 -53 37 -63 41 -16 11 -35 -6 -12 -17 -45 -66 -22 -36 -43 -67 -35 -51 72 -34 58 -40 139 -93 rcurveline
          -139 -93 rlineto
          endchar
        </CharString>
        <CharString name="at">
          -369 274 183 453 143 2 -20 hstemhm
          97 407 175 417 hintmask 11011000
          1096 1013 rmoveto
          19 -21 21 -19 vhcurveto
          -135 -95 -3 -72 hhcurveto
          hintmask 10111000
          -68 -82 5 -96 hhcurveto
          -163 -248 -60 -289 -320 139 -112 211 64 85 12 142 83 hvcurveto
          3 6 -3 -60 -6 vvcurveto
          -72 30 -5 55 vhcurveto
          104 41 -5 138 hhcurveto
          37 3 52 42 hvcurveto
          93 9 4 203 vvcurveto
          -403 -31 rmoveto
          -1 -36 -5 -32 -9 -28 rrcurveto
          -49 -16 -29 -47 -61 hhcurveto
          -68 0 226 56 hvcurveto
          hintmask 11011000
          8 0 163 119 35 18 -67 -64 8 vhcurveto
          5 -38 3 -43 1 -49 rrcurveto
          endchar
        </CharString>
        <CharString name="atilde">
          54 19 -21 1266 16 callsubr
          -105 callgsubr
          162 953 -75 callgsubr
          hintmask 10010000
          -83 callsubr
          hintmask 11000000
          -85 callgsubr
        </CharString>
        <CharString name="b">
          -144 1 -21 28 -21 920 288 hstemhm
          hintmask 10100000
          117 900 rmoveto
          -189 7 -187 8 -191 vhcurveto
          3 -80 -20 -108 29 -78 13 -39 -3 14 23 -8 65 -29 rcurveline
          -29 116 116 4 131 hhcurveto
          hintmask 01100000
          3 8 7 3 hhcurveto
          16 57 3 3 13 hvcurveto
          39 3 179 19 34 5 27 8 120 49 25 10 51 17 41 12 41 37 25 19 58 63 3 6 6 12 rcurveline
          3 3 -1 20 8 vvcurveto
          180 -102 65 -151 64 vhcurveto
          -7 8 7 7 13 9 7 3 rlinecurve
          5 3 64 27 5 5 43 19 51 59 16 47 rrcurveto
          3 14 6 65 15 vvcurveto
          242 -298 29 -180 24 vhcurveto
          12 -108 -113 14 -108 hhcurveto
          -97 -100 -18 4 -96 hvcurveto
          -10 -7 -52 -42 -10 -10 -4 -3 -12 -15 -4 -3 rrcurveto
          -8 -82 1 -39 -80 vvcurveto
          648 -458 rmoveto
          65 52 -15 -8 71 hvcurveto
          8 -7 13 -1 12 -4 -15 -12 rcurveline
          -272 -127 rlineto
          -3 -3 1 -3 -4 -10 0 8 vhcurveto
          139 vlineto
          12 5 17 15 vhcurveto
          6 338 rmoveto
          69 -2 58 80 36 96 -16 -32 24 vhcurveto
          -21 -12 rlineto
          -2 -125 -58 -24 -51 hvcurveto
          -3 -14 -4 -3 hhcurveto
          -5 hlineto
          -12 2 10 9 hvcurveto
          endchar
        </CharString>
        <CharString name="backslash">
          -463 -2 -21 26 -21 29 -21 hstemhm
          hintmask 00100000
          333 408 rmoveto
          56 -191 43 -177 42 -50 rrcurveto
          hintmask 01000000
          47 81 -8 3 -53 callsubr
          hintmask 00100000
          17 3 8 11 hhcurveto
          9 -3 rlineto
          hintmask 01000000
          4 -3 5 -1 -1 vvcurveto
          232 hlineto
          hintmask 10000000
          -3 5 91 -2 16 hhcurveto
          68 -43 153 36 -8 hvcurveto
          -47 171 -52 186 -51 171 -217 668 rcurveline
          7 -22 11 4 vvcurveto
          -9 0 -2 -8 -41 -43 13 -47 -19 -13 -11 -19 hhcurveto
          17 -25 -71 -8 -37 hhcurveto
          -3 -10 -6 -4 vhcurveto
          -5 -31 9 -3 hhcurveto
          -15 -30 -4 -5 -7 hvcurveto
          -36 hlineto
          1 -1 -4 -2 -4 -1 -8 -2 rcurveline
          -18 6 rlineto
          -75 14 -139 -143 32 hvcurveto
          19 -54 18 -48 16 -42 rrcurveto
          27 -73 27 -71 -3 -4 129 -391 -8 vvcurveto
          endchar
        </CharString>
        <CharString name="bar">
          -773 -187 -21 hstem
          685 -16 callgsubr
          12 391 4 vvcurveto
          572 vlineto
          144 -21 9 -75 vhcurveto
          -11 -4 -11 -7 -11 11 rrcurveto
          16 -121 -24 -16 -23 -84 -71 -2 -84 hhcurveto
          -17 -18 2 -23 hvcurveto
          -819 vlineto
          -8 -164 0 -386 -164 vvcurveto
          -36 -5 -152 66 9 55 2 2 2 vhcurveto
          190 hlineto
          -10 callsubr
          5 3 vhcurveto
          8 3 rlineto
          11 6 -8 16 -53 callsubr
          2 107 8 61 hhcurveto
          25 50 -8 372 8 182 rrcurveto
          endchar
        </CharString>
        <CharString name="braceleft">
          34 callgsubr
          266 446 vstem
          712 1203 rmoveto
          45 32 39 55 11 vhcurveto
          39 8 39 -2 41 7 -31 304 rcurveline
          53 -80 -77 21 -71 hhcurveto
          -248 -145 -206 -295 -119 -94 -67 -116 -32 hvcurveto
          -6 -221 -3 -19 0 -18 -1 -17 rlinecurve
          -91 -3 3 -67 20 hhcurveto
          109 91 -98 -120 -301 145 -210 248 71 77 21 53 80 hvcurveto
          31 304 -41 7 -39 -2 -39 8 rlinecurve
          -55 11 -32 39 45 vvcurveto
          136 -40 139 -85 88 vhcurveto
          -51 51 -53 10 -68 30 67 27 58 8 47 47 rrcurveto
          88 88 37 144 141 vvcurveto
          endchar
        </CharString>
        <CharString name="braceright">
          34 callgsubr
          311 446 vstem
          311 1203 rmoveto
          -142 34 -142 81 -89 vhcurveto
          47 -47 57 -9 68 -26 -69 -29 -52 -11 -51 -51 rrcurveto
          -78 -89 -37 -138 -136 vvcurveto
          -45 -32 -39 -55 -11 vhcurveto
          -39 -8 -39 2 -41 -7 31 -304 rcurveline
          -53 80 77 -21 71 hhcurveto
          248 145 210 301 120 91 98 109 20 3 67 91 -3 hvcurveto
          -1 17 0 18 -3 19 -6 221 rcurveline
          -116 32 -94 67 119 vvcurveto
          295 -145 206 -248 -71 -77 -21 -53 -80 vhcurveto
          -31 -304 41 -7 39 2 39 -8 rlinecurve
          55 -11 32 -39 -45 vvcurveto
          endchar
        </CharString>
        <CharString name="bracketleft">
          -450 -96 321 953 342 hstem
          125 575 rmoveto
          -210 vlineto
          -78 -8 -132 -83 -22 6 -121 -3 vvcurveto
          10 -10 rlineto
          3 33 28 1 29 77 63 -16 77 197 133 4 104 hhcurveto
          19 123 12 12 hvcurveto
          267 vlineto
          8 -25 18 -16 vhcurveto
          -56 -44 4 -56 hhcurveto
          -20 -8 0 11 -23 hvcurveto
          -21 69 -2 87 83 27 -2 -47 196 4 -10 36 16 6 10 33 2 196 2 -47 27 vvcurveto
          83 2 87 21 69 vhcurveto
          11 23 8 0 20 hhcurveto
          56 48 0 -17 52 hvcurveto
          19 4 22 24 19 vvcurveto
          267 vlineto
          14 -123 31 -19 vhcurveto
          -213 -25 -7 -196 -79 -59 -6 -79 hhcurveto
          -29 -28 1 3 -33 hvcurveto
          -10 -10 rlineto
          -2 -6 -141 -23 -84 8 -132 -77 vvcurveto
          -100 vlineto
          endchar
        </CharString>
        <CharString name="bracketright">
          -450 -96 305 969 329 13 -20 hstemhm
          hintmask 11000000
          1007 942 rmoveto
          104 9 152 137 23 -7 141 2 vvcurveto
          -10 10 rlineto
          -3 -33 -28 -1 -29 hhcurveto
          hintmask 10100000
          -384 -6 13 -261 hhcurveto
          -19 -122 -31 -14 hvcurveto
          -267 vlineto
          hintmask 11000000
          -19 22 -11 19 vhcurveto
          165 hlineto
          57 18 21 -56 -3 hvcurveto
          -7 -76 -6 -80 7 -92 rrcurveto
          -5 10 -31 -5 -59 -10 -122 -18 vvcurveto
          -173 22 -273 -98 -63 -133 -4 -6 vhcurveto
          -267 vlineto
          -30 267 2 308 vhcurveto
          101 81 12 115 hhcurveto
          10 hlineto
          3 3 14 91 62 172 -9 128 203 vvcurveto
          endchar
        </CharString>
        <CharString name="breve">
          -389 1292 -25 callsubr
          hstem
          91 -10 callgsubr
          754 1867 -96 callgsubr
        </CharString>
        <CharString name="brokenbar">
          -845 -335 -21 hstem
          124 505 vstem
          618 159 rmoveto
          32 11 88 49 vvcurveto
          128 -19 7 -66 vhcurveto
          -178 hlineto
          -75 -61 -1 -75 hhcurveto
          -15 -16 0 -19 hvcurveto
          -81 vlineto
          -4 -128 -3 -296 -128 vvcurveto
          -31 3 -9 -135 60 109 196 4 -35 8 93 7 54 hhcurveto
          11 19 5 127 3 121 rrcurveto
          2 71 1 79 87 vvcurveto
          1024 vmoveto
          43 11 113 64 vvcurveto
          128 -19 7 -66 vhcurveto
          -11 -4 -7 -5 -11 9 rrcurveto
          16 -107 -22 -16 -20 -75 -61 -2 -75 hhcurveto
          -15 -16 1 -19 hvcurveto
          -82 vlineto
          -4 -129 -3 -293 -129 vvcurveto
          -32 3 -9 -134 60 9 46 3 3 hhcurveto
          168 hlineto
          0 2 1 5 3 vhcurveto
          8 3 rlineto
          9 5 -7 15 hhcurveto
          5 hlineto
          3 92 7 55 hhcurveto
          11 19 5 112 3 109 rrcurveto
          2 64 1 71 79 vvcurveto
          endchar
        </CharString>
        <CharString name="bullet">
          -557 214 -21 790 -20 hstem
          407 197 rmoveto
          3 8 2 8 19 17 -6 19 15 19 6 3 8 17 -6 16 hhcurveto
          108 119 33 93 64 hvcurveto
          8 5 rlineto
          3 12 23 11 7 hvcurveto
          37 68 19 78 80 vvcurveto
          135 -37 117 -115 77 vhcurveto
          -16 -10 16 11 -13 hvcurveto
          19 -35 -53 14 -43 hhcurveto
          -20 hlineto
          -4 6 rlineto
          -4 -5 -6 -4 -23 -23 8 -23 -3 -5 -2 -3 -3 0 2 -3 -8 -6 -2 -8 hhcurveto
          4 vlineto
          -21 -10 -4 -27 hhcurveto
          4 -3 -4 0 -3 hhcurveto
          -11 3 -7 -3 -12 hvcurveto
          -29 -81 -21 -32 -32 hvcurveto
          -11 -8 -39 -70 -11 6 -12 -31 -21 -20 -12 -31 rrcurveto
          2 vlineto
          -21 -17 -113 -32 -3 hvcurveto
          -3 -2 -35 -14 vvcurveto
          -102 41 -156 108 -63 vhcurveto
          -27 43 2 -4 15 hhcurveto
          8 hlineto
          -3 11 -1 -5 17 hhcurveto
          4 2 rlineto
          1 3 2 1 1 hhcurveto
          -3 11 5 -9 17 hhcurveto
          3 4 0 4 7 hvcurveto
          2 -1 2 -2 3 -1 9 -6 rcurveline
          endchar
        </CharString>
        <CharString name="c">
          -15 callsubr
          hstem
          -85 callsubr
          endchar
        </CharString>
        <CharString name="cacute">
          -15 callsubr
          919 -20 hstem
          -85 callsubr
          13 1004 -89 callsubr
          endchar
        </CharString>
        <CharString name="caron">
          -301 1332 -21 735 -20 hstem
          760 1858 -104 callgsubr
        </CharString>
        <CharString name="ccaron">
          -15 callsubr
          817 -20 hstem
          -85 callsubr
          47 1285 -104 callgsubr
        </CharString>
        <CharString name="ccedilla">
          -382 -672 1 callgsubr
          -85 334 618 326 hstemhm
          707 358 hintmask 10111000
          -85 callsubr
          -191 -812 rmoveto
          hintmask 11011000
          -87 callgsubr
          endchar
        </CharString>
        <CharString name="ccircumflex">
          -15 callsubr
          817 -20 hstem
          -85 callsubr
          47 920 rmoveto
          -53 43 69 -133 29 hhcurveto
          23 32 1 -3 64 hvcurveto
          41 2 rlineto
          20 hlineto
          31 35 -2 28 hhcurveto
          23 8 20 21 hvcurveto
          11 -2 7 8 vvcurveto
          -56 224 -132 214 -109 197 -47 27 rcurveline
          -61 6 rlineto
          -69 2 -1 5 -54 hvcurveto
          -76 2 rlineto
          -121 hlineto
          -94 -23 -14 -16 -52 -83 -34 -72 -41 -80 rlinecurve
          -51 -133 -92 -134 -27 -133 rrcurveto
          -3 -8 1 -7 -11 vvcurveto
          -21 7 -20 23 vhcurveto
          37 43 2 35 hhcurveto
          61 hlineto
          9 6 10 -8 rlineto
          3 24 33 -1 23 hhcurveto
          29 65 88 88 59 hvcurveto
          34 51 36 59 39 66 35 -53 37 -60 47 -53 rrcurveto
          endchar
        </CharString>
        <CharString name="cdotaccent">
          -15 callsubr
          78 31 callgsubr
          hintmask 11100000
          -85 callsubr
          193 1180 -72 callsubr
          hhcurveto
          hintmask 11010000
          -81 callsubr
          hintmask 11100000
          -94 callgsubr
        </CharString>
        <CharString name="cedilla">
          -773 -672 1 callgsubr
          hstem
          395 358 vstem
          180 -239 -51 callsubr
          endchar
        </CharString>
        <CharString name="cent">
          -371 1536 -20 hstemhm
          727 379 -296 153 hintmask 10100000
          885 -16 callgsubr
          44 391 4 vvcurveto
          1 2 34 5 52 vhcurveto
          60 -7 64 -15 59 -12 28 232 rcurveline
          -64 31 -64 26 -63 20 15 210 rcurveline
          144 11 -26 9 -91 hhcurveto
          -2 vlineto
          -21 -22 2 -23 -1 hvcurveto
          -22 -296 rlineto
          8 -56 -59 4 -53 hhcurveto
          -333 -261 -245 -435 -542 346 -52 313 -4 hvcurveto
          -11 -159 rlineto
          -17 49 -18 76 47 vhcurveto
          11 19 11 63 11 83 101 24 100 45 72 60 -20 291 rcurveline
          -75 -44 -79 -39 -69 -15 7 43 -2 41 7 33 rrcurveto
          -250 165 rmoveto
          178 55 85 83 40 vhcurveto
          -23 -182 rlineto
          hintmask 11000000
          -7 -84 -9 -136 -7 -140 rrcurveto
          -57 44 -35 74 121 vvcurveto
          endchar
        </CharString>
        <CharString name="circumflex">
          -301 1326 -21 741 -20 hstem
          761 1493 rmoveto
          -53 43 69 -133 29 hhcurveto
          23 32 1 -3 64 hvcurveto
          41 2 rlineto
          20 hlineto
          31 35 -2 28 hhcurveto
          23 8 20 21 hvcurveto
          11 -2 7 8 vvcurveto
          -56 224 -132 214 -109 197 -47 27 rcurveline
          -61 6 rlineto
          -69 2 -1 5 -54 hvcurveto
          -76 2 rlineto
          -121 hlineto
          -94 -23 -14 -16 -52 -83 -34 -72 -41 -80 rlinecurve
          -51 -133 -92 -134 -27 -133 rrcurveto
          -3 -8 1 -7 -11 vvcurveto
          -21 7 -20 23 vhcurveto
          37 43 2 35 hhcurveto
          61 hlineto
          9 6 10 -8 rlineto
          3 24 33 -1 23 hhcurveto
          29 65 88 88 59 hvcurveto
          34 51 36 59 39 66 35 -53 37 -60 47 -53 rrcurveto
          endchar
        </CharString>
        <CharString name="colon">
          -799 -4 471 -448 -21 637 471 hstemhm
          hintmask 10100000
          669 664 -60 callgsubr
          -639 vmoveto
          -5 77 16 -41 -13 117 rrcurveto
          45 -1 148 -20 20 vhcurveto
          38 -11 6 -48 16 vhcurveto
          -4 -6 -2 -5 hhcurveto
          -14 4 -49 8 callsubr
          -9 4 rlinecurve
          -12 -3 -20 3 -9 -30 callgsubr
          -12 -14 -17 callgsubr
          hintmask 01100000
          3 -43 76 13 36 3 rrcurveto
          hintmask 10100000
          55 1 59 -2 88 -1 rrcurveto
          hintmask 01100000
          -3 13 65 5 15 hhcurveto
          59 80 -17 44 -8 hvcurveto
          endchar
        </CharString>
        <CharString name="comma">
          -69 callgsubr
        </CharString>
        <CharString name="commaaccent">
          -746 -933 -21 hstem
          523 -908 -104 callsubr
          endchar
        </CharString>
        <CharString name="copyright">
          547 -286 262 116 302 558 294 98 271 hstem
          84 300 1371 290 vstem
          1108 654 rmoveto
          241 81 57 100 64 66 -20 -16 63 vhcurveto
          25 210 rlineto
          80 -137 -137 40 -129 hhcurveto
          -301 -235 -222 -392 -498 307 -42 268 107 146 50 83 83 hvcurveto
          -18 263 rlineto
          -51 -75 -78 -43 -64 hhcurveto
          -80 -56 66 194 hvcurveto
          647 21 -53 callgsubr
          endchar
        </CharString>
        <CharString name="currency">
          -360 356 297 390 271 hstem
          96 332 vstem
          572 356 rmoveto
          99 111 2 37 96 hvcurveto
          50 -61 19 -25 15 -29 32 24 rlinecurve
          34 26 17 10 32 24 12 8 6 21 -7 7 -27 32 -25 32 -27 32 10 14 rcurveline
          77 97 30 114 109 vvcurveto
          147 -38 101 -87 87 vhcurveto
          23 27 20 26 15 19 9 11 8 11 8 9 29 35 -16 16 -31 27 -17 15 -4 11 -25 23 -22 20 -28 -31 -24 -27 -27 -35 -24 -29 -23 -29 rrcurveto
          45 -77 -80 5 -147 hhcurveto
          -4 -6 1 -3 -3 hvcurveto
          3 -17 -20 0 -17 hhcurveto
          -49 -44 -10 -19 -43 hvcurveto
          -23 27 -22 27 -24 31 -21 27 -28 33 -24 -19 -25 -21 -5 -12 -17 -15 -32 -24 -18 -18 29 -35 24 -30 rcurveline
          15 -19 19 -24 21 -25 rrcurveto
          -88 -100 -50 -140 -133 vvcurveto
          -86 36 -121 88 -85 vhcurveto
          -106 -105 -7 -7 6 -20 11 -9 rlinecurve
          31 -26 17 -10 33 -27 29 -27 20 31 18 23 78 75 rcurveline
          73 -52 74 -15 75 1 rrcurveto
          -143 453 rmoveto
          -1 11 0 7 8 vvcurveto
          173 102 35 58 214 -5 -195 4 -30 -25 -169 -184 -139 -20 152 4 vhcurveto
          endchar
        </CharString>
        <CharString name="d">
          -45 20 -21 1016 168 -66 callgsubr
          endchar
        </CharString>
        <CharString name="dagger">
          -534 21 -21 678 303 hstem
          304 426 vstem
          46 887 rmoveto
          -15 callgsubr
          242 hlineto
          -4 -159 3 -172 -3 -159 rrcurveto
          -36 -5 -152 58 18 94 2 2 5 vhcurveto
          94 hlineto
          1 2 1 5 3 vhcurveto
          7 3 rlineto
          11 3 -29 callsubr
          2 60 8 32 hhcurveto
          23 46 -5 173 5 179 rrcurveto
          3 1 146 5 113 vhcurveto
          139 hlineto
          25 3 109 -8 44 vvcurveto
          14 -3 66 -2 4 -16 callsubr
          100 vlineto
          144 -20 139 -64 vhcurveto
          -48 callgsubr
          -350 -61 vlineto
          -101 -98 -14 -47 hvcurveto
          4 -8 rlineto
          -3 25 callsubr
          endchar
        </CharString>
        <CharString name="daggerdbl">
          -499 21 -21 285 313 203 303 hstem
          323 420 vstem
          63 1010 rmoveto
          -15 callgsubr
          244 -107 hlineto
          -3 -32 1 -31 -33 vvcurveto
          -59 hlineto
          1 callsubr
          -22 vlineto
          -15 callgsubr
          238 -97 hlineto
          -36 -5 -152 58 18 94 2 2 5 vhcurveto
          94 hlineto
          1 2 1 5 3 vhcurveto
          7 3 rlineto
          11 3 -29 callsubr
          2 60 8 32 hhcurveto
          16 38 0 103 3 126 rrcurveto
          149 hlineto
          25 3 109 -8 43 vvcurveto
          15 -3 65 -2 4 vhcurveto
          70 vlineto
          -4 8 rlineto
          8 4 4 11 vvcurveto
          4 vlineto
          -2 25 rlineto
          -1 15 -1 17 12 vvcurveto
          -37 13 -108 -3 -121 3 3 86 0 88 3 33 rrcurveto
          135 hlineto
          25 3 109 -8 44 vvcurveto
          13 -3 66 -2 5 -16 callsubr
          136 -3 -20 124 -61 hhcurveto
          -48 callgsubr
          -227 -61 vlineto
          1 callsubr
          endchar
        </CharString>
        <CharString name="dcaron">
          -45 20 -21 1016 168 863 -20 -66 callgsubr
          120 1626 -104 callgsubr
        </CharString>
        <CharString name="degree">
          -491 549 -22 callgsubr
          90 295 hintmask 10110000
          512 549 -76 callgsubr
          hintmask 11010000
          -84 callgsubr
        </CharString>
        <CharString name="dieresis">
          -236 1378 -23 callgsubr
          589 163 0 476 hintmask 10100000
          558 1735 -47 callsubr
          hintmask 01100000
          21 callgsubr
          hintmask 10100000
          -100 callsubr
          hintmask 01100000
          -24 callgsubr
          hintmask 10010000
          -99 callgsubr
          endchar
        </CharString>
        <CharString name="divide">
          -545 29 402 82 326 82 402 hstem
          cntrmask 11100000
          744 946 10 callsubr
          34 -8 4 -42 13 vhcurveto
          -3 -5 -2 -5 hhcurveto
          -12 4 -50 callsubr
          24 -892 10 callsubr
          33 -9 4 -41 15 vhcurveto
          -3 -5 -2 -5 hhcurveto
          -12 3 -50 callsubr
          -52 463 rmoveto
          70 44 -4 109 hhcurveto
          48 2 54 40 hvcurveto
          97 -5 -16 100 vvcurveto
          40 -66 3 -48 vhcurveto
          -53 -433 8 -53 hhcurveto
          -232 hlineto
          -20 -29 -21 -20 hvcurveto
          -90 2 -51 -92 vvcurveto
          -52 85 7 76 vhcurveto
          209 hlineto
          14 266 -3 14 hhcurveto
          endchar
        </CharString>
        <CharString name="dollar">
          -271 -184 -21 156 412 675 383 209 -20 hstemhm
          81 434 -227 227 -156 230 97 228 -107 214 -214 434 hintmask 1111100001000000
          1241 416 rmoveto
          345 -627 183 29 vvcurveto
          47 73 18 90 vhcurveto
          112 135 -45 76 hhcurveto
          45 -4 80 45 75 -12 71 -5 73 hvcurveto
          -3 2 -2 -3 hhcurveto
          -13 3 -7 25 -15 3 rrcurveto
          hintmask 1111010100000000
          -47 8 -55 25 -69 12 rrcurveto
          111 -5 -12 94 -9 hhcurveto
          -2 -2 rlineto
          -1 -3 -2 -1 -3 -58 -31 18 -57 hhcurveto
          -21 -24 -26 -9 hvcurveto
          -12 vlineto
          -2 -160 -170 -4 rlineto
          108 -5 -11 89 -11 hhcurveto
          -3 -3 rlineto
          -2 -2 -2 -1 -1 hhcurveto
          -7 -16 2 12 -20 hvcurveto
          -3 1 -1 -11 vhcurveto
          -8 -44 10 -42 hhcurveto
          -31 -14 -26 -21 hvcurveto
          -205 vlineto
          hintmask 1111100010000000
          -114 -56 -93 -127 -249 vvcurveto
          -326 329 -96 237 -120 vhcurveto
          -37 -16 -54 -4 -49 hhcurveto
          -99 -138 81 5 -146 hvcurveto
          -16 -11 -23 -20 hvcurveto
          4 -117 25 -108 39 -105 rrcurveto
          hintmask 1111001010000000
          43 -51 66 -35 64 -21 rrcurveto
          -100 0 -74 23 7 64 2 2 5 vhcurveto
          hintmask 1111100010000000
          57 hlineto
          3 0 2 1 2 vhcurveto
          2 0 2 1 2 vhcurveto
          7 0 -13 7 hhcurveto
          56 13 4 139 rlineto
          67 76 2 4 67 hvcurveto
          12 -162 205 17 6 192 rlineto
          hintmask 1111100001000000
          128 69 89 124 219 vvcurveto
          endchar
        </CharString>
        <CharString name="dotaccent">
          -818 1307 31 callgsubr
          hintmask 10000000
          649 1753 -72 callsubr
          hhcurveto
          hintmask 01000000
          -81 callsubr
          hintmask 10000000
          -94 callgsubr
        </CharString>
        <CharString name="dotlessi">
          -740 -31 callgsubr
          1147 -20 hstemhm
          hintmask 11010000
          -101 callgsubr
          hintmask 10110000
          -68 callsubr
          endchar
        </CharString>
        <CharString name="dslash">
          -45 20 -21 1004 180 hstem
          674 -1 rmoveto
          573 197 176 479 434 -295 95 -191 hvcurveto
          -175 -141 -6 -128 -83 -110 4 -157 hhcurveto
          -21 -24 -25 -20 hvcurveto
          -325 vlineto
          -1 -20 -21 0 -22 hhcurveto
          -25 -31 -26 -21 hvcurveto
          -106 3 -50 -111 vvcurveto
          -44 55 -9 62 vhcurveto
          1 hlineto
          2 -61 rlineto
          2 -117 2 -101 -54 vvcurveto
          -46 4 -61 43 vhcurveto
          201 147 -4 152 hhcurveto
          -28 233 rmoveto
          5 75 4 72 4 71 rrcurveto
          22 18 2 4 13 hvcurveto
          47 14 2 30 49 77 6 28 108 vvcurveto
          31 -42 13 -44 2 vhcurveto
          -2 -2 0 1 -1 hvcurveto
          2 84 rlineto
          1 35 1 31 27 vvcurveto
          7 3 8 2 11 3 rrcurveto
          4 19 23 5 35 hhcurveto
          135 2 -294 -23 -153 -60 -240 -77 -48 hvcurveto
          -19 -9 -30 -3 -32 -1 -18 -1 -19 0 -19 1 rrcurveto
          endchar
        </CharString>
        <CharString name="e">
          -20 callgsubr
          8 -20 hstemhm
          hintmask 11100000
          -106 callgsubr
          hintmask 11010000
          -91 callsubr
          endchar
        </CharString>
        <CharString name="eacute">
          -34 callgsubr
          966 -20 hstem
          -106 callgsubr
          -91 callsubr
          635 879 -89 callsubr
          endchar
        </CharString>
        <CharString name="ebreve">
          -20 callgsubr
          110 -25 callsubr
          hstem
          141 -10 callgsubr
          -106 callgsubr
          -91 callsubr
          688 1169 -96 callgsubr
        </CharString>
        <CharString name="ecaron">
          -20 callgsubr
          864 -20 hstem
          -106 callgsubr
          -91 callsubr
          651 1160 -104 callgsubr
        </CharString>
        <CharString name="ecircumflex">
          -34 callgsubr
          864 -20 hstem
          -106 callgsubr
          -91 callsubr
          662 795 rmoveto
          -53 43 69 -133 29 hhcurveto
          23 32 1 -3 64 hvcurveto
          41 2 rlineto
          20 hlineto
          31 35 -2 28 hhcurveto
          23 8 20 21 hvcurveto
          11 -2 7 8 vvcurveto
          -56 224 -132 214 -109 197 -47 27 rcurveline
          -61 6 rlineto
          -69 2 -1 5 -54 hvcurveto
          -76 2 rlineto
          -121 hlineto
          -94 -23 -14 -16 -52 -83 -34 -72 -41 -80 rlinecurve
          -51 -133 -92 -134 -27 -133 rrcurveto
          -3 -8 1 -7 -11 vvcurveto
          -21 7 -20 23 vhcurveto
          37 43 2 35 hhcurveto
          61 hlineto
          9 6 10 -8 rlineto
          3 24 33 -1 23 hhcurveto
          29 65 88 88 59 hvcurveto
          34 51 36 59 39 66 35 -53 37 -60 47 -53 rrcurveto
          endchar
        </CharString>
        <CharString name="edieresis">
          -34 callgsubr
          196 -23 callgsubr
          116 473 163 476 hintmask 11110110
          -106 callgsubr
          -91 callsubr
          442 1037 -47 callsubr
          hintmask 11101110
          21 callgsubr
          hintmask 11110110
          -100 callsubr
          hintmask 11101110
          -24 callgsubr
          hintmask 11110110
          -99 callgsubr
          endchar
        </CharString>
        <CharString name="edotaccent">
          -20 callgsubr
          125 31 callgsubr
          hintmask 11110000
          -106 callgsubr
          -91 callsubr
          799 1055 -72 callsubr
          hhcurveto
          hintmask 11101000
          -81 callsubr
          hintmask 11110000
          -94 callgsubr
        </CharString>
        <CharString name="egrave">
          -34 callgsubr
          966 -20 hstem
          -106 callgsubr
          -91 callsubr
          443 858 rmoveto
          -102 callgsubr
        </CharString>
        <CharString name="eight">
          -63 -22 220 348 161 hstem
          99 383 rmoveto
          -121 12 -88 97 -62 vhcurveto
          12 -9 25 -9 15 -8 87 -51 98 -29 117 -15 rrcurveto
          -9 72 72 -4 73 hhcurveto
          45 44 1 3 43 hvcurveto
          27 3 27 7 27 3 29 4 28 -3 27 7 20 4 19 5 19 5 49 15 44 17 39 24 72 44 54 62 24 89 rrcurveto
          9 35 5 39 41 vvcurveto
          116 -61 87 -103 60 vhcurveto
          70 46 35 101 77 vvcurveto
          57 -19 64 -29 52 vhcurveto
          -25 39 -64 52 -96 37 rrcurveto
          48 -79 -129 13 -107 hhcurveto
          -172 -189 17 -75 -147 hvcurveto
          -29 -12 -31 -24 -24 -19 -23 -19 -19 -9 -17 -23 rrcurveto
          -41 -57 -23 -69 -76 vvcurveto
          -77 42 -97 70 -46 vhcurveto
          -102 -62 -19 -85 -116 vvcurveto
          676 163 rmoveto
          45 32 -44 -105 -180 -34 -19 -44 -51 -39 17 182 105 25 44 32 hvcurveto
          2 461 rmoveto
          39 -5 47 -9 -144 vvcurveto
          -117 -32 -25 -52 -48 -40 14 128 157 56 -2 30 3 vhcurveto
          endchar
        </CharString>
        <CharString name="ellipsis">
          748 -49 471 -448 20 callgsubr
          677 -20 rmoveto
          -67 callsubr
          -14 6 rcurveline
          -71 callgsubr
          764 hmoveto
          -67 callsubr
          rrcurveto
          hintmask 10000000
          -14 6 rlineto
          -71 callgsubr
          764 hmoveto
          -67 callsubr
          rrcurveto
          hintmask 10000000
          -14 6 rlineto
          -71 callgsubr
          endchar
        </CharString>
        <CharString name="emacron">
          -20 callgsubr
          268 376 hstem
          -106 callgsubr
          -91 callsubr
          694 757 -94 callsubr
        </CharString>
        <CharString name="emdash">
          -457 402 410 -393 20 callgsubr
          295 812 -13 callgsubr
          92 68 -2 83 hhcurveto
          53 72 15 callsubr
          -14 3 rlineto
          hintmask 10000000
          3 -8 -8 1 -3 hhcurveto
          -102 hlineto
          endchar
        </CharString>
        <CharString name="endash">
          -57 callgsubr
        </CharString>
        <CharString name="eng">
          -23 31 callsubr
          hstemhm
          hintmask 01000000
          1339 -328 rmoveto
          88 83 5 137 111 8 6 138 2 vvcurveto
          258 vlineto
          13 -1 13 13 139 5 344 40 -95 callgsubr
          hintmask 10000000
          -78 callsubr
          169 -238 rlineto
          -104 -4 -51 -32 vvcurveto
          -27 -8 -11 -77 -44 hhcurveto
          -52 -3 -27 10 -54 20 rrcurveto
          -3 8 -7 -65 -22 vvcurveto
          -5 -39 -7 -48 3 -14 64 -28 rcurveline
          93 -32 97 -8 100 11 34 5 34 8 34 11 59 19 71 31 60 56 rrcurveto
          endchar
        </CharString>
        <CharString name="eogonek">
          -288 32 callgsubr
          336 260 201 236 196 281 8 -20 hstemhm
          449 420 hintmask 11110100
          -106 callgsubr
          hintmask 11101100
          -91 callsubr
          960 -677 -95 callsubr
          rrcurveto
          endchar
        </CharString>
        <CharString name="equal">
          -491 275 299 138 298 7 -20 hstemhm
          hintmask 11000000
          691 712 4 callgsubr
          49 7 23 72 vvcurveto
          46 -33 3 -27 vhcurveto
          hintmask 10100000
          -111 -75 7 -115 hhcurveto
          -223 hlineto
          hintmask 11000000
          -96 -79 -7 -88 hhcurveto
          -7 -9 -26 -21 -14 callsubr
          522 -437 4 callgsubr
          53 7 20 72 vvcurveto
          46 -33 3 -27 vhcurveto
          -111 -75 6 -115 hhcurveto
          -223 hlineto
          -96 -79 -6 -88 hhcurveto
          -7 -9 -25 -23 -14 callsubr
          endchar
        </CharString>
        <CharString name="eth">
          8 -24 340 192 319 271 365 hstem
          79 504 vstem
          796 963 rmoveto
          32 -72 -1 -83 3 -46 rrcurveto
          45 -87 -83 20 -77 hhcurveto
          -133 -116 -23 -45 -98 hvcurveto
          -97 -57 -60 -101 -129 vvcurveto
          -331 318 -165 341 353 376 230 476 116 -7 102 -35 92 vhcurveto
          -35 88 -55 78 -64 65 116 61 rcurveline
          11 5 25 16 24 15 45 27 rcurveline
          13 7 -13 26 -24 47 -11 21 0 13 -16 31 -12 20 -63 -32 -48 -24 -37 -18 -92 -48 -81 -40 rrcurveto
          75 -131 -154 38 -177 hhcurveto
          -105 -110 -22 -45 -114 hvcurveto
          -47 -19 -50 -16 -43 -31 -22 -17 -63 11 62 -142 50 -140 3 -39 88 21 rrcurveto
          39 84 97 35 104 hhcurveto
          19 19 -2 -3 19 hvcurveto
          -35 -20 -30 -18 -35 -19 -5 -3 -1 -15 4 -9 24 -47 15 -19 24 -49 16 -33 63 40 56 30 rrcurveto
          -34 -615 rmoveto
          -67 -49 31 77 63 45 21 57 43 42 -9 -9 32 hvcurveto
          19 -5 17 -6 17 -7 rrcurveto
          -113 -28 -57 -43 -71 hhcurveto
          endchar
        </CharString>
        <CharString name="exclam">
          -741 -45 383 1042 -20 hstem
          176 481 vstem
          651 295 rmoveto
          33 -98 10 -74 vhcurveto
          -80 hlineto
          -48 -91 -2 -43 hhcurveto
          -20 -20 -23 -12 3 hvcurveto
          -64 -8 54 4 -131 vhcurveto
          6 -178 rlineto
          -23 280 5 3 -3 vhcurveto
          -7 43 28 1 41 hhcurveto
          77 6 3 135 -3 hvcurveto
          -3 79 -3 34 89 vvcurveto
          -508 547 rmoveto
          5 -32 19 -160 5 -32 3 -17 7 -93 10 -16 rrcurveto
          -8 13 108 -9 19 hhcurveto
          139 141 -2 29 8 hvcurveto
          21 101 28 100 71 vvcurveto
          2 7 6 68 5 7 51 299 rcurveline
          16 49 6 52 51 vvcurveto
          49 -55 6 -31 18 vhcurveto
          -344 hlineto
          -31 -16 -214 12 8 -37 rrcurveto
          11 -32 3 -25 -29 -50 27 -129 -46 vvcurveto
          -8 9 -148 5 -30 vhcurveto
          endchar
        </CharString>
        <CharString name="exclamdown">
          -762 -26 -21 1044 381 hstem
          179 472 vstem
          651 1038 rmoveto
          89 3 34 3 79 vhcurveto
          135 3 -6 3 -77 hhcurveto
          -41 -28 1 -7 -43 hvcurveto
          -3 -3 -280 5 -23 vvcurveto
          -6 -178 rlineto
          -4 -131 8 54 -64 vvcurveto
          -12 -3 20 -23 20 43 91 -2 48 hhcurveto
          80 hlineto
          74 98 10 33 hvcurveto
          -508 -547 rmoveto
          -5 -30 -9 -148 -8 -46 -27 -129 -50 vvcurveto
          -29 -3 -25 -11 -32 vhcurveto
          -8 -37 214 12 31 -16 rrcurveto
          344 hlineto
          31 18 55 6 49 vvcurveto
          51 -6 52 -16 49 vhcurveto
          -51 299 -5 7 -6 68 -2 7 rlinecurve
          71 -28 100 -21 101 vhcurveto
          29 -8 -141 -2 -139 hhcurveto
          -19 -108 -9 -8 -13 hvcurveto
          -10 -16 -7 -93 -3 -17 -5 -32 -19 -160 -5 -32 rrcurveto
          endchar
        </CharString>
        <CharString name="f">
          -361 13 -21 23 -8 callgsubr
          hintmask 10011000
          -45 callgsubr
          hintmask 01011000
          -1 callsubr
          hintmask 00111000
          3 3 8 3 3 hhcurveto
          hintmask 01011000
          11 3 -9 3 21 hvcurveto
          hintmask 00111000
          -89 callgsubr
          hintmask 10010100
          -3 callsubr
          hhcurveto
          hintmask 10011000
          -66 callsubr
          endchar
        </CharString>
        <CharString name="fi">
          450 -6 -21 40 -21 23 -21 23 -21 23 -43 callgsubr
          358 310 223 289 20 -20 22 -20 hstemhm
          hintmask 0100001101000000
          -45 callgsubr
          hintmask 0010001101000000
          -1 callsubr
          hintmask 1000011101000000
          3 3 8 3 3 hhcurveto
          11 3 -9 3 21 hvcurveto
          -89 callgsubr
          -3 callsubr
          -66 callsubr
          1052 -79 rmoveto
          399 vlineto
          104 10 48 3 8 vhcurveto
          -4 352 rlineto
          -152 hlineto
          hintmask 0100001010000000
          1 -4 -18 5 -7 -1 -29 -6 -4 hhcurveto
          -3 -9 3 3 -3 hvcurveto
          -90 hlineto
          -8 -6 rlineto
          hintmask 1001001101000000
          -64 callsubr
          hintmask 1000101101000000
          -68 callsubr
          endchar
        </CharString>
        <CharString name="five">
          -378 -59 358 604 289 8 -20 hstemhm
          hintmask 11000000
          1109 403 rmoveto
          36 -9 55 -16 32 vhcurveto
          10 callgsubr
          -41 12 -55 8 -57 7 rrcurveto
          5 88 15 38 11 vvcurveto
          14 8 rlineto
          -3 8 30 1 27 60 0 8 53 hhcurveto
          22 hlineto
          28 64 -6 31 128 -12 128 -34 hvcurveto
          -6 -42 -6 -6 hhcurveto
          -3 -9 3 3 -3 hvcurveto
          -323 hlineto
          3 -4 -17 3 -7 -2 -30 0 callgsubr
          -90 hlineto
          -8 -6 rlineto
          hintmask 10100000
          -3 callsubr
          hhcurveto
          hintmask 11000000
          -7 -2 29 callgsubr
          -8 -13 -4 vvcurveto
          -294 vlineto
          -88 10 -37 -11 vvcurveto
          1 -51 rlineto
          -1 -1 0 -20 -23 vvcurveto
          -13 0 -14 -1 -17 vhcurveto
          -2 -34 7 -82 rlineto
          5 80 66 2 72 8 callgsubr
          -6 -82 -4 -57 3 -73 -13 -69 -13 callsubr
          116 254 vvcurveto
          endchar
        </CharString>
        <CharString name="fl">
          766 -8 430 -413 -21 27 -8 callgsubr
          hintmask 10000100
          -45 callgsubr
          hintmask 00101100
          -1 callsubr
          hintmask 00011100
          3 3 8 3 3 hhcurveto
          hintmask 00101100
          11 3 -9 3 21 hvcurveto
          hintmask 00011100
          -89 callgsubr
          hintmask 10000010
          -3 callsubr
          hhcurveto
          hintmask 00011100
          -66 callsubr
          447 68 -70 callsubr
          hintmask 00101100
          18 206 -14 40 hhcurveto
          hintmask 01001100
          -3 8 39 -3 8 hhcurveto
          hintmask 00101100
          -62 callgsubr
          hintmask 10000010
          -83 callgsubr
          endchar
        </CharString>
        <CharString name="florin">
          -333 -449 287 634 276 391 281 hstem
          277 162 rmoveto
          -3 -66 1 -38 callgsubr
          3 69 vhcurveto
          1 41 2 42 2 45 rrcurveto
          -1 17 17 0 17 hhcurveto
          -1 28 35 0 24 hhcurveto
          27 64 -10 37 29 hvcurveto
          59 2 39 61 vvcurveto
          31 -3 32 -13 23 vhcurveto
          3 -22 -81 3 -50 hhcurveto
          -77 hlineto
          -13 113 7 104 4 vvcurveto
          199 -27 64 -29 187 -28 callsubr
          -260 -5 vlineto
          -50 -81 -3 -3 -22 hvcurveto
          -13 -23 -3 -32 -31 -61 2 -39 -59 vvcurveto
          -23 28 65 6 27 hhcurveto
          15 18 -1 -1 19 hvcurveto
          -1 -111 0 -102 -103 vvcurveto
          endchar
        </CharString>
        <CharString name="four">
          -93 -88 -21 218 376 785 -20 hstem
          733 467 vstem
          440 1266 rmoveto
          -12 -9 -14 -10 -9 -8 -101 -181 -163 -411 2 2 rrcurveto
          -80 -285 4 48 -262 vvcurveto
          -12 13 -26 80 -3 vhcurveto
          5 212 177 1 196 hhcurveto
          9 hlineto
          4 -76 rlineto
          -29 3 -6 -119 50 13 79 19 4 hhcurveto
          133 hlineto
          3 3 6 3 3 19 6 -6 41 hhcurveto
          9 3 rlineto
          1 5 6 2 4 3 1 -4 3 hhcurveto
          61 -20 72 106 8 hvcurveto
          4 33 rlineto
          3 41 41 -1 41 hhcurveto
          27 52 0 18 13 hvcurveto
          2 6 115 19 vvcurveto
          59 0 147 -72 vhcurveto
          -145 37 hlineto
          290 13 129 -3 5 vhcurveto
          141 -24 53 175 -53 hhcurveto
          -27 -57 5 -3 -27 hvcurveto
          -3 -15 4 -7 hhcurveto
          -5 -1 -5 0 -3 -1 rrcurveto
          -1 -7 -5 -1 -3 hhcurveto
          -3 -6 1 3 -3 hvcurveto
          -78 hlineto
          -3 -3 -2 2 -3 -3 rrcurveto
          -60 -50 6 -56 hhcurveto
          -17 -37 -1 -9 -16 hvcurveto
          3 -49 -141 3 -58 hhcurveto
          96 -777 rmoveto
          40 107 97 266 60 164 rrcurveto
          -508 vlineto
          -31 vlineto
          -68 -66 2 -63 hhcurveto
          endchar
        </CharString>
        <CharString name="foursuperior">
          -511 418 410 -260 260 543 -20 hstemhm
          527 322 hintmask 01110000
          324 1368 rmoveto
          -8 -7 -9 -5 -7 -7 -68 -124 -116 -49 callgsubr
          hintmask 10110000
          -20 3 -6 -82 35 11 52 13 4 hhcurveto
          92 hlineto
          1 1 6 3 1 13 4 -4 29 hhcurveto
          6 2 rlineto
          1 4 3 1 3 -9 callsubr
          1 28 28 0 29 hhcurveto
          19 36 0 13 8 hvcurveto
          0 4 81 13 vvcurveto
          19 callgsubr
          201 8 88 -1 4 vhcurveto
          97 -16 36 121 -36 -19 -39 2 -19 9 callgsubr
          hhcurveto
          -1 -6 1 1 -1 hvcurveto
          -54 hlineto
          -21 callgsubr
          -351 vlineto
          -21 23 callgsubr
        </CharString>
        <CharString name="fraction">
          -470 370 1077 rmoveto
          -20 -71 -118 -309 -49 -146 -28 -84 -111 -334 4 -20 12 -52 355 -149 131 8 rrcurveto
          20 14 0 19 15 hvcurveto
          23 36 14 35 11 27 6 15 5 15 4 13 84 242 rcurveline
          56 128 99 299 32 99 rrcurveto
          25 86 110 327 25 vvcurveto
          -17 54 -346 143 -135 -4 rrcurveto
          -23 -13 -11 -8 -11 hvcurveto
          -24 -37 -15 -34 -11 -27 -6 -15 -5 -15 -4 -13 rrcurveto
          endchar
        </CharString>
        <CharString name="g">
          -96 -47 -33 callgsubr
          hstemhm
          hintmask 10001000
          1387 244 -93 callgsubr
          hintmask 01001000
          13 callsubr
          hintmask 00101000
          -38 callsubr
          hintmask 00011000
          -34 callsubr
          hintmask 00101000
          -26 callgsubr
          hintmask 00011000
          -35 callsubr
          endchar
        </CharString>
        <CharString name="gbreve">
          -96 -47 -33 callgsubr
          69 -25 callsubr
          hstemhm
          237 -58 callgsubr
          -333 476 hintmask 1000111101000000
          1387 244 -93 callgsubr
          hintmask 0100111110000000
          13 callsubr
          hintmask 0010111110000000
          -38 callsubr
          hintmask 0001111110000000
          -34 callsubr
          hintmask 0010111110000000
          -26 callgsubr
          hintmask 0001111110000000
          -35 callsubr
          -487 1623 -96 callgsubr
        </CharString>
        <CharString name="gcircumflex">
          -96 -47 -33 callgsubr
          823 -20 hstemhm
          hintmask 10001100
          1387 244 -93 callgsubr
          hintmask 01001100
          13 callsubr
          hintmask 00101100
          -38 callsubr
          hintmask 00011100
          -34 callsubr
          hintmask 00101100
          -26 callgsubr
          hintmask 00011100
          -35 callsubr
          -524 1249 rmoveto
          -53 43 69 -133 29 hhcurveto
          23 32 1 -3 64 hvcurveto
          41 2 rlineto
          20 hlineto
          31 35 -2 28 hhcurveto
          23 8 20 21 hvcurveto
          11 -2 7 8 vvcurveto
          -56 224 -132 214 -109 197 -47 27 rcurveline
          -61 6 rlineto
          -69 2 -1 5 -54 hvcurveto
          -76 2 rlineto
          -121 hlineto
          -94 -23 -14 -16 -52 -83 -34 -72 -41 -80 rlinecurve
          -51 -133 -92 -134 -27 -133 rrcurveto
          -3 -8 1 -7 -11 vvcurveto
          -21 7 -20 23 vhcurveto
          37 43 2 35 hhcurveto
          61 hlineto
          9 6 10 -8 rlineto
          3 24 33 -1 23 hhcurveto
          29 65 88 88 59 hvcurveto
          34 51 36 59 39 66 35 -53 37 -60 47 -53 rrcurveto
          endchar
        </CharString>
        <CharString name="gdotaccent">
          -96 -47 -33 callgsubr
          84 31 callgsubr
          hintmask 10001100
          1387 244 -93 callgsubr
          hintmask 01001100
          13 callsubr
          hintmask 00101100
          -38 callsubr
          hintmask 00011100
          -34 callsubr
          hintmask 00101100
          -26 callgsubr
          hintmask 00011100
          -35 callsubr
          -376 1509 -72 callsubr
          hhcurveto
          hintmask 10001010
          -81 callsubr
          hintmask 10001100
          -94 callgsubr
        </CharString>
        <CharString name="germandbls">
          229 -4 -21 22 -21 1105 345 hstemhm
          1098 450 hintmask 10110000
          913 -25 rmoveto
          hintmask 01110000
          6 1 rlineto
          647 166 170 162 15 -2 12 -1 15 hvcurveto
          -24 261 -81 113 -260 51 -6 8 rcurveline
          11 15 33 6 25 12 rrcurveto
          83 52 38 68 100 vvcurveto
          320 -380 33 -233 32 vhcurveto
          -115 70 5 -115 hhcurveto
          -356 -309 0 -641 hvcurveto
          -125 17 -108 -125 -41 -6 -282 -53 vvcurveto
          -44 112 4 361 64 21 0 13 72 vhcurveto
          28 3 14 44 5 24 rrcurveto
          112 8 70 113 vvcurveto
          104 vlineto
          14 -7 124 16 vvcurveto
          3 120 rlineto
          5 -1 159 6 vvcurveto
          76 2 67 86 46 163 -5 -51 -78 -52 -8 -33 -11 vhcurveto
          -4 -48 -27 -15 -28 hvcurveto
          -2 -244 77 -5 65 -15 80 -49 rlinecurve
          21 -5 11 -10 -14 vvcurveto
          -27 -15 -31 -36 -7 vhcurveto
          -75 -12 -71 -6 -75 -12 rrcurveto
          endchar
        </CharString>
        <CharString name="grave">
          -717 -3 callgsubr
          315 1556 rmoveto
          -102 callgsubr
        </CharString>
        <CharString name="greater">
          -425 -45 -21 1502 -20 hstem
          93 252 rmoveto
          -70 256 -248 96 17 16 6 7 8 vhcurveto
          33 25 24 25 17 19 25 31 rcurveline
          71 70 208 162 74 96 21 24 rlinecurve
          117 157 49 75 55 vvcurveto
          54 -66 68 -120 163 vhcurveto
          -24 21 -91 75 -168 186 -51 70 rcurveline
          -8 9 -10 10 -12 11 -20 19 -30 24 -39 27 rrcurveto
          7 -8 -16 6 -17 hhcurveto
          -101 -271 -248 -70 -15 345 -345 42 -53 hvcurveto
          -5 vlineto
          -49 -367 -385 -14 vvcurveto
          endchar
        </CharString>
        <CharString name="greaterequal">
          -447 -92 379 -367 -21 1542 -20 hstemhm
          hintmask 10100000
          359 -96 rmoveto
          13 263 4 12 hhcurveto
          205 hlineto
          76 82 -9 62 hvcurveto
          110 2 59 109 vvcurveto
          21 -28 27 -20 vhcurveto
          -227 hlineto
          -51 -427 -9 -51 hhcurveto
          -47 -65 -4 -47 hvcurveto
          -119 -5 19 -116 vvcurveto
          hintmask 01100000
          -47 3 -65 46 vhcurveto
          107 43 5 69 hhcurveto
          -199 681 rmoveto
          -51 228 -179 85 16 13 5 4 7 vhcurveto
          29 19 22 16 15 15 9 8 7 8 6 7 64 50 rcurveline
          184 120 66 68 19 16 rrcurveto
          104 115 44 54 39 vvcurveto
          39 -58 48 -107 118 vhcurveto
          -22 16 -80 54 -150 134 -46 51 rcurveline
          -7 7 -9 8 -11 7 -19 13 -25 18 -35 20 rrcurveto
          5 -7 -13 4 -16 hhcurveto
          -91 -240 -179 -51 -8 306 -256 39 -35 hvcurveto
          -3 vlineto
          -36 -327 -279 -9 vvcurveto
          endchar
        </CharString>
        <CharString name="guillemotleft">
          105 24 callgsubr
          21 -20 hstemhm
          hintmask 11000000
          589 696 rmoveto
          -42 callsubr
          -92 -190 -104 -205 -113 -22 -33 rcurveline
          -19 -28 -3 -35 32 callsubr
          rlineto
          -124 vlineto
          25 -103 16 -12 83 -64 144 -79 122 -61 rlinecurve
          71 -37 75 -36 78 -36 -43 callsubr
          802 hmoveto
          -42 callsubr
          -93 -224 -106 -171 -110 rrcurveto
          -62 -41 18 -55 32 callsubr
          21 -229 96 -58 90 -55 125 -65 101 -53 rlinecurve
          60 -31 60 -31 61 -30 -43 callsubr
          endchar
        </CharString>
        <CharString name="guillemotright">
          106 24 callgsubr
          21 -20 hstemhm
          hintmask 11000000
          1100 696 rmoveto
          63 -31 68 -26 61 -41 callgsubr
          rlineto
          -33 1 -47 -1 -37 vhcurveto
          -24 20 -9 21 7 6 0 1 7 vhcurveto
          11 2 77 36 75 36 71 37 rlinecurve
          123 61 143 80 84 63 22 callgsubr
          15 vlineto
          28 3 32 35 vvcurveto
          36 -3 35 -19 28 vhcurveto
          -22 33 -205 113 -190 104 -181 92 rlinecurve
          -39 callsubr
          -802 hmoveto
          63 -31 68 -26 61 -41 callgsubr
          rlineto
          -33 1 -47 -1 -37 vhcurveto
          -24 20 -9 21 7 6 0 1 7 vhcurveto
          11 2 61 30 60 31 60 31 rlinecurve
          101 53 125 65 90 55 96 58 rcurveline
          21 229 -2 80 rlineto
          15 vlineto
          28 3 32 35 vvcurveto
          36 18 55 -62 41 vhcurveto
          -171 109 -225 106 -180 94 rrcurveto
          -39 callsubr
          endchar
        </CharString>
        <CharString name="guilsinglleft">
          -641 24 callgsubr
          hstem
          624 696 rmoveto
          57 32 139 52 21 vvcurveto
          43 -1 57 3 111 vhcurveto
          45 vlineto
          -3 4 4 7 -3 7 rrcurveto
          35 5 35 -3 31 vhcurveto
          24 -18 9 -23 -3 vhcurveto
          3 -11 -9 -3 -8 hhcurveto
          -235 -59 -224 -139 -207 -111 -29 -51 rcurveline
          -8 -66 rlineto
          -70 -1 1 -3 -56 vhcurveto
          -2 -80 rlineto
          -124 vlineto
          25 -103 16 -12 87 -53 75 -37 84 -45 rlinecurve
          139 -51 142 -100 136 -27 rrcurveto
          -3 9 10 0 12 hhcurveto
          21 20 9 24 hvcurveto
          3 37 -6 47 3 33 -2 129 rcurveline
          -4 12 8 8 rlineto
          -3 27 1 33 27 vvcurveto
          24 -92 53 -92 46 vhcurveto
          -54 27 -61 29 -69 31 56 23 60 26 56 31 rrcurveto
          endchar
        </CharString>
        <CharString name="guilsinglright">
          -641 24 callgsubr
          hstem
          318 696 rmoveto
          56 -31 60 -26 56 -41 callgsubr
          3 -33 -6 -47 3 -37 rlinecurve
          -24 20 -9 21 12 10 0 3 8 vhcurveto
          137 27 143 100 138 51 84 45 75 37 87 53 22 callgsubr
          -5 56 1 0 69 vvcurveto
          -9 66 -28 51 -207 111 -224 139 -235 59 rlinecurve
          -8 -9 3 -3 -11 hvcurveto
          -23 3 -18 -9 -24 vvcurveto
          -3 -31 5 -35 -35 vvcurveto
          -3 -7 4 -7 -3 -4 rrcurveto
          -45 vlineto
          1 -111 1 -57 -43 vvcurveto
          -21 139 -52 57 -32 vhcurveto
          endchar
        </CharString>
        <CharString name="h">
          110 15 -21 27 -21 hstemhm
          hintmask 01000000
          -67 callgsubr
          hintmask 10000000
          -20 76 93 0 83 hhcurveto
          hintmask 01000000
          96 93 3 3 99 hvcurveto
          32 11 -3 -10 71 vvcurveto
          329 vlineto
          11 -48 callsubr
          endchar
        </CharString>
        <CharString name="hbar">
          110 15 -21 27 -21 902 137 -137 282 hstemhm
          hintmask 01100000
          1509 hmoveto
          19 20 29 14 hvcurveto
          20 649 -3 41 3 52 3 49 rlinecurve
          3 68 rlineto
          39 hlineto
          94 5 26 17 13 0 8 -3 8 hvcurveto
          -2 10 rlineto
          -2 9 -2 7 23 vvcurveto
          8 -34 7 -44 1 vhcurveto
          -48 2 rlineto
          94 vlineto
          hintmask 10010000
          45 -21 4 -49 vhcurveto
          -43 -169 -8 -46 -60 -57 8 -61 hhcurveto
          -98 hlineto
          -13 -3 -21 5 -5 hhcurveto
          -13 -1 -30 -1 -37 vhcurveto
          -17 0 -17 -1 -18 vhcurveto
          -49 -47 0 1 -45 hvcurveto
          -56 6 hlineto
          20 -1 19 8 vvcurveto
          67 -4 15 -57 vhcurveto
          -80 -76 4 -76 hhcurveto
          -84 -52 -5 5 -99 hvcurveto
          3 -35 -16 -11 -27 hhcurveto
          -3 -3 -4 -3 hvcurveto
          -1 -11 0 -17 -1 -23 -2 -72 rcurveline
          -47 hlineto
          -40 -56 -9 -9 hvcurveto
          -42 4 -18 -43 vvcurveto
          -11 41 -4 60 -3 vhcurveto
          11 11 0 -1 11 hvcurveto
          -2 -55 -1 -59 -2 -50 -1 -21 rlinecurve
          -232 23 -215 12 -211 vhcurveto
          -5 1 -41 20 -3 vhcurveto
          -20 76 93 0 83 hhcurveto
          hintmask 01100000
          96 93 3 3 99 hvcurveto
          23 8 6 -4 28 vvcurveto
          380 -48 callsubr
          -526 906 rmoveto
          31 32 0 -1 35 hvcurveto
          -2 vlineto
          -84 vlineto
          -11 -3 -106 5 -6 hhcurveto
          -55 -25 -27 62 19 1 19 1 19 hvcurveto
          1 vlineto
          endchar
        </CharString>
        <CharString name="hcircumflex">
          110 15 -21 27 -21 2046 24 callsubr
          -67 callgsubr
          hintmask 10100000
          -20 76 93 0 83 hhcurveto
          hintmask 01100000
          96 93 3 3 99 hvcurveto
          32 11 -3 -10 71 vvcurveto
          329 vlineto
          11 -48 callsubr
          -400 1493 rmoveto
          -53 43 69 -133 29 hhcurveto
          23 32 1 -3 64 hvcurveto
          41 2 rlineto
          20 hlineto
          31 35 -2 28 hhcurveto
          23 8 20 21 hvcurveto
          11 -2 7 8 vvcurveto
          -56 224 -132 214 -109 197 -47 27 rcurveline
          -61 6 rlineto
          -69 2 -1 5 -54 hvcurveto
          -76 2 rlineto
          -121 hlineto
          -94 -23 -14 -16 -52 -83 -34 -72 -41 -80 rlinecurve
          -51 -133 -92 -134 -27 -133 rrcurveto
          -3 -8 1 -7 -11 vvcurveto
          -21 7 -20 23 vhcurveto
          37 43 2 35 hhcurveto
          61 hlineto
          9 6 10 -8 rlineto
          3 24 33 -1 23 hhcurveto
          29 65 88 88 59 hvcurveto
          34 51 36 59 39 66 35 -53 37 -60 47 -53 rrcurveto
          endchar
        </CharString>
        <CharString name="hungarumlaut">
          190 -3 callgsubr
          700 1577 -100 callgsubr
        </CharString>
        <CharString name="hungarumlaut.001">
          133 -3 callgsubr
          564 1577 -89 callsubr
          798 hmoveto
          53 87 26 82 53 85 48 76 103 178 -4 8 rrcurveto
          21 -15 6 -55 12 vhcurveto
          -7 0 -2 -7 hhcurveto
          -14 4 -88 6 -9 3 -9 -1 -7 4 rlinecurve
          -11 -3 -20 3 -12 -4 -12 6 rcurveline
          -71 -77 -6 -96 hhcurveto
          -88 -14 -16 -14 -31 -112 -23 -95 -20 -109 rlinecurve
          -13 -144 -34 -148 -140 vvcurveto
          -29 4 -32 35 vhcurveto
          37 36 -23 callsubr
          60 -20 callsubr
          14 -8 rlineto
          3 21 30 -1 25 hhcurveto
          39 67 187 83 43 hvcurveto
          endchar
        </CharString>
        <CharString name="hyphen">
          -57 callgsubr
        </CharString>
        <CharString name="i">
          -741 -31 callgsubr
          1202 -20 22 -63 callgsubr
          hintmask 10110000
          -68 callsubr
          endchar
        </CharString>
        <CharString name="iacute">
          -804 -31 callgsubr
          2150 -20 hstemhm
          hintmask 11010000
          -101 callgsubr
          hintmask 10110000
          -68 callsubr
          -207 1372 -89 callsubr
          endchar
        </CharString>
        <CharString name="ibreve">
          -740 -31 callgsubr
          1294 -25 callsubr
          hstemhm
          -84 -58 callgsubr
          hintmask 11011110
          -101 callgsubr
          hintmask 10111110
          -68 callsubr
          -132 1662 -96 callgsubr
        </CharString>
        <CharString name="icircumflex">
          -804 -31 callgsubr
          2048 -20 hstemhm
          hintmask 11010000
          -101 callgsubr
          hintmask 10110000
          -68 callsubr
          -179 1288 rmoveto
          -53 43 69 -133 29 hhcurveto
          23 32 1 -3 64 hvcurveto
          41 2 rlineto
          20 hlineto
          31 35 -2 28 hhcurveto
          23 8 20 21 hvcurveto
          11 -2 7 8 vvcurveto
          -56 224 -132 214 -109 197 -47 27 rcurveline
          -61 6 rlineto
          -69 2 -1 5 -54 hvcurveto
          -76 2 rlineto
          -121 hlineto
          -94 -23 -14 -16 -52 -83 -34 -72 -41 -80 rlinecurve
          -51 -133 -92 -134 -27 -133 rrcurveto
          -3 -8 1 -7 -11 vvcurveto
          -21 7 -20 23 vhcurveto
          37 43 2 35 hhcurveto
          61 hlineto
          9 6 10 -8 rlineto
          3 24 33 -1 23 hhcurveto
          29 65 88 88 59 hvcurveto
          34 51 36 59 39 66 35 -53 37 -60 47 -53 rrcurveto
          endchar
        </CharString>
        <CharString name="idieresis">
          -804 -31 callgsubr
          1380 -23 callgsubr
          504 476 hintmask 11010100
          -101 callgsubr
          hintmask 10110100
          -68 callsubr
          -401 1530 -47 callsubr
          hintmask 11001100
          21 callgsubr
          hintmask 11010100
          -100 callsubr
          hintmask 11001100
          -24 callgsubr
          hintmask 11010100
          -99 callgsubr
          endchar
        </CharString>
        <CharString name="igrave">
          -804 -31 callgsubr
          2150 -20 hstemhm
          hintmask 11010000
          -101 callgsubr
          hintmask 10110000
          -68 callsubr
          -399 1351 rmoveto
          -102 callgsubr
        </CharString>
        <CharString name="ij">
          309 -31 callgsubr
          1202 -20 22 -20 23 -63 callgsubr
          hintmask 10100100
          -68 callsubr
          959 -151 -58 callsubr
          4 -3 -17 4 -7 -2 -27 -8 -3 hhcurveto
          -5 -7 5 3 -3 hvcurveto
          -26 -54 6 -14 -14 hvcurveto
          -56 -45 8 -51 -35 -28 -10 -29 -73 callgsubr
          endchar
        </CharString>
        <CharString name="imacron">
          -740 -31 callgsubr
          1452 376 hstemhm
          hintmask 11010000
          -101 callgsubr
          hintmask 10110000
          -68 callsubr
          -126 1250 -94 callsubr
        </CharString>
        <CharString name="increment">
          -56 -4 192 -168 -21 22 -21 1219 -20 hstemhm
          hintmask 00110000
          566 1219 rmoveto
          -33 -29 8 -33 -21 -20 -8 -12 hhcurveto
          -19 hlineto
          -8 -3 -8 -10 -8 vvcurveto
          -164 -612 -37 -141 -34 -143 -31 -143 rlinecurve
          -28 -5 -35 -131 56 hhcurveto
          hintmask 10010000
          28 167 -6 2 4 hvcurveto
          125 hlineto
          -10 callsubr
          5 3 vhcurveto
          8 -11 callsubr
          1 -8 17 -53 callsubr
          7 -9 29 -1 32 hhcurveto
          hintmask 00110000
          65 -2 225 -1 226 2 253 -1 rlinecurve
          hintmask 01010000
          -2 2 58 1 9 hhcurveto
          59 -39 124 28 -4 hvcurveto
          -31 143 -34 151 -37 141 -164 612 rcurveline
          7 -8 11 -9 3 vhcurveto
          -16 hlineto
          -15 -12 8 -16 -31 -28 -8 -35 hhcurveto
          14 -11 -250 -6 -18 3 -130 -8 -2 hhcurveto
          297 -877 rmoveto
          12 -55 9 -52 11 -48 rrcurveto
          hintmask 10010000
          1 -19 -20 0 -20 hhcurveto
          -220 hlineto
          7 47 5 52 7 55 rrcurveto
          6 82 455 4 vvcurveto
          40 189 38 -189 rlineto
          -4 68 -455 -6 vvcurveto
          endchar
        </CharString>
        <CharString name="integral">
          -346 -449 287 1301 281 hstem
          271 748 rmoveto
          -380 -1 -105 -101 -66 -2 -38 callgsubr
          69 vvcurveto
          2 128 rlineto
          -12 113 26 380 4 vvcurveto
          200 12 24 -30 188 -28 callsubr
          endchar
        </CharString>
        <CharString name="iogonek">
          -741 32 callgsubr
          301 48 -4 -43 callgsubr
          1202 -20 22 -20 hstemhm
          52 420 hintmask 11001010
          719 283 rmoveto
          399 vlineto
          104 10 48 3 8 vhcurveto
          -4 352 rlineto
          -152 hlineto
          1 -4 -18 5 -7 -1 -29 -6 -4 hhcurveto
          -3 -9 3 3 -3 hvcurveto
          -90 hlineto
          -8 -6 rlineto
          hintmask 11000110
          -71 -58 8 -64 hhcurveto
          -27 -67 0 -29 hvcurveto
          -497 vlineto
          -175 21 -185 8 -173 vhcurveto
          -32 3 -7 -138 59 hhcurveto
          hintmask 10101010
          24 144 23 8 hhcurveto
          154 hlineto
          3 3 8 3 3 hhcurveto
          23 6 -9 3 47 hvcurveto
          11 3 rlineto
          1 7 7 2 4 hhcurveto
          hintmask 10011010
          -68 callsubr
          hintmask 11001010
          -32 -184 -95 callsubr
          rrcurveto
          endchar
        </CharString>
        <CharString name="itilde">
          -740 -31 callgsubr
          1266 -50 callgsubr
          hintmask 11010000
          -101 callgsubr
          hintmask 10101000
          -68 callsubr
          -95 1631 -75 callgsubr
          hintmask 11000100
          -83 callsubr
          hintmask 11010000
          -85 callgsubr
        </CharString>
        <CharString name="j">
          -533 1205 -20 hstem
          828 54 -58 callsubr
          4 -3 -17 4 -7 -2 -27 -8 -3 hhcurveto
          -5 -7 5 3 -3 hvcurveto
          -26 -54 6 -14 -14 hvcurveto
          -56 -45 8 -51 -35 -28 -10 -29 -73 callgsubr
          endchar
        </CharString>
        <CharString name="jcircumflex">
          -533 1197 108 -100 -20 861 -20 hstemhm
          hintmask 10100000
          828 54 -58 callsubr
          hintmask 01100000
          4 -3 -17 4 -7 hhcurveto
          hintmask 10100000
          -2 -27 -8 -3 hhcurveto
          hintmask 01100000
          -5 -7 5 3 -3 hvcurveto
          hintmask 10100000
          -26 -54 6 -14 -14 hvcurveto
          hintmask 01100000
          -56 -45 8 -51 -35 -28 -10 -29 hhcurveto
          hintmask 10100000
          -73 callgsubr
          -182 1439 rmoveto
          -53 43 69 -133 29 hhcurveto
          23 32 1 -3 64 hvcurveto
          41 2 rlineto
          20 hlineto
          31 35 -2 28 hhcurveto
          23 8 20 21 hvcurveto
          11 -2 7 8 vvcurveto
          -56 224 -132 214 -109 197 -47 27 rcurveline
          -61 6 rlineto
          -69 2 -1 5 -54 hvcurveto
          -76 2 rlineto
          -121 hlineto
          -94 -23 -14 -16 -52 -83 -34 -72 -41 -80 rlinecurve
          -51 -133 -92 -134 -27 -133 rrcurveto
          -3 -8 1 -7 -11 vvcurveto
          -21 7 -20 23 vhcurveto
          37 43 2 35 hhcurveto
          61 hlineto
          9 6 10 -8 rlineto
          3 24 33 -1 23 hhcurveto
          29 65 88 88 59 hvcurveto
          34 51 36 59 39 66 35 -53 37 -60 47 -53 rrcurveto
          endchar
        </CharString>
        <CharString name="k">
          -45 31 callsubr
          25 -21 1225 -20 hstemhm
          hintmask 10010000
          -61 callsubr
          hintmask 01010000
          3 76 2 32 hhcurveto
          hintmask 00110000
          -84 callsubr
          endchar
        </CharString>
        <CharString name="kgreenlandic">
          -45 31 callsubr
          25 -21 1225 -20 hstemhm
          hintmask 10010000
          -61 callsubr
          hintmask 01010000
          3 76 2 32 hhcurveto
          hintmask 00110000
          -84 callsubr
          endchar
        </CharString>
        <CharString name="l">
          -426 18 callsubr
          1194 -20 hstemhm
          hintmask 10010000
          114 430 -80 callgsubr
          endchar
        </CharString>
        <CharString name="lacute">
          -426 18 callsubr
          2196 -20 hstemhm
          hintmask 10010000
          490 1619 -89 callsubr
          -376 -1189 -80 callgsubr
          endchar
        </CharString>
        <CharString name="lcaron">
          243 18 callsubr
          1454 -20 hstemhm
          hintmask 10010000
          114 430 -80 callgsubr
          1308 56 rmoveto
          -75 callsubr
          23 -69 rcurveline
          8 -40 callsubr
        </CharString>
        <CharString name="ldot">
          50 18 callsubr
          644 465 85 -20 hstemhm
          hintmask 10011000
          1587 667 -14 callgsubr
          -63 6 rlineto
          -31 callsubr
          -1473 -237 -70 callsubr
          hintmask 00111000
          18 206 -14 40 hhcurveto
          hintmask 01011000
          -3 8 39 -3 8 hhcurveto
          hintmask 00111000
          -62 callgsubr
          hintmask 10011000
          -83 callgsubr
          endchar
        </CharString>
        <CharString name="less">
          -425 -45 -21 1502 -20 hstem
          1065 252 rmoveto
          14 -367 385 49 vvcurveto
          5 vlineto
          42 53 345 345 15 vvcurveto
          70 -271 248 -101 -17 -16 -6 -7 -8 vhcurveto
          -39 -27 -30 -24 -20 -19 -12 -11 -10 -10 -8 -9 -51 -70 rcurveline
          -168 -186 -91 -75 -24 -21 rrcurveto
          -120 -163 -66 -68 -54 vvcurveto
          -55 49 -75 117 -157 vhcurveto
          21 -24 74 -96 208 -162 71 -70 rcurveline
          7 -9 8 -11 10 -11 16 -19 25 -25 33 -25 rrcurveto
          -7 8 16 -6 17 hhcurveto
          96 256 248 70 hvcurveto
          endchar
        </CharString>
        <CharString name="lessequal">
          -446 -101 388 1154 -20 hstem
          977 585 rmoveto
          9 -327 279 36 vvcurveto
          3 vlineto
          40 36 305 255 8 vvcurveto
          51 -240 179 -91 -16 -13 -4 -5 -7 vhcurveto
          -35 -20 -25 -18 -19 -13 -11 -7 -9 -8 -7 -7 -46 -51 rcurveline
          -150 -134 -80 -54 -22 -16 rrcurveto
          -107 -118 -58 -48 -39 vvcurveto
          -39 44 -54 104 -115 vhcurveto
          19 -16 66 -68 184 -120 64 -50 rcurveline
          6 -7 7 -8 9 -8 15 -15 20 -16 31 -19 rrcurveto
          -4 7 13 -5 16 hhcurveto
          85 228 179 51 hvcurveto
          -199 -681 -46 callsubr
        </CharString>
        <CharString name="logicalnot">
          -504 423 -21 273 370 9 -20 hstemhm
          595 357 hintmask 10110000
          94 1054 rmoveto
          -20 -28 -27 -21 hvcurveto
          -109 2 -59 -110 vvcurveto
          hintmask 11010000
          -36 callsubr
          389 hlineto
          -13 -2 -62 -14 -10 2 -68 -7 vvcurveto
          -88 25 4 callsubr
          76 5 139 104 vvcurveto
          47 -65 4 -47 vhcurveto
          hintmask 10110000
          -51 -427 9 -51 hhcurveto
          endchar
        </CharString>
        <CharString name="longs">
          -361 13 -21 23 -8 callgsubr
          hintmask 10011000
          -45 callgsubr
          hintmask 01011000
          -1 callsubr
          hintmask 00111000
          3 3 8 3 3 hhcurveto
          hintmask 01011000
          11 3 -9 3 21 hvcurveto
          hintmask 00111000
          -89 callgsubr
          hintmask 10010100
          -3 callsubr
          hhcurveto
          hintmask 10011000
          -66 callsubr
          endchar
        </CharString>
        <CharString name="lozenge">
          -450 20 -21 1366 -20 hstem
          281 20 rmoveto
          12 -15 rlineto
          14 hlineto
          40 -6 71 6 97 -6 209 6 71 -6 32 6 rlineto
          12 hlineto
          13 15 200 637 -77 327 -123 360 -13 15 rlineto
          -12 hlineto
          -32 6 -71 -6 -209 6 -97 -6 -71 6 -40 -6 rlineto
          -14 hlineto
          -12 -15 -124 -360 -76 -327 rlineto
          480 -485 rmoveto
          -114 485 23 144 61 249 30 142 29 -142 75 -393 rlineto
          endchar
        </CharString>
        <CharString name="lslash">
          -320 2 420 -407 -21 1194 -20 hstemhm
          hintmask 10100000
          239 1188 rmoveto
          -16 -30 -5 -124 -3 -168 -23 -7 -24 -6 -24 -7 17 callsubr
          -50 47 2 57 14 vhcurveto
          1 -95 rlineto
          -32 5 -96 -3 -54 vhcurveto
          -3 -21 3 -137 -2 -2 9 -8 rcurveline
          3 24 25 -1 28 hhcurveto
          67 60 9 -3 64 hvcurveto
          hintmask 01100000
          18 206 -14 40 hhcurveto
          55 hlineto
          119 hlineto
          44 208 10 39 4 hvcurveto
          15 350 rlineto
          17 -19 22 -16 4 vhcurveto
          hintmask 10100000
          -16 -88 -95 2 -88 hhcurveto
          -23 -9 1 -3 -25 hvcurveto
          -3 49 1 62 61 vvcurveto
          90 23 -9 callgsubr
          -44 -11 -37 -6 -41 -8 rrcurveto
          16 1 58 7 vvcurveto
          3 93 -30 -6 -65 5 rrcurveto
          -163 -77 6 -236 hhcurveto
          endchar
        </CharString>
        <CharString name="m">
          239 17 -43 callgsubr
          1188 -20 hstemhm
          131 506 553 499 hintmask 01111000
          932 764 rmoveto
          -12 -7 -10 -15 -12 hhcurveto
          -9 -9 9 18 -9 hvcurveto
          -9 9 -115 295 -11 34 rrcurveto
          35 -19 -29 47 -13 -41 -139 2 -257 hhcurveto
          -30 -90 -4 -52 -5 1 -4 3 -3 hvcurveto
          -14 4 -68 -14 -93 -8 -39 -69 -7 4 -51 -11 vvcurveto
          -129 -6 -112 -3 -124 vhcurveto
          -102 4 2 -254 5 hhcurveto
          6 -15 78 -18 rlineto
          hintmask 10111000
          2 78 -2 30 hhcurveto
          96 77 6 8 96 hvcurveto
          3 8 -2 7 hhcurveto
          31 -4 262 152 9 5 5 9 12 29 -126 -208 131 hvcurveto
          -5 41 71 1 25 hhcurveto
          78 64 172 15 10 hvcurveto
          44 16 37 107 10 hhcurveto
          8 7 -6 -8 -179 2 -235 24 hvcurveto
          7 9 2 3 hhcurveto
          -8 96 76 -6 96 hhcurveto
          hintmask 01111000
          32 73 2 3 hhcurveto
          80 18 7 15 rlineto
          -1 -8 254 102 hvcurveto
          9 87 6 90 87 vvcurveto
          183 0 350 -17 vhcurveto
          -65 3 2 -42 -257 -138 -2 -41 hhcurveto
          -13 -33 -47 -35 -16 hvcurveto
          -15 -34 -133 -290 -5 -14 rrcurveto
          endchar
        </CharString>
        <CharString name="middot">
          -800 495 465 6 -20 hstemhm
          hintmask 10000000
          669 524 -14 callgsubr
          hintmask 01000000
          -63 6 rlineto
          hintmask 10000000
          -31 callsubr
          endchar
        </CharString>
        <CharString name="minus">
          -429 666 388 hstem
          770 671 -46 callsubr
        </CharString>
        <CharString name="mu">
          9 -370 -21 410 -21 1190 -20 hstem
          130 -194 rmoveto
          -8 -55 0 -25 -49 vvcurveto
          -27 -7 -35 36 4 10 5 8 vhcurveto
          2 vlineto
          -20 45 204 -1 46 hhcurveto
          35 hlineto
          177 6 rlineto
          12 5 2 1 7 4 -2 6 4 vvcurveto
          4 8 -4 4 hhcurveto
          4 2 3 5 141 0 103 -3 96 hvcurveto
          40 9 44 13 36 21 rrcurveto
          24 29 39 39 32 hhcurveto
          16 2 -70 -16 30 hvcurveto
          -11 57 65 3 60 hhcurveto
          83 92 -1 15 83 hvcurveto
          3 8 8 3 hhcurveto
          7 24 -5 -3 4 hvcurveto
          11 11 32 30 17 vvcurveto
          19 360 1 350 363 vvcurveto
          5 -2 3 -4 vhcurveto
          -4 -8 -4 -4 hhcurveto
          4 2 6 4 vvcurveto
          7 -2 1 -12 5 vhcurveto
          -217 6 rlineto
          -35 hlineto
          -46 -204 -1 -20 -45 hvcurveto
          2 vlineto
          8 -10 5 -4 -36 7 -35 -27 -49 0 -25 8 -55 vhcurveto
          -674 vlineto
          -12 -135 -59 -27 -33 5 96 28 26 6 283 8 171 vhcurveto
          20 vlineto
          64 -6 52 64 vvcurveto
          127 -44 15 -136 vhcurveto
          -13 -6 rlineto
          -3 -5 3 3 hvcurveto
          -250 4 rlineto
          -4 -8 -12 0 -13 hhcurveto
          -30 hlineto
          -31 -31 -4 -27 hvcurveto
          -27 6 -22 -27 vvcurveto
          -73 -12 -262 -2 1 vhcurveto
          -6 -14 rlineto
          -12 -2 -90 -25 -32 -2 -43 -48 vvcurveto
          endchar
        </CharString>
        <CharString name="multiply">
          12 -24 -43 callgsubr
          1444 24 callsubr
          804 1110 rmoveto
          -141 172 -9 11 -10 12 -12 12 rlinecurve
          -20 21 -30 29 -36 28 rrcurveto
          3 -11 -9 3 -15 hhcurveto
          -116 -298 -273 -49 -17 235 -279 60 -72 hvcurveto
          23 -31 -29 -33 -64 -72 -233 -273 -8 -21 rlinecurve
          -52 289 -272 118 8 10 3 7 11 vhcurveto
          36 28 29 28 21 21 12 12 11 12 10 12 149 168 rcurveline
          148 -172 8 -11 10 -12 12 -12 rlinecurve
          20 -21 29 -28 36 -27 rrcurveto
          hintmask 10100000
          -7 11 7 -3 8 hhcurveto
          109 313 264 60 hvcurveto
          -2 10 -219 278 -72 82 -26 31 rcurveline
          28 33 62 70 236 270 11 26 rlinecurve
          44 -278 276 -125 -15 -12 -3 -3 -8 vhcurveto
          -37 -28 -30 -28 -21 -21 -33 -34 rcurveline
          endchar
        </CharString>
        <CharString name="n">
          13 callgsubr
          hstemhm
          hintmask 01000000
          1437 393 rmoveto
          49 5 482 47 -95 callgsubr
          hintmask 10000000
          -78 callsubr
          180 -252 rlineto
          hintmask 00010000
          -43 43 58 12 28 hhcurveto
          hintmask 00100000
          68 80 -1 64 hhcurveto
          hintmask 01000000
          -41 callsubr
          endchar
        </CharString>
        <CharString name="nacute">
          13 callgsubr
          2150 -20 hstemhm
          hintmask 01001000
          1437 393 rmoveto
          49 5 482 47 -95 callgsubr
          hintmask 10001000
          -78 callsubr
          180 -252 rlineto
          hintmask 00011000
          -43 43 58 12 28 hhcurveto
          hintmask 00101000
          68 80 -1 64 hhcurveto
          hintmask 01001000
          -41 callsubr
          -570 1184 -89 callsubr
          endchar
        </CharString>
        <CharString name="napostrophe">
          -23 -4 callgsubr
          22 -21 22 -21 hstemhm
          hintmask 10100000
          1437 393 rmoveto
          49 5 482 47 -95 callgsubr
          hintmask 11000000
          -78 callsubr
          180 -252 rlineto
          hintmask 10001000
          -43 43 58 12 28 hhcurveto
          hintmask 10010000
          68 80 -1 64 hhcurveto
          hintmask 10100000
          -41 callsubr
          -494 -1198 -104 callsubr
          endchar
        </CharString>
        <CharString name="ncaron">
          13 callgsubr
          2048 -20 hstemhm
          hintmask 01001000
          1437 393 rmoveto
          49 5 482 47 -95 callgsubr
          hintmask 10001000
          -78 callsubr
          180 -252 rlineto
          hintmask 00011000
          -43 43 58 12 28 hhcurveto
          hintmask 00101000
          68 80 -1 64 hhcurveto
          hintmask 01001000
          -41 callsubr
          -537 1465 -104 callgsubr
        </CharString>
        <CharString name="nine">
          -107 -22 362 127 303 176 330 hstem
          86 409 vstem
          759 509 rmoveto
          -45 -4 0 -124 -244 hhcurveto
          -61 -62 13 16 -51 hvcurveto
          -81 19 -2 -33 -47 -111 -56 -154 55 6 22 -16 39 -31 47 -13 43 -16 rrcurveto
          -28 99 89 -14 91 hhcurveto
          220 182 48 89 137 hvcurveto
          72 65 68 85 37 96 rrcurveto
          33 84 6 96 105 vvcurveto
          424 -359 206 -339 -315 -292 -147 -289 -144 66 -105 107 -61 vhcurveto
          -43 69 88 -20 97 hhcurveto
          77 82 13 29 87 hvcurveto
          -157 437 rmoveto
          64 52 -39 -104 27 hvcurveto
          -15 -7 -17 -5 -17 -5 rrcurveto
          -8 -29 -39 -8 -39 hhcurveto
          -52 -42 19 58 71 46 28 61 hvcurveto
          endchar
        </CharString>
        <CharString name="notequal">
          -503 99 480 -463 -21 180 304 133 305 hstemhm
          hintmask 01110000
          342 712 rmoveto
          -11 -37 -27 -96 rlineto
          -3 -77 -69 -2 -75 hhcurveto
          -5 -11 -25 -23 -14 callsubr
          100 hlineto
          -3 -9 -1 -9 -3 -9 rrcurveto
          -30 -8 -31 -123 44 hhcurveto
          hintmask 10010000
          11 58 4 5 hhcurveto
          155 hlineto
          0 2 1 4 3 vhcurveto
          5 -11 callsubr
          3 -7 11 hhcurveto
          4 hlineto
          1 54 7 31 hhcurveto
          hintmask 01110000
          20 25 20 63 23 81 rrcurveto
          169 11 callsubr
          53 7 20 72 vvcurveto
          46 -33 3 -27 -87 -67 1 3 -76 vhcurveto
          41 134 rlineto
          40 11 callsubr
          49 7 23 72 vvcurveto
          33 -95 13 18 3 vhcurveto
          -29 -25 0 1 -27 hvcurveto
          114 48 28 110 -76 hhcurveto
          -13 -5 -2 1 -2 0 -1 1 rlinecurve
          -3 1 -1 1 1 1 rrcurveto
          -25 hlineto
          4 -5 -20 4 -9 -3 -21 -8 -3 hhcurveto
          -3 -6 5 3 hvcurveto
          -24 -48 5 -13 -16 hvcurveto
          -13 -9 9 -12 -31 -29 -10 -27 -5 1 1 -7 hhcurveto
          -3 -16 -10 -5 vvcurveto
          -63 -200 rlineto
          -51 hlineto
          -112 -91 -7 -100 hhcurveto
          -5 -11 -26 -21 -14 callsubr
          endchar
        </CharString>
        <CharString name="ntilde">
          -44 18 callgsubr
          1266 -50 callgsubr
          hintmask 01001000
          1437 393 rmoveto
          49 5 482 47 -95 callgsubr
          hintmask 10001000
          -78 callsubr
          180 -252 rlineto
          hintmask 00011000
          -43 43 58 12 28 hhcurveto
          hintmask 00101000
          68 80 -1 64 hhcurveto
          hintmask 01000100
          -41 callsubr
          -450 1443 -75 callgsubr
          hintmask 01000010
          -83 callsubr
          hintmask 01001000
          -85 callgsubr
        </CharString>
        <CharString name="numbersign">
          229 -2 -21 26 -21 29 -21 205 414 222 319 hstemhm
          hintmask 10011000
          1602 1384 rmoveto
          23 -23 -229 -12 -23 hhcurveto
          -102 hlineto
          -31 -34 -14 -19 -21 hvcurveto
          -41 -213 -207 2 rlineto
          17 88 13 61 33 callsubr
          4 -8 -139 5 -17 -1 -32 -9 -5 hhcurveto
          -3 -12 6 3 hvcurveto
          -19 -20 2 -19 hhcurveto
          -20 -18 -2 -9 -12 hvcurveto
          -19 -14 11 -19 -19 -14 -13 -17 -8 0 2 -9 hhcurveto
          -4 -19 -13 -5 vvcurveto
          -41 -213 rlineto
          -1 -32 -31 -2 -35 hhcurveto
          -23 -35 -23 -18 -3 hvcurveto
          -19 -94 -5 -44 -16 -95 rrcurveto
          -49 -8 70 3 75 hhcurveto
          -25 -132 -13 -81 rlineto
          -3 -31 -31 -1 -32 hhcurveto
          -23 -35 -29 -24 -3 hvcurveto
          -19 -120 -5 -58 -16 -123 rrcurveto
          -57 -8 61 -4 67 hhcurveto
          -3 -9 0 -10 -1 -9 rrcurveto
          -24 -20 -79 -48 vvcurveto
          -23 3 -15 15 vhcurveto
          hintmask 01011000
          16 110 2 3 5 hvcurveto
          152 hlineto
          -10 callsubr
          5 3 vhcurveto
          hintmask 00111000
          9 3 rlineto
          hintmask 01011000
          11 4 -8 17 -53 callsubr
          hintmask 00111000
          3 49 8 48 hhcurveto
          23 31 16 75 19 99 rrcurveto
          222 hlineto
          -3 -11 0 -9 -1 -9 rrcurveto
          -24 -20 -79 -48 vvcurveto
          hintmask 10011000
          -23 3 -15 15 15 111 -5 5 157 vhcurveto
          hintmask 00111000
          55 3 12 2 88 8 23 31 16 75 19 99 rrcurveto
          17 hlineto
          5 6 1 2 8 hvcurveto
          15 4 rlineto
          101 9 40 72 11 hvcurveto
          11 86 13 34 16 120 rrcurveto
          51 8 -73 4 -52 hhcurveto
          -16 hlineto
          45 217 25 5 rlineto
          101 9 31 56 11 hvcurveto
          11 67 13 26 16 92 rrcurveto
          40 8 -73 3 -52 hhcurveto
          -4 hlineto
          19 91 12 63 33 callsubr
          -778 -558 rmoveto
          212 hlineto
          -25 -132 -13 -81 rlineto
          1 -76 -74 1 -67 hhcurveto
          endchar
        </CharString>
        <CharString name="o">
          -12 callgsubr
          hstemhm
          hintmask 01110000
          25 callgsubr
          hintmask 10001000
          31 26 -8 31 hhcurveto
          210 252 2 201 134 hvcurveto
          14 8 rlineto
          3 24 39 16 8 hvcurveto
          61 112 31 125 128 vvcurveto
          268 -94 164 -215 143 vhcurveto
          62 -112 -107 6 -215 hhcurveto
          -4 -7 1 -3 -4 hvcurveto
          hintmask 01110000
          4 -24 -25 0 -24 hhcurveto
          -332 -207 -353 -311 -164 65 -258 175 -98 hvcurveto
          -42 71 2 -7 25 hhcurveto
          14 hlineto
          -21 67 63 -14 63 hhcurveto
          53 559 rmoveto
          43 330 rlineto
          104 12 31 37 25 hhcurveto
          61 -2 -315 16 hvcurveto
          hintmask 10010000
          -76 callsubr
          endchar
        </CharString>
        <CharString name="oacute">
          -29 callgsubr
          945 -20 -98 callsubr
          hintmask 10010100
          -76 callsubr
          192 1102 -89 callsubr
          endchar
        </CharString>
        <CharString name="obreve">
          -12 callgsubr
          89 -25 callsubr
          hstemhm
          268 -58 callgsubr
          hintmask 0111011110000000
          25 callgsubr
          hintmask 1000111110000000
          31 26 -8 31 hhcurveto
          210 252 2 201 134 hvcurveto
          14 8 rlineto
          3 24 39 16 8 hvcurveto
          61 112 31 125 128 vvcurveto
          268 -94 164 -215 143 vhcurveto
          62 -112 -107 6 -215 hhcurveto
          -4 -7 1 -3 -4 hvcurveto
          hintmask 0111011110000000
          4 -24 -25 0 -24 hhcurveto
          -332 -207 -353 -311 -164 65 -258 175 -98 hvcurveto
          -42 71 2 -7 25 hhcurveto
          14 hlineto
          -21 67 63 -14 63 hhcurveto
          53 559 rmoveto
          43 330 rlineto
          104 12 31 37 25 hhcurveto
          61 -2 -315 16 hvcurveto
          hintmask 1001011110000000
          -76 callsubr
          243 1392 -96 callgsubr
        </CharString>
        <CharString name="ocircumflex">
          -29 callgsubr
          843 -20 -98 callsubr
          hintmask 10010100
          -76 callsubr
          219 1018 rmoveto
          -53 43 69 -133 29 hhcurveto
          23 32 1 -3 64 hvcurveto
          41 2 rlineto
          20 hlineto
          31 35 -2 28 hhcurveto
          23 8 20 21 hvcurveto
          11 -2 7 8 vvcurveto
          -56 224 -132 214 -109 197 -47 27 rcurveline
          -61 6 rlineto
          -69 2 -1 5 -54 hvcurveto
          -76 2 rlineto
          -121 hlineto
          -94 -23 -14 -16 -52 -83 -34 -72 -41 -80 rlinecurve
          -51 -133 -92 -134 -27 -133 rrcurveto
          -3 -8 1 -7 -11 vvcurveto
          -21 7 -20 23 vhcurveto
          37 43 2 35 hhcurveto
          61 hlineto
          9 6 10 -8 rlineto
          3 24 33 -1 23 hhcurveto
          29 65 88 88 59 hvcurveto
          34 51 36 59 39 66 35 -53 37 -60 47 -53 rrcurveto
          endchar
        </CharString>
        <CharString name="odieresis">
          -29 callgsubr
          175 -23 callgsubr
          880 476 hintmask 01110101
          25 callgsubr
          hintmask 10001101
          31 26 -8 31 hhcurveto
          210 252 2 201 134 hvcurveto
          14 8 rlineto
          3 24 39 16 8 hvcurveto
          61 112 31 125 128 vvcurveto
          268 -94 164 -215 143 vhcurveto
          62 -112 -107 6 -215 hhcurveto
          -4 -7 1 -3 -4 hvcurveto
          hintmask 01110101
          4 -24 -25 0 -24 hhcurveto
          -332 -207 -353 -311 -164 65 -258 175 -98 hvcurveto
          -42 71 2 -7 25 hhcurveto
          14 hlineto
          -21 67 63 -14 63 hhcurveto
          53 559 rmoveto
          43 330 rlineto
          104 12 31 37 25 hhcurveto
          61 -2 -315 16 hvcurveto
          hintmask 10010101
          -76 callsubr
          -2 1260 -47 callsubr
          hintmask 10010011
          21 callgsubr
          hintmask 10010101
          -100 callsubr
          hintmask 10010011
          -24 callgsubr
          hintmask 10010101
          -99 callgsubr
          endchar
        </CharString>
        <CharString name="oe">
          433 8 260 -258 -21 480 236 217 252 10 -20 21 -20 hstemhm
          hintmask 01110000
          730 -11 rmoveto
          hintmask 10110000
          132 141 19 562 97 74 6 89 hhcurveto
          3 5 0 1 4 hvcurveto
          3 2 0 1 3 hvcurveto
          14 15 rlineto
          3 0 3 1 3 vhcurveto
          5 1 5 3 vvcurveto
          67 -9 15 -13 53 vhcurveto
          25 -6 2 55 -19 -123 -127 -12 -124 hhcurveto
          10 -2 36 24 vvcurveto
          3 25 rlineto
          1 15 2 17 12 vvcurveto
          -1 2 0 2 3 vvcurveto
          -1 4 0 5 7 vvcurveto
          57 33 -6 96 vhcurveto
          90 hlineto
          110 109 -11 callgsubr
          -43 135 -13 45 -11 -7 -40 5 rlinecurve
          -16 3 -16 13 -23 -3 rrcurveto
          -4 -7 -3 -3 -3 hvcurveto
          -174 hlineto
          3 -5 -14 3 -4 hhcurveto
          -4 -4 -9 -2 -7 hhcurveto
          -21 -8 6 32 35 14 123 21 hvcurveto
          -6 vlineto
          36 27 138 -12 37 5 rrcurveto
          7 47 35 0 45 hhcurveto
          38 56 -3 60 -10 hvcurveto
          86 -24 2 117 -48 hhcurveto
          -64 hlineto
          -120 -151 -8 -124 hhcurveto
          hintmask 10101000
          -97 -92 7 3 -96 hvcurveto
          -101 -94 -1 -176 hhcurveto
          -4 -7 1 -3 -4 hvcurveto
          hintmask 01100100
          4 -24 -25 0 -24 hhcurveto
          -332 -207 -333 -291 -164 65 -258 175 -98 hvcurveto
          -72 133 124 20 136 hhcurveto
          135 709 rmoveto
          -34 vlineto
          -116 0 -406 2 -51 -67 4 51 -11 vhcurveto
          -43 50 14 318 14 vvcurveto
          29 267 rlineto
          107 11 69 34 48 hhcurveto
          -2 1 1 -217 -65 vvcurveto
          endchar
        </CharString>
        <CharString name="ogonek">
          -697 32 callgsubr
          hstem
          74 420 vstem
          701 21 -95 callsubr
          44 42 rcurveline
          endchar
        </CharString>
        <CharString name="ograve">
          -29 callgsubr
          945 -20 -98 callsubr
          hintmask 10010100
          -76 callsubr
          1081 vmoveto
          -102 callgsubr
        </CharString>
        <CharString name="ohungarumlaut">
          -12 callgsubr
          945 -20 -98 callsubr
          hintmask 10010100
          -76 callsubr
          -117 1102 -100 callgsubr
        </CharString>
        <CharString name="omacron">
          -12 callgsubr
          247 376 -98 callsubr
          hintmask 10010100
          -76 callsubr
          249 980 -94 callsubr
        </CharString>
        <CharString name="one">
          -491 21 -21 1190 -20 hstem
          974 1133 rmoveto
          24 -29 29 -25 vhcurveto
          -227 -151 4 -230 hhcurveto
          -20 -37 -8 -49 -76 hvcurveto
          -70 -45 -34 -12 -13 vvcurveto
          -393 vlineto
          -19 24 -22 27 vhcurveto
          70 52 110 29 hhcurveto
          9 -4 -307 -125 4 hvcurveto
          -4 10 -82 -16 -10 -10 -76 -8 vvcurveto
          -99 40 -6 72 vhcurveto
          189 69 -6 252 hhcurveto
          51 4 72 53 hvcurveto
          106 11 94 126 vvcurveto
          231 vlineto
          endchar
        </CharString>
        <CharString name="onehalf">
          835 -18 318 -302 -21 34 -21 28 -43 callgsubr
          592 296 83 377 hstemhm
          215 455 1192 476 hintmask 0100111110000000
          1327 408 rmoveto
          2 8 124 391 3 4 rrcurveto
          -56 callgsubr
          hintmask 1000011110000000
          -12 callsubr
          hintmask 0010011110000000
          9 3 rlineto
          hintmask 1000011110000000
          11 3 -8 17 -53 callsubr
          hintmask 0010011110000000
          -27 callgsubr
          hintmask 0100111110000000
          611 -409 rmoveto
          hintmask 0001011110000000
          46 85 -2 71 hhcurveto
          205 -7 14 75 hvcurveto
          63 5 23 88 vvcurveto
          hintmask 1000011110000000
          -49 callsubr
          -84 -48 -138 -158 -7 hhcurveto
          -23 -24 -16 -25 -29 vvcurveto
          hintmask 0100111110000000
          22 callsubr
          -1260 1310 -69 callsubr
          109 8 89 176 vvcurveto
          endchar
        </CharString>
        <CharString name="onequarter">
          885 -18 403 -389 -43 callgsubr
          32 -21 22 -21 22 -43 callgsubr
          133 260 585 377 hstemhm
          216 455 1257 322 hintmask 0010000111100000
          679 1309 -69 callsubr
          109 8 89 176 vvcurveto
          649 -597 rmoveto
          8 129 391 4 vvcurveto
          -56 callgsubr
          hintmask 1000000011100000
          -12 callsubr
          hintmask 0000010111100000
          9 3 rlineto
          hintmask 1000000011100000
          11 3 -8 17 -53 callsubr
          hintmask 0000010111100000
          -27 callgsubr
          397 517 rmoveto
          -8 -7 -9 -5 -7 -7 -68 -124 -116 -49 callgsubr
          hintmask 0100000111100000
          -20 3 -6 -82 35 hhcurveto
          hintmask 0001000111100000
          11 52 13 4 hhcurveto
          92 hlineto
          hintmask 0000001111100000
          1 1 6 3 1 hhcurveto
          hintmask 0001000111100000
          13 4 -4 29 hhcurveto
          hintmask 0000010111100000
          6 2 rlineto
          hintmask 0000001111100000
          1 4 3 1 3 hhcurveto
          hintmask 0000100111100000
          -9 callsubr
          41 94 -9 23 13 hvcurveto
          0 4 81 13 vvcurveto
          hintmask 1000000011100000
          19 callgsubr
          181 7 89 19 21 -4 21 23 43 5 42 31 vvcurveto
          25 -4 16 -13 vhcurveto
          -16 -31 2 -21 hhcurveto
          -9 hlineto
          9 callgsubr
          -23 -19 2 -20 hhcurveto
          -21 callgsubr
          -372 23 callgsubr
        </CharString>
        <CharString name="onesuperior">
          -787 568 -21 423 377 hstem
          216 455 vstem
          679 1309 -69 callsubr
          71 8 64 84 vvcurveto
          155 vlineto
          endchar
        </CharString>
        <CharString name="ordfeminine">
          -197 274 215 531 168 2 -20 hstemhm
          97 477 206 488 hintmask 11011000
          1268 1141 rmoveto
          23 -24 24 -23 vhcurveto
          -157 -113 -4 -84 hhcurveto
          hintmask 10111000
          -80 -95 6 -113 hhcurveto
          -191 -291 -70 -340 -373 163 -133 247 73 103 14 166 96 hvcurveto
          5 5 -4 -67 -8 vvcurveto
          -85 35 -5 64 vhcurveto
          122 48 -6 162 hhcurveto
          45 2 62 48 hvcurveto
          109 10 5 238 vvcurveto
          -472 -36 rmoveto
          -1 -43 -6 -37 -11 -33 rrcurveto
          -56 -19 -33 -56 -72 hhcurveto
          -80 0 265 65 hvcurveto
          hintmask 11011000
          10 0 191 140 41 20 -78 -75 11 vhcurveto
          6 -45 3 -51 1 -57 rrcurveto
          endchar
        </CharString>
        <CharString name="ordmasculine">
          -50 480 90 654 -20 21 -20 hstemhm
          hintmask 11000000
          405 485 rmoveto
          17 17 -5 17 hhcurveto
          122 148 1 118 78 hvcurveto
          8 4 rlineto
          2 14 23 10 5 hvcurveto
          36 65 18 73 75 vvcurveto
          155 -56 98 -125 82 vhcurveto
          38 -65 -64 2 -124 28 callsubr
          -3 hvcurveto
          hintmask 10100000
          3 -15 -13 -1 -15 hhcurveto
          -193 -121 -206 -181 -97 37 -149 103 -58 hvcurveto
          -24 40 4 -5 13 hhcurveto
          8 hlineto
          -12 39 37 -8 37 hhcurveto
          31 326 rmoveto
          25 193 rlineto
          60 7 17 22 16 hhcurveto
          35 -1 -184 10 -44 -7 -298 -50 -7 -9 3 5 -1 hvcurveto
          -14 46 rlineto
          -4 17 -7 135 11 vvcurveto
          endchar
        </CharString>
        <CharString name="oslash">
          244 -68 callgsubr
          hstemhm
          hintmask 01110000
          761 -43 rmoveto
          hintmask 10001000
          31 26 -8 31 hhcurveto
          210 252 2 201 134 hvcurveto
          14 8 rlineto
          3 24 39 16 8 hvcurveto
          61 112 31 125 128 vvcurveto
          111 -17 96 -35 81 vhcurveto
          31 19 26 14 19 11 30 18 rcurveline
          118 88 -17 3 -55 47 -20 8 -22 24 -12 11 -11 9 -13 8 -19 -8 -159 -93 rcurveline
          -43 47 -50 41 -60 40 rrcurveto
          62 -112 -107 6 -215 hhcurveto
          -4 -7 1 -3 -4 hvcurveto
          hintmask 01110000
          4 -24 -25 0 -24 hhcurveto
          -332 -207 -353 -311 -81 15 -99 36 -95 hvcurveto
          -126 -87 -29 -24 -37 -24 53 -43 rlinecurve
          3 -3 10 -9 21 -29 12 -8 13 -9 24 -12 33 5 52 31 67 44 27 -31 31 -26 35 -20 rrcurveto
          -42 71 2 -7 25 hhcurveto
          14 hlineto
          -21 67 63 -14 63 hhcurveto
          218 572 rmoveto
          hintmask 10010000
          -176 -8 -25 -251 -60 hhcurveto
          -11 -15 4 11 -3 hvcurveto
          -23 78 -5 18 -10 136 -3 73 rlinecurve
          18 251 rmoveto
          23 173 rlineto
          104 12 31 37 25 hhcurveto
          40 12 -132 -89 5 hvcurveto
          -64 -37 rlineto
          endchar
        </CharString>
        <CharString name="otilde">
          -29 callgsubr
          61 375 -144 144 -144 371 -98 callsubr
          hintmask 10010010
          -76 callsubr
          296 1361 -75 callgsubr
          hintmask 10010001
          -83 callsubr
          hintmask 10010100
          -85 callgsubr
        </CharString>
        <CharString name="overscore">
          -489 1450 376 hstem
          710 1455 -94 callsubr
        </CharString>
        <CharString name="p">
          -65 15 -21 27 -21 274 215 531 170 hstemhm
          hintmask 10110000
          119 750 rmoveto
          -238 10 -299 -109 vvcurveto
          -48 2 -62 45 vhcurveto
          hintmask 01110000
          7 callgsubr
          9 29 69 vvcurveto
          243 9 callsubr
          hvcurveto
          -177 -143 -6 -128 -84 -113 4 -157 hhcurveto
          -23 -24 -24 -23 hvcurveto
          612 -647 rmoveto
          1 98 3 88 6 77 rrcurveto
          132 11 20 131 41 hhcurveto
          80 0 -191 -10 2 callgsubr
        </CharString>
        <CharString name="paragraph">
          74 23 -21 1374 -20 hstem
          674 385 98 381 vstem
          1156 322 rmoveto
          -213 vlineto
          -99 41 -6 72 vhcurveto
          -1 55 65 -1 84 hhcurveto
          51 4 72 53 hvcurveto
          127 10 344 272 vvcurveto
          451 vlineto
          25 -28 28 -25 vhcurveto
          -187 -134 -4 -99 -125 -142 6 -169 hhcurveto
          -224 -342 -80 -391 -381 227 -128 347 hvcurveto
          37 -283 hlineto
          -99 41 -6 72 vhcurveto
          62 108 -6 47 hhcurveto
          51 4 72 53 hvcurveto
          737 vlineto
          99 3 rlineto
          endchar
        </CharString>
        <CharString name="parenleft">
          33 callgsubr
          585 1475 rmoveto
          -92 -47 -224 -105 -103 -223 -43 -87 -31 -98 -16 -104 rrcurveto
          -9 -60 -4 -58 -64 vvcurveto
          -45 2 -41 4 -39 vhcurveto
          28 -344 191 -119 105 -85 93 -75 106 -74 123 -57 234 421 rcurveline
          -19 11 -25 23 -13 15 -11 11 -72 83 -10 15 rrcurveto
          -59 83 -42 89 163 vvcurveto
          246 87 111 93 109 vhcurveto
          -115 384 -69 -9 -39 -7 -43 -10 -27 -13 rlinecurve
          endchar
        </CharString>
        <CharString name="parenright">
          33 callgsubr
          427 1475 rmoveto
          -27 13 -43 10 -39 7 -69 9 rcurveline
          -115 -384 rlineto
          93 -109 87 -111 -246 vvcurveto
          -163 -42 -89 -59 -83 vhcurveto
          -10 -15 -72 -83 -11 -11 -13 -15 -25 -23 -19 -11 234 -421 rcurveline
          123 57 106 74 93 75 106 84 189 120 29 344 rrcurveto
          4 39 2 41 45 vvcurveto
          64 -4 58 -9 60 vhcurveto
          -16 104 -31 98 -43 87 -103 223 -224 105 -92 47 rrcurveto
          endchar
        </CharString>
        <CharString name="partialdiff">
          124 endchar
        </CharString>
        <CharString name="percent">
          966 -3 -21 27 -43 callgsubr
          27 -21 599 251 273 231 hstemhm
          1548 409 hintmask 00101110
          1410 -57 callsubr
          hintmask 01001110
          11 callgsubr
          hintmask 00011110
          10 3 rlineto
          hintmask 01001110
          -2 callgsubr
          -973 78 rmoveto
          -82 callgsubr
          -35 callgsubr
          -36 -9 -211 -58 -7 -11 -1 11 -1 hvcurveto
          -21 62 -8 65 5 vvcurveto
          1444 -894 rmoveto
          hintmask 10001110
          -82 callgsubr
          hintmask 01001110
          -30 callsubr
          endchar
        </CharString>
        <CharString name="period">
          -798 -49 471 -448 20 callgsubr
          669 -20 rmoveto
          -67 callsubr
          -14 6 rcurveline
          -71 callgsubr
          endchar
        </CharString>
</ttFont>
